<svg width="75" height="90" viewBox="0 0 75 90" fill="none" xmlns="http://www.w3.org/2000/svg">
<path d="M73.4281 70.1373C72.0816 73.2817 70.4877 76.176 68.641 78.8371C66.1238 82.4647 64.0627 84.9758 62.4744 86.3702C60.0121 88.659 57.374 89.8312 54.549 89.8978C52.5209 89.8978 50.0751 89.3145 47.2281 88.1312C44.3718 86.9535 41.7469 86.3702 39.3467 86.3702C36.8295 86.3702 34.1298 86.9535 31.2421 88.1312C28.3501 89.3145 26.0203 89.9312 24.239 89.9923C21.5299 90.1089 18.8297 88.9034 16.1344 86.3702C14.4141 84.8535 12.2624 82.2536 9.68471 78.5704C6.91906 74.6372 4.64532 70.0762 2.86403 64.8764C0.956324 59.2599 0 53.8212 0 48.5558C0 42.5243 1.28939 37.3222 3.87201 32.9629C5.90173 29.4613 8.60197 26.6992 11.9815 24.6715C15.3611 22.6438 19.0127 21.6105 22.9452 21.5444C25.0969 21.5444 27.9186 22.2171 31.4251 23.5393C34.9218 24.8659 37.1669 25.5387 38.1513 25.5387C38.8872 25.5387 41.3814 24.752 45.6095 23.1838C49.6079 21.7294 52.9826 21.1271 55.7471 21.3644C63.2383 21.9755 68.8663 24.9604 72.6092 30.338C65.9094 34.4412 62.5953 40.1882 62.6612 47.5608C62.7217 53.3034 64.7827 58.0821 68.8334 61.8765C70.6691 63.6375 72.7191 64.9986 75 65.9652C74.5054 67.4152 73.9832 68.804 73.4281 70.1373ZM56.2473 1.80051C56.2473 6.30154 54.6204 10.5041 51.3777 14.394C47.4645 19.0183 42.7312 21.6905 37.5984 21.2688C37.533 20.7288 37.4951 20.1605 37.4951 19.5633C37.4951 15.2423 39.356 10.618 42.6609 6.83703C44.3108 4.92264 46.4092 3.33086 48.9539 2.06106C51.4931 0.810206 53.8949 0.118459 56.1538 0C56.2198 0.601718 56.2473 1.20353 56.2473 1.80051Z" fill="white"/>
</svg>
