<?xml version="1.0" encoding="UTF-8"?>
<svg version="1.1" xmlns="http://www.w3.org/2000/svg" width="693" height="360">
<path d="M0 0 C228.69 0 457.38 0 693 0 C693 118.8 693 237.6 693 360 C464.31 360 235.62 360 0 360 C0 241.2 0 122.4 0 0 Z " fill="#FEFEFE" transform="translate(0,0)"/>
<path d="M0 0 C0.99 0 1.98 0 3 0 C5.0660578 3.55454108 7.12890661 7.11092362 9.18896484 10.66894531 C9.88830825 11.87581957 10.58848417 13.08221186 11.28955078 14.28808594 C12.3046746 16.03450438 13.3166609 17.78271 14.328125 19.53125 C14.9355957 20.57861328 15.54306641 21.62597656 16.16894531 22.70507812 C18.22712458 26.40870311 20.10511531 30.21023063 22 34 C8.47 34 -5.06 34 -19 34 C-17.40066869 30.00167172 -15.73776272 26.62805237 -13.59375 22.9296875 C-13.26838257 22.36678009 -12.94301514 21.80387268 -12.60778809 21.22390747 C-11.92351012 20.04143756 -11.23765181 18.8598809 -10.55029297 17.67919922 C-9.50018549 15.87531864 -8.45475618 14.06879321 -7.41015625 12.26171875 C-2.3179789 3.47696834 -2.3179789 3.47696834 0 0 Z " fill="#D6D6D6" transform="translate(393,155)"/>
<path d="M0 0 C2.31 0 4.62 0 7 0 C9.1875 2.5 9.1875 2.5 11 6 C11.55880859 7.07894531 11.55880859 7.07894531 12.12890625 8.1796875 C13.11278837 10.10631382 14.05950271 12.05182705 15 14 C17.31 9.38 19.62 4.76 22 0 C24.64 0 27.28 0 30 0 C30 9.9 30 19.8 30 30 C27.36 30 24.72 30 22 30 C21.67 26.04 21.34 22.08 21 18 C19.68 20.31 18.36 22.62 17 25 C14.625 24.75 14.625 24.75 12 24 C10.8125 22 10.8125 22 10 20 C9.34 19.67 8.68 19.34 8 19 C8.01160156 19.71027344 8.02320313 20.42054688 8.03515625 21.15234375 C8.04869141 22.53099609 8.04869141 22.53099609 8.0625 23.9375 C8.07410156 24.85402344 8.08570313 25.77054688 8.09765625 26.71484375 C8 29 8 29 7 30 C4.69 30 2.38 30 0 30 C0 20.1 0 10.2 0 0 Z " fill="#F1F1F1" transform="translate(341,157)"/>
<path d="M0 0 C2.64 0 5.28 0 8 0 C8 3.63 8 7.26 8 11 C11.3 11 14.6 11 18 11 C18 7.37 18 3.74 18 0 C20.64 0 23.28 0 26 0 C26 9.9 26 19.8 26 30 C23.36 30 20.72 30 18 30 C18 26.04 18 22.08 18 18 C14.7 18 11.4 18 8 18 C8 21.96 8 25.92 8 30 C5.36 30 2.72 30 0 30 C0 20.1 0 10.2 0 0 Z " fill="#F0F0F0" transform="translate(311,157)"/>
<path d="M0 0 C0.87454834 0.00523682 1.74909668 0.01047363 2.65014648 0.01586914 C3.59438477 0.0190918 4.53862305 0.02231445 5.51147461 0.02563477 C6.50469727 0.03401367 7.49791992 0.04239258 8.52124023 0.05102539 C9.51833008 0.05553711 10.51541992 0.06004883 11.54272461 0.06469727 C14.01478872 0.07652532 16.48673541 0.0930069 18.95874023 0.11352539 C18.95874023 2.42352539 18.95874023 4.73352539 18.95874023 7.11352539 C14.33874023 7.11352539 9.71874023 7.11352539 4.95874023 7.11352539 C4.95874023 8.43352539 4.95874023 9.75352539 4.95874023 11.11352539 C5.81338867 11.10192383 6.66803711 11.09032227 7.54858398 11.07836914 C8.65331055 11.0693457 9.75803711 11.06032227 10.89624023 11.05102539 C11.99838867 11.03942383 13.10053711 11.02782227 14.23608398 11.01586914 C16.95874023 11.11352539 16.95874023 11.11352539 17.95874023 12.11352539 C17.95874023 14.09352539 17.95874023 16.07352539 17.95874023 18.11352539 C13.66874023 18.11352539 9.37874023 18.11352539 4.95874023 18.11352539 C4.95874023 19.76352539 4.95874023 21.41352539 4.95874023 23.11352539 C9.57874023 23.11352539 14.19874023 23.11352539 18.95874023 23.11352539 C18.95874023 25.42352539 18.95874023 27.73352539 18.95874023 30.11352539 C11.69874023 30.11352539 4.43874023 30.11352539 -3.04125977 30.11352539 C-3.06417371 26.00174612 -3.08409927 21.89012881 -3.09619141 17.77832031 C-3.10123056 16.37857311 -3.10806193 14.97883119 -3.11669922 13.57910156 C-3.12878296 11.57106762 -3.13395783 9.56299582 -3.13891602 7.55493164 C-3.14415283 6.34522705 -3.14938965 5.13552246 -3.15478516 3.88916016 C-3.00254571 0.16698765 -3.00254571 0.16698765 0 0 Z " fill="#EFF0F0" transform="translate(448.041259765625,156.886474609375)"/>
<path d="M0 0 C7.26 0 14.52 0 22 0 C22 1.98 22 3.96 22 6 C17.38 6 12.76 6 8 6 C8 7.65 8 9.3 8 11 C8.85464844 10.98839844 9.70929688 10.97679687 10.58984375 10.96484375 C11.69457031 10.95582031 12.79929687 10.94679687 13.9375 10.9375 C15.03964844 10.92589844 16.14179688 10.91429687 17.27734375 10.90234375 C20 11 20 11 21 12 C21 13.98 21 15.96 21 18 C16.71 18 12.42 18 8 18 C8 19.65 8 21.3 8 23 C12.62 23 17.24 23 22 23 C22 25.31 22 27.62 22 30 C14.74 30 7.48 30 0 30 C0 20.1 0 10.2 0 0 Z " fill="#FCFCFC" transform="translate(256,157)"/>
<path d="M0 0 C0.91644287 0.00523682 1.83288574 0.01047363 2.77709961 0.01586914 C3.76645508 0.0190918 4.75581055 0.02231445 5.77514648 0.02563477 C6.81606445 0.03401367 7.85698242 0.04239258 8.92944336 0.05102539 C10.49662109 0.05779297 10.49662109 0.05779297 12.09545898 0.06469727 C14.68600996 0.07652627 17.27644895 0.0930085 19.86694336 0.11352539 C20.70500003 2.96291807 21.15402367 4.49517129 19.87890625 7.24169922 C19.37093506 7.92772217 18.86296387 8.61374512 18.33959961 9.32055664 C17.52265625 10.446875 17.52265625 10.446875 16.68920898 11.59594727 C16.10848633 12.36487305 15.52776367 13.13379883 14.92944336 13.92602539 C14.06416016 15.10841797 14.06416016 15.10841797 13.18139648 16.31469727 C11.75664617 18.25753861 10.31352029 20.18688035 8.86694336 22.11352539 C12.82694336 22.44352539 16.78694336 22.77352539 20.86694336 23.11352539 C20.86694336 25.42352539 20.86694336 27.73352539 20.86694336 30.11352539 C12.94694336 30.11352539 5.02694336 30.11352539 -3.13305664 30.11352539 C-3.13305664 23.36489926 -3.13305664 23.36489926 -0.76196289 20.31665039 C-0.02429688 19.34405273 -0.02429688 19.34405273 0.72827148 18.35180664 C1.2484082 17.69567383 1.76854492 17.03954102 2.30444336 16.36352539 C3.32486555 15.03608479 4.34443755 13.70799008 5.36303711 12.37915039 C5.81864014 11.79939453 6.27424316 11.21963867 6.74365234 10.62231445 C7.94929345 9.09500099 7.94929345 9.09500099 8.86694336 7.11352539 C8.08448242 7.12512695 7.30202148 7.13672852 6.49584961 7.14868164 C5.48393555 7.15770508 4.47202148 7.16672852 3.42944336 7.17602539 C2.42010742 7.18762695 1.41077148 7.19922852 0.37084961 7.21118164 C-2.13305664 7.11352539 -2.13305664 7.11352539 -3.13305664 6.11352539 C-3.25805664 3.61352539 -3.25805664 3.61352539 -3.13305664 1.11352539 C-2.13305664 0.11352539 -2.13305664 0.11352539 0 0 Z " fill="#F0F0F0" transform="translate(421.133056640625,156.886474609375)"/>
<path d="M0 0 C0 2.31 0 4.62 0 7 C-4.95 7 -9.9 7 -15 7 C-15.94649974 12.67899844 -15.9283811 14.82381916 -14 20 C-11.23547967 21.38226016 -8.9538637 21.09525387 -5.875 21.0625 C-4.77929688 21.05347656 -3.68359375 21.04445312 -2.5546875 21.03515625 C-1.71164062 21.02355469 -0.86859375 21.01195312 0 21 C0 23.31 0 25.62 0 28 C-6.02337631 30.0077921 -12.73946409 30.04953453 -18.5 27.375 C-22.62678936 23.45455011 -25.21049939 20.36581994 -25.4375 14.5625 C-25.2088083 10.18047189 -24.24885139 6.82304736 -22 3 C-14.75761282 -3.11579362 -8.62153357 -2.06167107 0 0 Z " fill="#EFEFEF" transform="translate(307,158)"/>
<path d="M0 0 C1.00023193 0.00523682 2.00046387 0.01047363 3.03100586 0.01586914 C4.1105957 0.0190918 5.19018555 0.02231445 6.30249023 0.02563477 C8.00695312 0.03820312 8.00695312 0.03820312 9.74584961 0.05102539 C11.45611328 0.05779297 11.45611328 0.05779297 13.20092773 0.06469727 C16.02845312 0.07652792 18.85587601 0.09301129 21.68334961 0.11352539 C21.68334961 2.42352539 21.68334961 4.73352539 21.68334961 7.11352539 C19.37334961 7.11352539 17.06334961 7.11352539 14.68334961 7.11352539 C14.35334961 14.70352539 14.02334961 22.29352539 13.68334961 30.11352539 C11.04334961 30.11352539 8.40334961 30.11352539 5.68334961 30.11352539 C5.68334961 22.52352539 5.68334961 14.93352539 5.68334961 7.11352539 C2.71334961 6.78352539 -0.25665039 6.45352539 -3.31665039 6.11352539 C-3.35937139 4.44740634 -3.35728871 2.77969654 -3.31665039 1.11352539 C-2.31665039 0.11352539 -2.31665039 0.11352539 0 0 Z " fill="#EFEFEF" transform="translate(230.316650390625,156.886474609375)"/>
<path d="M0 0 C0.66 0.99 1.32 1.98 2 3 C3.96128755 3.8237956 3.96128755 3.8237956 6 4 C6.66 3.67 7.32 3.34 8 3 C8.66 4.32 9.32 5.64 10 7 C10.33 6.34 10.66 5.68 11 5 C12.53351528 7.43030784 14.05183502 9.86805103 15.5625 12.3125 C16.00013672 13.00279297 16.43777344 13.69308594 16.88867188 14.40429688 C17.29794922 15.07138672 17.70722656 15.73847656 18.12890625 16.42578125 C18.51119385 17.03848877 18.89348145 17.65119629 19.28735352 18.2824707 C20 20 20 20 19 23 C18.01 23 17.02 23 16 23 C15.53037842 22.51104248 15.06075684 22.02208496 14.5769043 21.51831055 C13.11688648 19.82773735 13.11688648 19.82773735 11.00708008 19.65942383 C10.26868896 19.67513428 9.53029785 19.69084473 8.76953125 19.70703125 C7.56586914 19.7215332 7.56586914 19.7215332 6.33789062 19.73632812 C5.50451172 19.76146484 4.67113281 19.78660156 3.8125 19.8125 C2.96751953 19.82603516 2.12253906 19.83957031 1.25195312 19.85351562 C-0.83230384 19.88884201 -2.91623277 19.94264861 -5 20 C-4.67 19.34 -4.34 18.68 -4 18 C-0.04 18 3.92 18 8 18 C6.68 16.68 5.36 15.36 4 14 C3.63858045 11.67085177 3.30300475 9.33746522 3 7 C2.01 6.34 1.02 5.68 0 5 C0 4.34 0 3.68 0 3 C-0.66 3 -1.32 3 -2 3 C-1 1 -1 1 0 0 Z " fill="#D7D7D7" transform="translate(392,162)"/>
<path d="M0 0 C20.13 0 40.26 0 61 0 C61.495 1.485 61.495 1.485 62 3 C41.21 3 20.42 3 -1 3 C-0.67 2.01 -0.34 1.02 0 0 Z " fill="#DDDDDD" transform="translate(399,200)"/>
<path d="M0 0 C20.46 0 40.92 0 62 0 C62 0.99 62 1.98 62 3 C41.54 3 21.08 3 0 3 C0 2.01 0 1.02 0 0 Z " fill="#DBDBDB" transform="translate(234,200)"/>
<path d="M0 0 C0.33 -0.33 0.66 -0.66 1 -1 C3.4375 -1.1875 3.4375 -1.1875 6 -1 C6.66 -0.34 7.32 0.32 8 1 C7.71395102 2.67542976 7.38218767 4.34385343 7 6 C7.33 6.33 7.66 6.66 8 7 C9.9451 4.08235 10.45276317 2.37462715 11 -1 C11.99 -0.67 12.98 -0.34 14 0 C14 0.99 14 1.98 14 3 C14.33 3.66 14.66 4.32 15 5 C14.67 5.66 14.34 6.32 14 7 C13.01 7.33 12.02 7.66 11 8 C10.67 8.66 10.34 9.32 10 10 C7.5625 9.625 7.5625 9.625 5 9 C4.67 8.34 4.34 7.68 4 7 C3.67 7.99 3.34 8.98 3 10 C2.443125 9.814375 1.88625 9.62875 1.3125 9.4375 C-1.0508586 8.82533455 -1.0508586 8.82533455 -3.5625 9.625 C-6 10 -6 10 -7.875 9 C-9.65049945 5.84355654 -8.82068609 3.40900375 -8 0 C-5.15266466 -1.42366767 -3.07246902 -0.52297345 0 0 Z " fill="#D7D7D7" transform="translate(335,197)"/>
<path d="M0 0 C7.26 0 14.52 0 22 0 C22 1.98 22 3.96 22 6 C17.38 6 12.76 6 8 6 C8 7.65 8 9.3 8 11 C8.85464844 10.98839844 9.70929688 10.97679687 10.58984375 10.96484375 C11.69457031 10.95582031 12.79929687 10.94679687 13.9375 10.9375 C15.03964844 10.92589844 16.14179688 10.91429687 17.27734375 10.90234375 C20 11 20 11 21 12 C21 13.98 21 15.96 21 18 C16.71 18 12.42 18 8 18 C8 19.65 8 21.3 8 23 C12.62 23 17.24 23 22 23 C22 25.31 22 27.62 22 30 C14.74 30 7.48 30 0 30 C0 20.1 0 10.2 0 0 Z M1 1 C1 10.24 1 19.48 1 29 C7.6 29 14.2 29 21 29 C21 27.35 21 25.7 21 24 C16.38 24 11.76 24 7 24 C7.33 22.02 7.66 20.04 8 18 C11.63 17.67 15.26 17.34 19 17 C19 15.68 19 14.36 19 13 C15.04 13 11.08 13 7 13 C7 10.36 7 7.72 7 5 C11.62 5 16.24 5 21 5 C21 3.68 21 2.36 21 1 C14.4 1 7.8 1 1 1 Z " fill="#C8C9C9" transform="translate(256,157)"/>
<path d="M0 0 C0.33 0.66 0.66 1.32 1 2 C1.66 2 2.32 2 3 2 C2.67 3.32 2.34 4.64 2 6 C12.23 6.33 22.46 6.66 33 7 C33 7.66 33 8.32 33 9 C14.19 9.495 14.19 9.495 -5 10 C-3.51799926 6.29499816 -2.091496 3.32738 0 0 Z " fill="#D3D3D3" transform="translate(379,179)"/>
<path d="M0 0 C0.33 0.66 0.66 1.32 1 2 C9.25 2 17.5 2 26 2 C26.33 1.34 26.66 0.68 27 0 C29.375 0.1875 29.375 0.1875 32 1 C32.66 2.65 33.32 4.3 34 6 C23.77 6 13.54 6 3 6 C3 5.67 3 5.34 3 5 C12.24 5 21.48 5 31 5 C29.08780415 3.08780415 25.66354496 3.75564702 23.12109375 3.68359375 C22.4344313 3.66281265 21.74776886 3.64203156 21.04029846 3.62062073 C18.83947065 3.55505857 16.63852025 3.49620985 14.4375 3.4375 C12.94855486 3.39432108 11.45962227 3.350707 9.97070312 3.30664062 C6.31393447 3.1993707 2.65702682 3.09812228 -1 3 C-0.67 2.01 -0.34 1.02 0 0 Z " fill="#EFEFEF" transform="translate(381,183)"/>
<path d="M0 0 C0.33 0.33 0.66 0.66 1 1 C0.82364548 3.69082872 0.38164079 6.32851446 0 9 C-4.4143167 10.31236443 -4.4143167 10.31236443 -6.875 9 C-8.65049945 5.84355654 -7.82068609 3.40900375 -7 0 C-4.31633121 -1.3418344 -2.84719317 -0.73004953 0 0 Z " fill="#FDFDFD" transform="translate(334,197)"/>
<path d="M0 0 C1.33078101 6.41194487 1.33078101 6.41194487 -0.125 9 C-2.71896376 10.38344734 -4.25142257 9.81714464 -7 9 C-8.33078101 2.58805513 -8.33078101 2.58805513 -6.875 0 C-4.28103624 -1.38344734 -2.74857743 -0.81714464 0 0 Z " fill="#E7E7E7" transform="translate(324,197)"/>
<path d="M0 0 C0.66 0.66 1.32 1.32 2 2 C1.67 2.66 1.34 3.32 1 4 C1.66 4 2.32 4 3 4 C3.66 5.32 4.32 6.64 5 8 C4.01 9.32 3.02 10.64 2 12 C1.67 11.01 1.34 10.02 1 9 C0.01 10.32 -0.98 11.64 -2 13 C-2.33 12.01 -2.66 11.02 -3 10 C-3.99 11.32 -4.98 12.64 -6 14 C-6.66 12.68 -7.32 11.36 -8 10 C-6.68 8.35 -5.36 6.7 -4 5 C-3.67 5.33 -3.34 5.66 -3 6 C-2.01 4.02 -1.02 2.04 0 0 Z " fill="#D8D8D8" transform="translate(389,165)"/>
<path d="M0 0 C0.99 0 1.98 0 3 0 C3.66 1.65 4.32 3.3 5 5 C5.66 3.35 6.32 1.7 7 0 C7.66 0 8.32 0 9 0 C9 2.97 9 5.94 9 9 C7.35 9.33 5.7 9.66 4 10 C3.67 9.34 3.34 8.68 3 8 C2.01 9.485 2.01 9.485 1 11 C-0.32 10.67 -1.64 10.34 -3 10 C-2.67 9.01 -2.34 8.02 -2 7 C-1.67 7 -1.34 7 -1 7 C-0.67 4.69 -0.34 2.38 0 0 Z " fill="#D0D0D0" transform="translate(352,196)"/>
<path d="M0 0 C4.62 0 9.24 0 14 0 C14 0.33 14 0.66 14 1 C9.71 1 5.42 1 1 1 C1 2.65 1 4.3 1 6 C1.85464844 5.98839844 2.70929688 5.97679687 3.58984375 5.96484375 C4.69457031 5.95582031 5.79929687 5.94679687 6.9375 5.9375 C8.03964844 5.92589844 9.14179688 5.91429687 10.27734375 5.90234375 C13 6 13 6 14 7 C14 8.98 14 10.96 14 13 C9.71 13 5.42 13 1 13 C1 12.67 1 12.34 1 12 C4.63 12 8.26 12 12 12 C12 10.68 12 9.36 12 8 C8.04 8 4.08 8 0 8 C0 5.36 0 2.72 0 0 Z " fill="#DFDFDF" transform="translate(263,162)"/>
<path d="M0 0 C3 1 3 1 5 4 C5.66 2.68 6.32 1.36 7 0 C7.66 0 8.32 0 9 0 C9 3.63 9 7.26 9 11 C8.34 11 7.68 11 7 11 C6.67 10.34 6.34 9.68 6 9 C5.01 9 4.02 9 3 9 C2.67 9.66 2.34 10.32 2 11 C1.34 11 0.68 11 0 11 C0 7.37 0 3.74 0 0 Z " fill="#CDCDCD" transform="translate(363,196)"/>
<path d="M0 0 C0.66 0 1.32 0 2 0 C6 4 6 4 6.375 7.375 C7.06288198 11.3647155 7.91645726 12.51327198 11 15 C8.47946405 16.26026798 7.1457902 15.91874445 4.375 15.5625 C3.55773437 15.46066406 2.74046875 15.35882813 1.8984375 15.25390625 C1.27195312 15.17011719 0.64546875 15.08632812 0 15 C0.34224609 14.18595703 0.34224609 14.18595703 0.69140625 13.35546875 C0.97886719 12.64003906 1.26632812 11.92460937 1.5625 11.1875 C1.85253906 10.47980469 2.14257812 9.77210938 2.44140625 9.04296875 C3.25063024 6.8264933 3.25063024 6.8264933 2 4 C1.34 4 0.68 4 0 4 C0 2.68 0 1.36 0 0 Z " fill="#FBFBFB" transform="translate(390,165)"/>
<path d="M0 0 C3 1 3 1 4.1875 3.0625 C4.455625 3.701875 4.72375 4.34125 5 5 C5.33 3.35 5.66 1.7 6 0 C6.66 0 7.32 0 8 0 C8 3.63 8 7.26 8 11 C4 9 4 9 3 7 C2.67 8.32 2.34 9.64 2 11 C1.34 11 0.68 11 0 11 C0 7.37 0 3.74 0 0 Z " fill="#D3D3D3" transform="translate(378,196)"/>
<path d="M0 0 C2.31 0.33 4.62 0.66 7 1 C6.814375 1.9075 6.62875 2.815 6.4375 3.75 C6.04265379 6.68314324 6.05308428 8.2644657 7 11 C6.34 11 5.68 11 5 11 C4.34 10.01 3.68 9.02 3 8 C2.01 8.99 1.02 9.98 0 11 C0 7.37 0 3.74 0 0 Z " fill="#CDCDCD" transform="translate(308,196)"/>
<path d="M0 0 C0 0.66 0 1.32 0 2 C-1.32 2 -2.64 2 -4 2 C-4 3.65 -4 5.3 -4 7 C-3.34 7.33 -2.68 7.66 -2 8 C-2 7.34 -2 6.68 -2 6 C-2.66 6 -3.32 6 -4 6 C-4 5.34 -4 4.68 -4 4 C-2.68 4 -1.36 4 0 4 C0 5.65 0 7.3 0 9 C-4.4143167 10.31236443 -4.4143167 10.31236443 -6.875 9 C-8.65049945 5.84355654 -7.82068609 3.40900375 -7 0 C-4.3333581 -1.33332095 -2.83319697 -0.67102033 0 0 Z " fill="#D4D4D4" transform="translate(395,197)"/>
<path d="M0 0 C2.5625 0.1875 2.5625 0.1875 4.5625 2.1875 C4.1875 4.3125 4.1875 4.3125 3.5625 6.1875 C1.9125 6.5175 0.2625 6.8475 -1.4375 7.1875 C-1.4375 8.5075 -1.4375 9.8275 -1.4375 11.1875 C-2.0975 11.1875 -2.7575 11.1875 -3.4375 11.1875 C-3.46438151 9.54175434 -3.48384123 7.89588587 -3.5 6.25 C-3.51160156 5.33347656 -3.52320313 4.41695312 -3.53515625 3.47265625 C-3.39916631 0.29049156 -3.17893404 0.24453339 0 0 Z " fill="#E1E1E1" transform="translate(302.4375,195.8125)"/>
<path d="M0 0 C1.32 0 2.64 0 4 0 C4 0.66 4 1.32 4 2 C3.34 2.66 2.68 3.32 2 4 C0.93967252 5.31854194 -0.10032376 6.65356552 -1.125 8 C-1.93324219 9.051875 -1.93324219 9.051875 -2.7578125 10.125 C-4.18409771 11.90302577 -4.18409771 11.90302577 -4 14 C-4.66 14 -5.32 14 -6 14 C-5.41892368 10.2397015 -4.34800504 7.46964968 -2.4375 4.1875 C-1.98246094 3.39730469 -1.52742188 2.60710937 -1.05859375 1.79296875 C-0.53458984 0.90544922 -0.53458984 0.90544922 0 0 Z " fill="#E9E9E9" transform="translate(391,158)"/>
<path d="M0 0 C0.99 0 1.98 0 3 0 C3.33 0.66 3.66 1.32 4 2 C6.01669827 3.13350534 6.01669827 3.13350534 8 4 C8 5.32 8 6.64 8 8 C6 7 6 7 5 5 C4.01 5.495 4.01 5.495 3 6 C0.875 5.0625 0.875 5.0625 -1 4 C-0.67 2.68 -0.34 1.36 0 0 Z " fill="#EBEBEB" transform="translate(394,161)"/>
<path d="M0 0 C1.66611905 -0.042721 3.33382885 -0.04063832 5 0 C6 1 6 1 6 7 C1.71 7 -2.58 7 -7 7 C-7 6.67 -7 6.34 -7 6 C-3.37 6 0.26 6 4 6 C4 4.68 4 3.36 4 2 C2.68 1.67 1.36 1.34 0 1 C0 0.67 0 0.34 0 0 Z " fill="#D3D3D3" transform="translate(271,168)"/>
<path d="M0 0 C0 0.66 0 1.32 0 2 C-0.61875 2.0825 -1.2375 2.165 -1.875 2.25 C-4.18437567 2.81258459 -4.18437567 2.81258459 -5.25 5.0625 C-5.4975 5.701875 -5.745 6.34125 -6 7 C-6.66 7 -7.32 7 -8 7 C-7.74438677 4.6568787 -7.40729228 2.32156597 -7 0 C-4.3333581 -1.33332095 -2.83319697 -0.67102033 0 0 Z " fill="#D5D5D5" transform="translate(334,197)"/>
<path d="M0 0 C0.33 0.66 0.66 1.32 1 2 C5.95 2 10.9 2 16 2 C16.33 1.34 16.66 0.68 17 0 C18.32 0.33 19.64 0.66 21 1 C20.67 1.99 20.34 2.98 20 4 C13.07 3.67 6.14 3.34 -1 3 C-0.67 2.01 -0.34 1.02 0 0 Z " fill="#F9F9F9" transform="translate(386,180)"/>
<path d="M0 0 C0.99 0.33 1.98 0.66 3 1 C2.67 4.3 2.34 7.6 2 11 C0.35 10.67 -1.3 10.34 -3 10 C-2.67 9.01 -2.34 8.02 -2 7 C-1.67 7 -1.34 7 -1 7 C-0.67 4.69 -0.34 2.38 0 0 Z " fill="#D9D9D9" transform="translate(352,196)"/>
<path d="M0 0 C0.99 1.485 0.99 1.485 2 3 C4.56282742 3.72965366 4.56282742 3.72965366 7 4 C6.67 4.66 6.34 5.32 6 6 C4.68 6 3.36 6 2 6 C2 7.32 2 8.64 2 10 C1.34 10 0.68 10 0 10 C0 6.7 0 3.4 0 0 Z " fill="#CECECE" transform="translate(299,197)"/>
<path d="M0 0 C0.99 0.33 1.98 0.66 3 1 C3 1.99 3 2.98 3 4 C3.33 4.66 3.66 5.32 4 6 C3.67 6.66 3.34 7.32 3 8 C1.35 8 -0.3 8 -2 8 C-1.34 5.36 -0.68 2.72 0 0 Z " fill="#CBCBCB" transform="translate(346,196)"/>
<path d="M0 0 C0.66 0 1.32 0 2 0 C3.33333333 1.33333333 4.66666667 2.66666667 6 4 C5.625 6.625 5.625 6.625 5 9 C4.01 8.67 3.02 8.34 2 8 C2 6.68 2 5.36 2 4 C1.34 4 0.68 4 0 4 C0 2.68 0 1.36 0 0 Z " fill="#EFEFEF" transform="translate(390,165)"/>
<path d="M0 0 C0.66 0 1.32 0 2 0 C3.5625 2.8125 3.5625 2.8125 5 6 C4.67 6.99 4.34 7.98 4 9 C3.01 8.01 2.02 7.02 1 6 C0.67 6.66 0.34 7.32 0 8 C-0.98120464 4.94736336 -0.98120464 3.05263664 0 0 Z " fill="#E6E6E6" transform="translate(403,170)"/>
<path d="M0 0 C2 3 2 3 1.6875 5.0625 C1 7 1 7 0 9 C-0.99 8.67 -1.98 8.34 -3 8 C-3.33 7.01 -3.66 6.02 -4 5 C-3.34 4.67 -2.68 4.34 -2 4 C-2 3.34 -2 2.68 -2 2 C-1.34 2 -0.68 2 0 2 C0 1.34 0 0.68 0 0 Z " fill="#D8D8D8" transform="translate(402,167)"/>
<path d="M0 0 C1.32 0 2.64 0 4 0 C4 1.65 4 3.3 4 5 C1.625 5.625 1.625 5.625 -1 6 C-1.66 5.34 -2.32 4.68 -3 4 C-2.34 3.67 -1.68 3.34 -1 3 C-0.01 3.33 0.98 3.66 2 4 C2 3.34 2 2.68 2 2 C1.34 2 0.68 2 0 2 C0 1.34 0 0.68 0 0 Z " fill="#CBCBCB" transform="translate(330,201)"/>
<path d="M0 0 C1.9375 0.5625 1.9375 0.5625 4 2 C4.75 5.625 4.75 5.625 5 9 C4.34 9 3.68 9 3 9 C0 3.375 0 3.375 0 0 Z " fill="#E2E2E2" transform="translate(310,198)"/>
<path d="M0 0 C0.99 0.495 0.99 0.495 2 1 C2.625 3.5625 2.625 3.5625 3 6 C3.99 6 4.98 6 6 6 C6 6.66 6 7.32 6 8 C4.35 7.67 2.7 7.34 1 7 C0.67 4.69 0.34 2.38 0 0 Z " fill="#D0D0D0" transform="translate(316,199)"/>
<path d="M0 0 C2 1 2 1 2.6875 2.6875 C3.08443325 5.62480602 2.59080963 8.11159734 2 11 C1.34 11 0.68 11 0 11 C0 7.37 0 3.74 0 0 Z " fill="#C9C9C9" transform="translate(378,196)"/>
<path d="M0 0 C1.32 0 2.64 0 4 0 C4 1.65 4 3.3 4 5 C2.35 5.33 0.7 5.66 -1 6 C-0.67 5.34 -0.34 4.68 0 4 C0.66 4 1.32 4 2 4 C2 3.34 2 2.68 2 2 C1.34 2 0.68 2 0 2 C0 1.34 0 0.68 0 0 Z " fill="#CCCCCC" transform="translate(391,201)"/>
<path d="M0 0 C0.99 0.33 1.98 0.66 3 1 C2.625 2.9375 2.625 2.9375 2 5 C1.01 5.495 1.01 5.495 0 6 C0 5.34 0 4.68 0 4 C-0.66 4 -1.32 4 -2 4 C-2 3.01 -2 2.02 -2 1 C-1.34 0.67 -0.68 0.34 0 0 Z " fill="#E0E0E0" transform="translate(340,197)"/>
<path d="M0 0 C2 1.8125 2 1.8125 4 4 C4 4.99 4 5.98 4 7 C2.125 6.75 2.125 6.75 0 6 C-1.25 3.9375 -1.25 3.9375 -2 2 C-1.34 1.34 -0.68 0.68 0 0 Z " fill="#E6E6E6" transform="translate(398,173)"/>
<path d="M0 0 C-0.33 1.32 -0.66 2.64 -1 4 C-1.33 3.67 -1.66 3.34 -2 3 C-3.51928038 2.92820036 -5.04167482 2.91607993 -6.5625 2.9375 C-7.80193359 2.95103516 -7.80193359 2.95103516 -9.06640625 2.96484375 C-10.02353516 2.98224609 -10.02353516 2.98224609 -11 3 C-11 2.67 -11 2.34 -11 2 C-7.12315913 0.80712589 -4.08378077 0 0 0 Z " fill="#EAEAEA" transform="translate(413,184)"/>
<path d="M0 0 C0.33 0.66 0.66 1.32 1 2 C1.66 2 2.32 2 3 2 C2.34 3.65 1.68 5.3 1 7 C0.01 6.34 -0.98 5.68 -2 5 C-1.34 3.35 -0.68 1.7 0 0 Z " fill="#DCDCDC" transform="translate(379,179)"/>
<path d="M0 0 C1.65 0.33 3.3 0.66 5 1 C5 1.66 5 2.32 5 3 C4.34 3 3.68 3 3 3 C2.67 3.99 2.34 4.98 2 6 C1.01 4.68 0.02 3.36 -1 2 C-0.67 1.34 -0.34 0.68 0 0 Z " fill="#D2D2D2" transform="translate(402,176)"/>
<path d="M0 0 C0.66 0.99 1.32 1.98 2 3 C4.05003955 4.19232613 4.05003955 4.19232613 6 5 C6 5.66 6 6.32 6 7 C4.02 6.34 2.04 5.68 0 5 C0 4.34 0 3.68 0 3 C-0.66 3 -1.32 3 -2 3 C-1 1 -1 1 0 0 Z " fill="#D6D6D6" transform="translate(392,162)"/>
</svg>
