<svg width="66" height="45" viewBox="0 0 66 45" fill="none" xmlns="http://www.w3.org/2000/svg">
<path fill-rule="evenodd" clip-rule="evenodd" d="M24.5595 13.7531V9.84214C24.945 9.81489 25.3309 9.79517 25.7171 9.783C36.4491 9.44683 43.4901 18.9741 43.4901 18.9741C43.4901 18.9741 35.8858 29.5011 27.7321 29.5011C26.5575 29.5011 25.5068 29.3128 24.5595 28.9958V17.1362C28.7374 17.6389 29.5773 19.4785 32.0897 23.6518L37.676 18.9571C37.676 18.9571 33.5985 13.6262 26.7241 13.6262C25.9758 13.6262 25.2611 13.6783 24.5595 13.7531ZM24.5595 0.833748V6.67568C24.9444 6.64524 25.3301 6.62088 25.7171 6.60697C40.6418 6.10597 50.3649 18.8066 50.3649 18.8066C50.3649 18.8066 39.1962 32.3423 27.5615 32.3423C26.4955 32.3423 25.4976 32.2444 24.5595 32.0787V35.6896C25.3615 35.7914 26.1923 35.8514 27.0597 35.8514C37.8872 35.8514 45.7171 30.3404 53.2997 23.8175C54.5559 24.8208 59.7028 27.2614 60.7609 28.3308C53.5514 34.3463 36.7506 39.1945 27.2259 39.1945C26.3354 39.1911 25.4456 39.145 24.5595 39.0562V44.1314H65.7124V0.833313H24.56L24.5595 0.833748ZM24.5595 28.9958V32.0787C14.5449 30.2987 11.7655 19.9239 11.7655 19.9239C11.7655 19.9239 16.5738 14.6138 24.5595 13.7531V17.1362C24.5534 17.1362 24.549 17.1344 24.5438 17.1344C20.3533 16.6326 17.0791 20.5353 17.0791 20.5353C17.0791 20.5353 18.9134 27.1048 24.5595 28.9958ZM6.77299 19.4737C6.77299 19.4737 12.7079 10.7445 24.5595 9.84214V6.67568C11.433 7.72551 0.0657349 18.8062 0.0657349 18.8062C0.0657349 18.8062 6.5029 37.3579 24.5595 39.0562L24.56 35.6901C11.3095 34.0279 6.77299 19.4737 6.77299 19.4737Z" fill="#76B900"/>
</svg>
