<svg width="200" height="77" viewBox="0 0 200 77" fill="none" xmlns="http://www.w3.org/2000/svg">
<path d="M35.2022 20.28L17.5986 10.14L0 20.28V10.14L17.6011 0L35.2047 10.14L35.2022 20.28Z" fill="#A435F0"/>
<path d="M0 27.0418H8.1379V46.91C8.1379 52.0431 11.9525 54.5452 15.535 54.5452C19.1484 54.5452 22.9343 51.9764 22.9343 46.8411V27.0418H31.0722V47.3833C31.0722 52.112 29.5928 55.7607 26.6339 58.2629C23.6729 60.7628 19.9755 61.9805 15.4664 61.9805C10.9618 61.9805 7.26219 60.765 4.37191 58.2629C1.47942 55.763 0 52.2498 0 47.5855V27.0418ZM101.427 51.7342C98.964 53.9386 96.1577 55.0186 92.9578 55.0186C87.1198 55.0186 83.2056 51.6764 82.7633 46.5011H109.057C109.057 46.5011 109.234 44.83 109.234 43.2612C109.234 38.3947 107.686 34.3393 104.523 31.0283C101.432 27.7173 97.3983 26.0951 92.4868 26.0951C87.31 26.0951 83.0707 27.7173 79.7072 31.0283C76.4122 34.3393 74.7316 38.6636 74.7316 44.0723V44.3389C74.7316 49.6787 76.4122 53.9364 79.7072 57.114C83.0022 60.2895 87.3741 61.9116 92.6881 61.9116C98.8667 61.9116 103.783 59.4628 107.471 55.2408L101.427 51.7342ZM85.961 35.1504C87.7744 33.7304 89.9968 32.9882 92.4846 32.9882C94.8375 32.9882 96.788 33.7304 98.4708 35.2193C100.076 36.5748 100.943 38.2391 101.018 40.1524H82.9712C83.2322 38.1747 84.2273 36.5081 85.9632 35.1526L85.961 35.1504ZM183.346 66.5026C180.044 74.3356 176.59 77 171.294 77H167.623V69.7514H170.591C172.413 69.7514 174.107 69.0625 175.721 65.3204L177.336 61.5739L163.413 27.0418H171.685L181.573 51.912L191.729 27.0418H200L183.346 66.5026ZM62.7525 14V30.1261C60.0856 27.7262 55.937 26.2973 51.9256 26.2973C47.149 26.2973 43.1154 27.9862 39.8204 31.4305C36.5918 34.8104 34.9775 38.9991 34.9775 44.0678C34.9775 49.1388 36.5918 53.3275 39.8204 56.774C43.1154 60.1539 47.1512 61.845 51.9256 61.845C57.4319 61.845 60.9126 59.6695 62.7525 57.9651V61.1006H70.8241V14.0022L62.7525 14ZM60.331 51.5053C58.3806 53.4653 55.8928 54.4808 53.0003 54.4808C50.1078 54.4808 47.7549 53.4653 45.8044 51.5053C43.9248 49.5454 42.9805 47.0455 42.9805 44.0723C42.9805 41.0968 43.9226 38.5969 45.8044 36.637C47.7549 34.677 50.1078 33.6638 53.0003 33.6638C55.8928 33.6638 58.3806 34.677 60.331 36.637C62.3478 38.5969 63.3606 41.0968 63.3606 44.0723C63.3606 47.0455 62.3478 49.5454 60.331 51.5053ZM150.865 26.3662C144.735 26.3662 141.549 28.9217 139.366 31.3838C138.492 29.7106 136.033 26.3662 130.288 26.3662C125.432 26.3662 122.571 28.8328 121.142 30.5883V27.0462H113.141V61.105H121.142V41.5057C121.142 36.9103 123.968 33.5993 127.732 33.5993C131.569 33.5993 133.787 36.5059 133.787 41.1679V61.1028H141.79V41.5035C141.79 36.8414 144.545 33.5971 148.512 33.5971C152.347 33.5971 154.565 36.5036 154.565 41.1635V61.1006H162.636V40.0169C162.636 31.1372 157.886 26.3685 150.865 26.3685V26.3662Z" fill="white"/>
</svg>
