<?xml version="1.0" encoding="UTF-8"?>
<svg version="1.1" xmlns="http://www.w3.org/2000/svg" width="396" height="157">
<path d="M0 0 C130.68 0 261.36 0 396 0 C396 51.81 396 103.62 396 157 C265.32 157 134.64 157 0 157 C0 105.19 0 53.38 0 0 Z " fill="#FCFBFC" transform="translate(0,0)"/>
<path d="M0 0 C1.34765625 2.12109375 1.34765625 2.12109375 2.0625 4.4375 C3.83282215 8.99293148 5.38041652 10.94685179 10 13 C13.3 13.33 16.6 13.66 20 14 C20 29.84 20 45.68 20 62 C-18.94 62 -57.88 62 -98 62 C-98 46.16 -98 30.32 -98 14 C-94.04 13.34 -90.08 12.68 -86 12 C-82.89152427 10.63057551 -82.89152427 10.63057551 -81 8 C-80.80921875 7.31164063 -80.6184375 6.62328125 -80.421875 5.9140625 C-79.60627718 3.05947013 -78.9004564 1.3135991 -77 -1 C-71.50806533 -3.47255933 -65.8738852 -4.75890268 -60 -6 C-58.47439453 -6.36738281 -58.47439453 -6.36738281 -56.91796875 -6.7421875 C-38.70828083 -10.54564163 -16.59335136 -8.83263664 0 0 Z " fill="#6E257F" transform="translate(350,22)"/>
<path d="M0 0 C5.94 0 11.88 0 18 0 C18.061875 2.041875 18.12375 4.08375 18.1875 6.1875 C19.21366487 19.58165193 24.05592776 29.1683155 34 38 C34.99 38.33 35.98 38.66 37 39 C37.66 37.35 38.32 35.7 39 34 C38.11828125 33.61521484 38.11828125 33.61521484 37.21875 33.22265625 C31.33639893 29.98114941 27.20404842 23.68896222 24.71484375 17.578125 C23.30069479 12.47791563 21.55193504 4.89612991 24 0 C25.65 0 27.3 0 29 0 C29.07476562 0.97839844 29.14953125 1.95679687 29.2265625 2.96484375 C30.18824389 12.55337287 31.98217867 18.98217867 39 26 C39.66 24.35 40.32 22.7 41 21 C40.195625 20.071875 39.39125 19.14375 38.5625 18.1875 C33.50771299 12.35505345 35 8.75535158 35 0 C51.5 0 68 0 85 0 C85 13.17518248 85 13.17518248 81 19 C80.34 19.66 79.68 20.32 79 21 C78.83312552 23.58354218 78.83312552 23.58354218 79 26 C84.569641 23.2151795 87.07091969 19.5427461 89.1875 13.75 C90.17728018 9.18178379 90.64405595 4.65537356 91 0 C92.65 0 94.3 0 96 0 C96.683306 11.93887425 95.38374359 20.5051724 87.375 29.6875 C85.0234375 32.19921875 85.0234375 32.19921875 83 34 C82.34 34 81.68 34 81 34 C81.495 36.97 81.495 36.97 82 40 C91.06725134 33.92448133 97.11755134 26.6706032 100 16 C100.94968665 10.69156129 101.4541345 5.36767742 102 0 C107.94 0 113.88 0 120 0 C120 14.00663429 115.58939763 27.25450366 108 39 C107.46632813 39.82886719 106.93265625 40.65773437 106.3828125 41.51171875 C98.28333524 52.92461853 85.65150675 59.63809071 72 62 C60.42042435 62.74978122 47.95092716 63.24627788 37 59 C35.72189453 58.50693359 35.72189453 58.50693359 34.41796875 58.00390625 C20.17018741 51.67885432 10.82178107 39.05427149 5 25 C2.3051147 16.77846104 0.53238806 8.65130602 0 0 Z " fill="#593787" transform="translate(251,89)"/>
<path d="M0 0 C1.98 0 3.96 0 6 0 C6.495 5.445 6.495 5.445 7 11 C7.680625 10.34 8.36125 9.68 9.0625 9 C12.76272533 6.48069765 14.6031656 6.2933659 19 7 C21.9375 8.9375 21.9375 8.9375 24 12 C24.39770984 15.0491088 24.29947785 17.9453259 24 21 C26.64 21 29.28 21 32 21 C32 16.38 32 11.76 32 7 C33.98 7 35.96 7 38 7 C38 11.62 38 16.24 38 21 C40.97 21 43.94 21 47 21 C47 14.07 47 7.14 47 0 C48.65 0 50.3 0 52 0 C52 8.58 52 17.16 52 26 C33.29383629 26.06941851 14.58770891 26.12296927 -4.11855698 26.15543652 C-12.80401746 26.17091167 -21.48939648 26.19201354 -30.17480469 26.22631836 C-37.7441705 26.25620091 -45.31347732 26.27557029 -52.88290048 26.28226548 C-56.89163021 26.2861797 -60.90019118 26.295392 -64.90886688 26.31719017 C-68.68122799 26.33753732 -72.45335065 26.34383744 -76.22576141 26.33932304 C-77.61089371 26.34014904 -78.9960339 26.34612541 -80.38111877 26.35761642 C-82.27141566 26.37253086 -84.16184019 26.36716856 -86.05218506 26.36076355 C-87.1104034 26.36352893 -88.16862175 26.36629431 -89.25890732 26.36914349 C-92.4035264 25.94565702 -93.75387683 25.21183634 -96 23 C-97.21666102 19.35001694 -97.75501773 15.78201543 -97 12 C-95.46484375 9.26171875 -95.46484375 9.26171875 -93 7 C-90.18760674 6.62601153 -88.02407845 6.51706985 -85.25 6.6875 C-84.55261719 6.71005859 -83.85523437 6.73261719 -83.13671875 6.75585938 C-81.42355065 6.81452952 -79.71149377 6.90420744 -78 7 C-78 11.62 -78 16.24 -78 21 C-75.03 21 -72.06 21 -69 21 C-69 16.38 -69 11.76 -69 7 C-67.02 7 -65.04 7 -63 7 C-63 11.62 -63 16.24 -63 21 C-60.36 21 -57.72 21 -55 21 C-55.04640625 20.39671875 -55.0928125 19.7934375 -55.140625 19.171875 C-55.19476563 17.97304687 -55.19476563 17.97304687 -55.25 16.75 C-55.29640625 15.96109375 -55.3428125 15.1721875 -55.390625 14.359375 C-55 12 -55 12 -53.40625 9.71875 C-48.84489194 6.4606371 -43.40038494 7.7839846 -38 8 C-38 12.29 -38 16.58 -38 21 C-35.03 21 -32.06 21 -29 21 C-29 16.38 -29 11.76 -29 7 C-27.35 7 -25.7 7 -24 7 C-24 11.62 -24 16.24 -24 21 C-20.37 21 -16.74 21 -13 21 C-13 16.38 -13 11.76 -13 7 C-11.35 7 -9.7 7 -8 7 C-8 11.62 -8 16.24 -8 21 C-5.36 21 -2.72 21 0 21 C0 14.07 0 7.14 0 0 Z " fill="#161616" transform="translate(167,117)"/>
<path d="M0 0 C16.5 0 33 0 50 0 C50 13.17518248 50 13.17518248 46 19 C45.34 19.66 44.68 20.32 44 21 C43.83312552 23.58354218 43.83312552 23.58354218 44 26 C49.569641 23.2151795 52.07091969 19.5427461 54.1875 13.75 C55.17728018 9.18178379 55.64405595 4.65537356 56 0 C57.65 0 59.3 0 61 0 C61.683306 11.93887425 60.38374359 20.5051724 52.375 29.6875 C50.0234375 32.19921875 50.0234375 32.19921875 48 34 C47.34 34 46.68 34 46 34 C46.495 35.98 46.495 35.98 47 38 C46.01 38.33 45.02 38.66 44 39 C44.20625 39.53625 44.4125 40.0725 44.625 40.625 C45.15492419 43.98118655 44.43203739 45.9406474 43 49 C40.15408084 51.34369813 37.39431426 52.21501807 33.875 53.0625 C29.9687944 53.77272906 29.9687944 53.77272906 27 56 C22.21805152 55.73669555 18.28670464 53.20873396 14.1875 50.9375 C13.49462891 50.56044922 12.80175781 50.18339844 12.08789062 49.79492188 C10.38871015 48.86916148 8.69390575 47.93537688 7 47 C8.28515705 42.8527262 9.85161202 39.1348309 11.890625 35.3046875 C12.43460937 34.25925781 12.97859375 33.21382812 13.5390625 32.13671875 C14.68628265 29.94966664 15.84265544 27.76739283 17.0078125 25.58984375 C17.54664063 24.54699219 18.08546875 23.50414062 18.640625 22.4296875 C19.14110352 21.48335449 19.64158203 20.53702148 20.15722656 19.56201172 C21.28774101 17.04622097 21.28774101 17.04622097 20.13574219 14.81689453 C19.76094727 14.21731934 19.38615234 13.61774414 19 13 C19.28587449 9.18834013 20.40589634 6.80163196 23 4 C23.66 4 24.32 4 25 4 C25 3.34 25 2.68 25 2 C17.08 2 9.16 2 1 2 C1.33 3.98 1.66 5.96 2 8 C1.34 8.66 0.68 9.32 0 10 C0 6.7 0 3.4 0 0 Z " fill="#5A3C86" transform="translate(286,89)"/>
<path d="M0 0 C1.32 0.33 2.64 0.66 4 1 C2.125 5.75 2.125 5.75 1 8 C1.60328125 8.02578125 2.2065625 8.0515625 2.828125 8.078125 C6.54277595 8.34174539 9.31524901 8.59917015 12.5625 10.5 C14.780242 14.3569426 14.25904776 17.59618805 14 22 C17.63 22 21.26 22 25 22 C25 17.38 25 12.76 25 8 C26.65 8 28.3 8 30 8 C30 12.62 30 17.24 30 22 C36.27 22 42.54 22 49 22 C49 15.07 49 8.14 49 1 C50.65 1 52.3 1 54 1 C54 7.93 54 14.86 54 22 C56.64 22 59.28 22 62 22 C62 15.07 62 8.14 62 1 C63.65 1 65.3 1 67 1 C67 9.58 67 18.16 67 27 C35.98 27 4.96 27 -27 27 C-27.66 29.31 -28.32 31.62 -29 34 C-32.20380017 36.13586678 -33.01939967 36.23132175 -36.6875 36.125 C-37.49574219 36.10695312 -38.30398437 36.08890625 -39.13671875 36.0703125 C-39.75160156 36.04710937 -40.36648437 36.02390625 -41 36 C-41 34.35 -41 32.7 -41 31 C-38.36 31 -35.72 31 -33 31 C-32.67 29.68 -32.34 28.36 -32 27 C-33.2375 27.103125 -34.475 27.20625 -35.75 27.3125 C-39.00433521 27.28364951 -39.78922408 27.15808194 -42.5 25.125 C-44.57517242 20.80172413 -44.85187989 16.71987509 -44 12 C-42.921875 9.70703125 -42.921875 9.70703125 -41 8 C-36.28880087 7.45154841 -31.75704748 7.82542945 -27 8 C-27 12.62 -27 17.24 -27 22 C-23.7 22 -20.4 22 -17 22 C-17 17.38 -17 12.76 -17 8 C-15.35 8 -13.7 8 -12 8 C-12 12.62 -12 17.24 -12 22 C-5.07 22 1.86 22 9 22 C8.8 15.6 8.8 15.6 7 14 C4.18980604 13.79701649 1.38184134 13.68066936 -1.43359375 13.57421875 C-2.28050781 13.38472656 -3.12742188 13.19523437 -4 13 C-4.66 11.68 -5.32 10.36 -6 9 C-4.02 6.03 -2.04 3.06 0 0 Z " fill="#0D0D0D" transform="translate(161,72)"/>
<path d="M0 0 C6.57692308 0.57692308 6.57692308 0.57692308 8 2 C8.23821446 7.35982538 8.23821446 7.35982538 7.32055664 9.82592773 C6.83285037 13.13363857 8.21264317 15.04663032 9.74609375 17.97265625 C10.33583984 19.11927734 10.92558594 20.26589844 11.53320312 21.44726562 C12.16714125 22.65277926 12.80191643 23.85785307 13.4375 25.0625 C14.67310083 27.42453846 15.89863704 29.79122978 17.12109375 32.16015625 C17.94758423 33.73228882 17.94758423 33.73228882 18.79077148 35.33618164 C20 38 20 38 20 41 C17.62866256 42.75389486 15.34079629 44.25889316 12.8125 45.75 C11.80219727 46.38615234 11.80219727 46.38615234 10.77148438 47.03515625 C5.83289285 49.99349302 5.83289285 49.99349302 2.5 50.01953125 C-1.07680048 48.5608673 -4.43580895 46.80841303 -7.8125 44.9375 C-8.50537109 44.56044922 -9.19824219 44.18339844 -9.91210938 43.79492188 C-11.61128985 42.86916148 -13.30609425 41.93537688 -15 41 C-13.71484295 36.8527262 -12.14838798 33.1348309 -10.109375 29.3046875 C-9.56539063 28.25925781 -9.02140625 27.21382812 -8.4609375 26.13671875 C-7.31371735 23.94966664 -6.15734456 21.76739283 -4.9921875 19.58984375 C-4.45335937 18.54699219 -3.91453125 17.50414062 -3.359375 16.4296875 C-2.85889648 15.48335449 -2.35841797 14.53702148 -1.84277344 13.56201172 C-0.71140129 11.04668059 -0.71140129 11.04668059 -1.86816406 8.82470703 C-2.24166992 8.22255371 -2.61517578 7.62040039 -3 7 C-2.68097423 3.65022937 -2.40820361 2.40820361 0 0 Z " fill="#F8F2FB" transform="translate(308,95)"/>
<path d="M0 0 C0.68191406 0.04189453 1.36382812 0.08378906 2.06640625 0.12695312 C2.76378906 0.14951172 3.46117188 0.17207031 4.1796875 0.1953125 C5.8928556 0.25398264 7.60491248 0.34366056 9.31640625 0.43945312 C9.31640625 5.05945313 9.31640625 9.67945313 9.31640625 14.43945312 C12.28640625 14.43945312 15.25640625 14.43945312 18.31640625 14.43945312 C18.31640625 9.81945312 18.31640625 5.19945312 18.31640625 0.43945312 C20.29640625 0.43945312 22.27640625 0.43945312 24.31640625 0.43945312 C24.31640625 5.05945313 24.31640625 9.67945313 24.31640625 14.43945312 C26.95640625 14.43945312 29.59640625 14.43945312 32.31640625 14.43945312 C32.27 13.83617187 32.22359375 13.23289063 32.17578125 12.61132812 C32.12164062 11.4125 32.12164062 11.4125 32.06640625 10.18945312 C32.02 9.40054688 31.97359375 8.61164063 31.92578125 7.79882812 C32.31640625 5.43945312 32.31640625 5.43945312 33.91015625 3.15820312 C38.47151431 -0.09990978 43.91602131 1.22343773 49.31640625 1.43945312 C49.31640625 5.72945312 49.31640625 10.01945313 49.31640625 14.43945312 C52.28640625 14.43945312 55.25640625 14.43945312 58.31640625 14.43945312 C58.31640625 14.76945313 58.31640625 15.09945312 58.31640625 15.43945312 C55.67640625 15.76945313 53.03640625 16.09945312 50.31640625 16.43945312 C50.31640625 17.09945312 50.31640625 17.75945312 50.31640625 18.43945312 C42.93651758 18.5552785 35.55682467 18.64413244 28.17621136 18.69851398 C24.74906512 18.72461428 21.32254042 18.76001685 17.89575195 18.81665039 C13.95661855 18.88134424 10.01773721 18.90563027 6.078125 18.92773438 C4.23114265 18.96644402 4.23114265 18.96644402 2.34684753 19.00593567 C1.20589127 19.00631332 0.064935 19.00669098 -1.1105957 19.00708008 C-2.11653275 19.01818314 -3.12246979 19.02928619 -4.15888977 19.04072571 C-6.68359375 18.43945312 -6.68359375 18.43945312 -8.50480652 16.03288269 C-9.60971145 13.60200031 -10.11577604 12.07703571 -10.12109375 9.43945312 C-10.14042969 8.80007812 -10.15976563 8.16070312 -10.1796875 7.50195312 C-8.79932698 1.76313144 -5.75430107 -0.1396675 0 0 Z " fill="#121212" transform="translate(79.68359375,123.560546875)"/>
<path d="M0 0 C2.9375 2 2.9375 2 5 5 C5 7.97 5 10.94 5 14 C16.88 14 28.76 14 41 14 C41 10.04 41 6.08 41 2 C43.59200129 -0.59200129 44.77522229 -0.29802368 48.375 -0.3125 C49.80972656 -0.33763672 49.80972656 -0.33763672 51.2734375 -0.36328125 C54.4157138 0.0553888 55.74614832 0.8027519 58 3 C59 6 59 6 59 19 C35.9 19 12.8 19 -11 19 C-11 17.35 -11 15.7 -11 14 C-7.37 14 -3.74 14 0 14 C-0.32960216 8.98464948 -0.32960216 8.98464948 -3 5 C-5.32275177 4.59952556 -7.65739357 4.2602896 -10 4 C-10 2.68 -10 1.36 -10 0 C-6.1544104 -1.2818632 -3.93271581 -0.94927623 0 0 Z " fill="#111111" transform="translate(170,36)"/>
<path d="M0 0 C1.65 0 3.3 0 5 0 C5 6.93 5 13.86 5 21 C13.91 21 22.82 21 32 21 C32 16.38 32 11.76 32 7 C33.65 7 35.3 7 37 7 C37 11.62 37 16.24 37 21 C43.27 21 49.54 21 56 21 C55.505 16.545 55.505 16.545 55 12 C51.7 11.67 48.4 11.34 45 11 C45 10.01 45 9.02 45 8 C47.58008592 6.70995704 49.55741574 6.79589776 52.4375 6.75 C53.88962891 6.71132812 53.88962891 6.71132812 55.37109375 6.671875 C58 7 58 7 61 10 C61 15.28 61 20.56 61 26 C40.87 26 20.74 26 0 26 C0 17.42 0 8.84 0 0 Z " fill="#0D0D0D" transform="translate(17,73)"/>
<path d="M0 0 C1.65 0 3.3 0 5 0 C5 8.58 5 17.16 5 26 C0.05 26 -4.9 26 -10 26 C-10.33 27.98 -10.66 29.96 -11 32 C-12.26953125 33.86328125 -12.26953125 33.86328125 -14 35 C-16.26171875 35.29296875 -16.26171875 35.29296875 -18.6875 35.1875 C-19.89986328 35.14689453 -19.89986328 35.14689453 -21.13671875 35.10546875 C-21.75160156 35.07066406 -22.36648437 35.03585938 -23 35 C-23.33 33.35 -23.66 31.7 -24 30 C-21.03 30 -18.06 30 -15 30 C-14.67 28.68 -14.34 27.36 -14 26 C-15.2375 26.0825 -16.475 26.165 -17.75 26.25 C-20.62704776 26.21429196 -21.89696303 26.05409441 -24.5 24.6875 C-26.89227172 20.40134651 -26.7822382 15.79208987 -26 11 C-24.921875 8.671875 -24.921875 8.671875 -23 7 C-18.28880087 6.45154841 -13.75704748 6.82542945 -9 7 C-9 11.62 -9 16.24 -9 21 C-6.03 21 -3.06 21 0 21 C0 14.07 0 7.14 0 0 Z " fill="#101011" transform="translate(108,73)"/>
<path d="M0 0 C0.73412109 -0.02449219 1.46824219 -0.04898438 2.22460938 -0.07421875 C7.82726801 -0.10404657 11.08907116 1.15609981 15.6875 4.375 C17.61825948 7.73284258 17.6875 9.42390776 17.6875 13.375 C7.7875 13.375 -2.1125 13.375 -12.3125 13.375 C-10.05532192 18.42591943 -10.05532192 18.42591943 -7.16772461 18.99023438 C-5.95354858 18.97959961 -5.95354858 18.97959961 -4.71484375 18.96875 C-3.83119141 18.96617188 -2.94753906 18.96359375 -2.03710938 18.9609375 C-0.65749023 18.91839844 -0.65749023 18.91839844 0.75 18.875 C2.13541992 18.87886719 2.13541992 18.87886719 3.54882812 18.8828125 C7.14326603 18.86173959 7.14326603 18.86173959 10.6875 18.375 C11.3475 17.385 12.0075 16.395 12.6875 15.375 C14.0075 15.375 15.3275 15.375 16.6875 15.375 C15.80336914 18.34889472 15.10022821 20.04035551 12.6640625 22.015625 C8.61873218 23.86309869 5.14543296 23.85196919 0.75 23.8125 C-0.03568359 23.83248047 -0.82136719 23.85246094 -1.63085938 23.87304688 C-6.98599027 23.86856559 -10.08135606 22.9370328 -14.3125 19.375 C-16.42113429 15.73281349 -16.82212203 12.53691328 -16.3125 8.375 C-12.20822833 0.75278118 -8.27996459 0.01431282 0 0 Z " fill="#171717" transform="translate(67.3125,33.625)"/>
<path d="M0 0 C1.65 0 3.3 0 5 0 C5 6.27 5 12.54 5 19 C-1.27 19 -7.54 19 -14 19 C-14 20.65 -14 22.3 -14 24 C-17.14679157 27.03828152 -20.02678247 27.92790981 -24.375 28.25 C-28.2487362 27.98284578 -29.96025572 27.34494559 -33 25 C-35.49729916 21.25405125 -35.2965629 19.44844343 -35 15 C-34.45980238 12.60170883 -33.76471055 10.34192605 -33 8 C-31.35 8 -29.7 8 -28 8 C-28.08378906 8.84304687 -28.16757813 9.68609375 -28.25390625 10.5546875 C-28.35574219 11.65039062 -28.45757812 12.74609375 -28.5625 13.875 C-28.66691406 14.96554688 -28.77132812 16.05609375 -28.87890625 17.1796875 C-29.22639404 19.95152023 -29.22639404 19.95152023 -28 22 C-25.66705225 22.04241723 -23.33297433 22.04092937 -21 22 C-19.45049732 20.45049732 -19.78344807 18.90009406 -19.68359375 16.74609375 C-19.64169922 15.89208984 -19.59980469 15.03808594 -19.55664062 14.15820312 C-19.51732422 13.26037109 -19.47800781 12.36253906 -19.4375 11.4375 C-19.39431641 10.53580078 -19.35113281 9.63410156 -19.30664062 8.70507812 C-19.20021858 6.47021515 -19.09820012 4.23523692 -19 2 C-17.35 2 -15.7 2 -14 2 C-14 5.96 -14 9.92 -14 14 C-12.68 13.67 -11.36 13.34 -10 13 C-9.67 9.37 -9.34 5.74 -9 2 C-7.35 2 -5.7 2 -4 2 C-4 5.96 -4 9.92 -4 14 C-2.68 14 -1.36 14 0 14 C0 9.38 0 4.76 0 0 Z " fill="#131313" transform="translate(126,36)"/>
<path d="M0 0 C0.99 0 1.98 0 3 0 C3.33 6.27 3.66 12.54 4 19 C6.97 19 9.94 19 13 19 C14.51421001 17.48578999 14.21309856 16.07527232 14.31640625 13.96484375 C14.35830078 13.15595703 14.40019531 12.34707031 14.44335938 11.51367188 C14.48267578 10.66353516 14.52199219 9.81339844 14.5625 8.9375 C14.60568359 8.08349609 14.64886719 7.22949219 14.69335938 6.34960938 C14.79976702 4.23327963 14.90041731 2.11666187 15 0 C16.32 0 17.64 0 19 0 C19.08126109 2.72977064 19.14061663 5.4571017 19.1875 8.1875 C19.21263672 8.95642578 19.23777344 9.72535156 19.26367188 10.51757812 C19.32377188 15.18534511 19.04102023 18.20792877 16 22 C13.52621876 23.23689062 11.82084683 23.13310087 9.0625 23.125 C8.18722656 23.12757812 7.31195313 23.13015625 6.41015625 23.1328125 C4 23 4 23 1 22 C0.34 22.33 -0.32 22.66 -1 23 C-2.64142541 23.14640501 -4.2898141 23.22096589 -5.9375 23.25 C-6.81277344 23.27578125 -7.68804688 23.3015625 -8.58984375 23.328125 C-11.45753546 22.93770992 -12.25539055 22.25322599 -14 20 C-15.65497356 16.69005287 -15.10084335 13.00877 -15.0625 9.375 C-15.05798828 8.57320312 -15.05347656 7.77140625 -15.04882812 6.9453125 C-15.03703168 4.96350994 -15.01909605 2.98174567 -15 1 C-14.01 1 -13.02 1 -12 1 C-11.95101563 2.13179687 -11.90203125 3.26359375 -11.8515625 4.4296875 C-11.77653486 5.91148339 -11.70098703 7.393253 -11.625 8.875 C-11.5940625 9.62136719 -11.563125 10.36773437 -11.53125 11.13671875 C-11.44356169 15.53473188 -11.44356169 15.53473188 -9 19 C-6.36 19 -3.72 19 -1 19 C-0.67 12.73 -0.34 6.46 0 0 Z " fill="#1A1A1A" transform="translate(31,34)"/>
<path d="M0 0 C2.31 0 4.62 0 7 0 C2.40139208 13.50841078 -2.59158621 26.79504166 -8 40 C-10.31 40 -12.62 40 -15 40 C-13.50864176 35.9099231 -12.01522354 31.82060569 -10.52001953 27.73193359 C-10.01328922 26.34541406 -9.50708981 24.95870035 -9.00146484 23.57177734 C-6.11889194 15.66610711 -3.1976408 7.78525754 0 0 Z " fill="#FAF0FA" transform="translate(314,35)"/>
<path d="M0 0 C1.32 0 2.64 0 4 0 C4 8.58 4 17.16 4 26 C-43.52 26 -91.04 26 -140 26 C-140 25.67 -140 25.34 -140 25 C-95.12 24.67 -50.24 24.34 -4 24 C-3.67 23.34 -3.34 22.68 -3 22 C-2.01 22 -1.02 22 0 22 C0 14.74 0 7.48 0 0 Z " fill="#262626" transform="translate(215,117)"/>
<path d="M0 0 C2.94433019 0.90995364 4.62975277 1.49771719 6.4855957 4.01538086 C6.87835693 4.82370361 7.27111816 5.63202637 7.67578125 6.46484375 C8.11083984 7.34720703 8.54589844 8.22957031 8.99414062 9.13867188 C9.64672852 10.5240918 9.64672852 10.5240918 10.3125 11.9375 C10.9940918 13.31711914 10.9940918 13.31711914 11.68945312 14.72460938 C15 21.54981203 15 21.54981203 15 25 C13.59248779 25.86916887 12.1735479 26.71985149 10.75 27.5625 C9.96109375 28.03816406 9.1721875 28.51382813 8.359375 29.00390625 C5.69155375 30.13022151 4.65498232 30.0169313 2 29 C2.33 28.01 2.66 27.02 3 26 C3.66 26 4.32 26 5 26 C6.95031608 21.05250648 6.95031608 21.05250648 6 16 C4.63875 16.99 4.63875 16.99 3.25 18 C0 20 0 20 -4 20 C-4.33 18.68 -4.66 17.36 -5 16 C-2.69 14.35 -0.38 12.7 2 11 C1.67 9.9275 1.34 8.855 1 7.75 C0 4 0 4 0 0 Z " fill="#F9F4FB" transform="translate(313,111)"/>
<path d="M0 0 C0.5625 3.125 0.5625 3.125 0 7 C-2.96852322 9.76462465 -6.80045287 13 -11 13 C-7.72291137 16.67033927 -4.28477792 18.69281189 0 21 C0 23.31 0 25.62 0 28 C-4.18509484 26.51971645 -7.58311593 24.42574276 -11.25 21.9375 C-12.30703125 21.22464844 -13.3640625 20.51179688 -14.453125 19.77734375 C-17.92195973 17.35660786 -17.92195973 17.35660786 -18.58984375 14.3046875 C-17.90030188 10.44142641 -17.40080436 10.16438354 -14.31640625 8.0078125 C-12.74524151 7.02500446 -11.15979875 6.06473772 -9.5625 5.125 C-8.76005859 4.62742187 -7.95761719 4.12984375 -7.13085938 3.6171875 C-1.24299236 0 -1.24299236 0 0 0 Z " fill="#F9EDFA" transform="translate(342,38)"/>
<path d="M0 0 C4.16379871 1.53692005 7.98844343 3.51610296 11.8125 5.75 C12.40998047 6.07226562 13.00746094 6.39453125 13.62304688 6.7265625 C16.59086076 8.47672475 17.86699099 9.57823638 18.9140625 12.8984375 C17.46653899 17.81011983 13.82325264 19.36827423 9.5625 21.875 C8.35883789 22.62136719 8.35883789 22.62136719 7.13085938 23.3828125 C1.24299236 27 1.24299236 27 0 27 C-0.625 23.9375 -0.625 23.9375 0 20 C3.06389856 17.21561499 6.43727895 15.09309861 10 13 C9.278125 12.64808594 8.55625 12.29617187 7.8125 11.93359375 C5.00684514 10.44114123 2.47304979 9.00013325 0 7 C-0.625 3.125 -0.625 3.125 0 0 Z " fill="#F8EDF9" transform="translate(279,39)"/>
<path d="M0 0 C1.65 0 3.3 0 5 0 C5.08741124 3.56234428 5.14052896 7.12441108 5.1875 10.6875 C5.22520508 12.19860352 5.22520508 12.19860352 5.26367188 13.74023438 C5.35520995 22.98558003 5.35520995 22.98558003 2 27 C1 28 1 28 -1.5625 28.0625 C-2.366875 28.041875 -3.17125 28.02125 -4 28 C-4 26.35 -4 24.7 -4 23 C-3.01 22.67 -2.02 22.34 -1 22 C-0.67 14.74 -0.34 7.48 0 0 Z " fill="#0B0B0B" transform="translate(139,36)"/>
<path d="M0 0 C0.886875 0.515625 1.77375 1.03125 2.6875 1.5625 C7.26068101 3.54708798 9.31144614 2.63789812 13.8125 0.9375 C14.534375 0.628125 15.25625 0.31875 16 0 C16.66 1.98 17.32 3.96 18 6 C15.12343326 8.26289917 12.2660479 10.33485099 9 12 C5.75 11.5625 5.75 11.5625 3 10 C2.05125 9.46375 1.1025 8.9275 0.125 8.375 C-0.57625 7.92125 -1.2775 7.4675 -2 7 C-1.125 1.125 -1.125 1.125 0 0 Z " fill="#5D4084" transform="translate(303,127)"/>
<path d="M0 0 C0.81597656 -0.02900391 1.63195312 -0.05800781 2.47265625 -0.08789062 C8.49515062 -0.15175068 8.49515062 -0.15175068 11.6953125 2.20703125 C13.125 4.3125 13.125 4.3125 13.125 6.3125 C4.545 6.3125 -4.035 6.3125 -12.875 6.3125 C-9.95274312 -0.99314219 -7.162874 0.08407129 0 0 Z " fill="#E8E8E8" transform="translate(67.875,37.6875)"/>
<path d="M0 0 C1.65 0 3.3 0 5 0 C5 8.58 5 17.16 5 26 C3.35 26 1.7 26 0 26 C0 17.42 0 8.84 0 0 Z " fill="#161616" transform="translate(223,117)"/>
<path d="M0 0 C1.65 0 3.3 0 5 0 C5 8.58 5 17.16 5 26 C3.35 26 1.7 26 0 26 C0 17.42 0 8.84 0 0 Z " fill="#030303" transform="translate(149,29)"/>
<path d="M0 0 C1.65 0 3.3 0 5 0 C5.16435547 1.51980469 5.16435547 1.51980469 5.33203125 3.0703125 C5.49159893 4.42194461 5.65178833 5.77350343 5.8125 7.125 C5.88275391 7.79015625 5.95300781 8.4553125 6.02539062 9.140625 C6.57685082 13.64054021 7.76429228 17.06760451 10 21 C7.69 21.33 5.38 21.66 3 22 C-0.41374774 15.61777597 -0.9597682 9.19143494 -1 2 C-0.67 1.34 -0.34 0.68 0 0 Z " fill="#604487" transform="translate(275,89)"/>
<path d="M0 0 C1.32 0 2.64 0 4 0 C4 8.25 4 16.5 4 25 C2.02 25 0.04 25 -2 25 C-2.66 24.34 -3.32 23.68 -4 23 C-2.68 22.67 -1.36 22.34 0 22 C0 14.74 0 7.48 0 0 Z " fill="#030303" transform="translate(215,117)"/>
<path d="M0 0 C2.875 0.4375 2.875 0.4375 4.875 2.4375 C5 6.0625 5 6.0625 4.875 9.4375 C0.585 9.4375 -3.705 9.4375 -8.125 9.4375 C-6.85273426 4.34843703 -5.54667193 0.77653407 0 0 Z " fill="#F6F6F6" transform="translate(181.125,128.5625)"/>
<path d="M0 0 C2.70313576 -0.21917317 4.43958382 -0.32851983 6.8125 1.0625 C8.60842137 3.99268751 8.18977574 6.6472953 8 10 C5.36 10 2.72 10 0 10 C-1.36952673 7.26094655 -1.12621361 5.02912668 -1 2 C-0.67 1.34 -0.34 0.68 0 0 Z " fill="#E3E3E3" transform="translate(216,40)"/>
<path d="M0 0 C2.05078125 0.03255208 4.1015625 0.06510417 6.15234375 0.09765625 C6.15234375 3.06765625 6.15234375 6.03765625 6.15234375 9.09765625 C2.77734375 9.22265625 2.77734375 9.22265625 -0.84765625 9.09765625 C-2.84765625 7.09765625 -2.84765625 7.09765625 -3.03515625 4.03515625 C-2.78699548 0.1473042 -2.78699548 0.1473042 0 0 Z " fill="#F5F5F5" transform="translate(77.84765625,128.90234375)"/>
<path d="M0 0 C1.32 0 2.64 0 4 0 C3.12011187 2.95962371 2.40260363 4.66659387 0 6.65625 C-4.16800933 8.52317085 -7.80586919 8.32622029 -12.3125 8.1875 C-13.14845703 8.17396484 -13.98441406 8.16042969 -14.84570312 8.14648438 C-16.89741498 8.11131217 -18.94879275 8.05751048 -21 8 C-21 7.67 -21 7.34 -21 7 C-16.38 6.67 -11.76 6.34 -7 6 C-11.29 5.67 -15.58 5.34 -20 5 C-20 4.67 -20 4.34 -20 4 C-18.72382812 3.96261719 -17.44765625 3.92523438 -16.1328125 3.88671875 C-14.46351162 3.82107209 -12.79424211 3.7546243 -11.125 3.6875 C-9.86236328 3.65366211 -9.86236328 3.65366211 -8.57421875 3.61914062 C-7.76855469 3.58369141 -6.96289062 3.54824219 -6.1328125 3.51171875 C-5.38918457 3.48553467 -4.64555664 3.45935059 -3.87939453 3.43237305 C-1.59266174 3.13270409 -1.59266174 3.13270409 0 0 Z " fill="#292929" transform="translate(80,49)"/>
<path d="M0 0 C3.36591427 2.72478774 4.44226276 6.06856792 6 10 C2.1496895 12.56687367 0.41430237 11.83288724 -4 11 C-3.39301257 6.87248551 -1.96189209 3.6678852 0 0 Z " fill="#675188" transform="translate(310,112)"/>
<path d="M0 0 C1.65 0 3.3 0 5 0 C5 3.3 5 6.6 5 10 C3.00045254 10.04254356 0.99958364 10.04080783 -1 10 C-2 9 -2 9 -2.1875 5.5625 C-2 2 -2 2 0 0 Z " fill="#EEEEEE" transform="translate(89,84)"/>
<path d="M0 0 C1.65 0 3.3 0 5 0 C5 3.3 5 6.6 5 10 C3.02 10 1.04 10 -1 10 C-2.38125018 7.23749964 -2.19079306 5.05268901 -2 2 C-1.34 1.34 -0.68 0.68 0 0 Z " fill="#F3F3F3" transform="translate(124,84)"/>
<path d="M0 0 C0.78375 0.04125 1.5675 0.0825 2.375 0.125 C2.375 3.095 2.375 6.065 2.375 9.125 C0.37545254 9.16754356 -1.62541636 9.16580783 -3.625 9.125 C-4.625 8.125 -4.625 8.125 -4.8125 5.1875 C-4.57390036 1.29037256 -3.98646018 0.18983144 0 0 Z " fill="#F8F8F8" transform="translate(121.625,128.875)"/>
<path d="M0 0 C1.65 0 3.3 0 5 0 C4.67 0.66 4.34 1.32 4 2 C3.34 2 2.68 2 2 2 C2.20625 2.53625 2.4125 3.0725 2.625 3.625 C3.15492419 6.98118655 2.43203739 8.9406474 1 12 C-2.33666039 14.70540031 -4.74452281 15.36475519 -9 15 C-6.14693203 12.67527795 -3.45925163 11.2491742 0 10 C-0.99 7.36 -1.98 4.72 -3 2 C-2.01 2 -1.02 2 0 2 C0 1.34 0 0.68 0 0 Z " fill="#63458D" transform="translate(328,126)"/>
<path d="M0 0 C1.32 0.33 2.64 0.66 4 1 C1.44177362 3.11967328 -0.76227391 4.89434396 -3.8125 6.25 C-6.18559239 7.74604355 -6.18559239 7.74604355 -6.3125 9.96484375 C-6.3125 11.97925757 -6.16456399 13.99231932 -6 16 C-9.75 17.125 -9.75 17.125 -12 16 C-10.68 12.7 -9.36 9.4 -8 6 C-7.34 6 -6.68 6 -6 6 C-6 5.34 -6 4.68 -6 4 C-4.02 3.67 -2.04 3.34 0 3 C0 2.01 0 1.02 0 0 Z " fill="#6E3979" transform="translate(286,51)"/>
<path d="M0 0 C5.94 0 11.88 0 18 0 C17.34 1.98 16.68 3.96 16 6 C15.67 4.68 15.34 3.36 15 2 C10.71 2 6.42 2 2 2 C2 3.98 2 5.96 2 8 C0 5 0 5 0 0 Z " fill="#665088" transform="translate(251,89)"/>
<path d="M0 0 C0.99 0 1.98 0 3 0 C3.33 5.61 3.66 11.22 4 17 C2.68 16.67 1.36 16.34 0 16 C0 10.72 0 5.44 0 0 Z " fill="#030303" transform="translate(16,35)"/>
<path d="M0 0 C5.94 0 11.88 0 18 0 C18 1.65 18 3.3 18 5 C17.34 4.67 16.68 4.34 16 4 C16 3.34 16 2.68 16 2 C11.05 2 6.1 2 1 2 C1 4.64 1 7.28 1 10 C0.67 10 0.34 10 0 10 C0 6.7 0 3.4 0 0 Z " fill="#5D467B" transform="translate(353,89)"/>
<path d="M0 0 C1.98 0 3.96 0 6 0 C6 0.66 6 1.32 6 2 C8.31 2.66 10.62 3.32 13 4 C13 4.66 13 5.32 13 6 C13.99 6.33 14.98 6.66 16 7 C14.359375 7.71484375 14.359375 7.71484375 12 8 C9.203125 6.56640625 9.203125 6.56640625 6.25 4.5625 C5.26515625 3.90378906 4.2803125 3.24507812 3.265625 2.56640625 C2.51796875 2.04949219 1.7703125 1.53257813 1 1 C1 3.31 1 5.62 1 8 C3.475 8.99 3.475 8.99 6 10 C5.01 10.33 4.02 10.66 3 11 C2.01 10.34 1.02 9.68 0 9 C-0.29296875 6.8359375 -0.29296875 6.8359375 -0.1875 4.375 C-0.16042969 3.55773438 -0.13335937 2.74046875 -0.10546875 1.8984375 C-0.05326172 0.95871094 -0.05326172 0.95871094 0 0 Z " fill="#774182" transform="translate(278,38)"/>
<path d="M0 0 C2.97 0 5.94 0 9 0 C8.34 1.32 7.68 2.64 7 4 C7.99 4.33 8.98 4.66 10 5 C7.03 5 4.06 5 1 5 C0.67 3.35 0.34 1.7 0 0 Z " fill="#282828" transform="translate(84,103)"/>
<path d="M0 0 C5.28 0.33 10.56 0.66 16 1 C15.67 1.66 15.34 2.32 15 3 C9.72 3 4.44 3 -1 3 C-0.67 2.01 -0.34 1.02 0 0 Z " fill="#030303" transform="translate(58,53)"/>
<path d="M0 0 C0.33 0.66 0.66 1.32 1 2 C1.99 1.67 2.98 1.34 4 1 C4 3.31 4 5.62 4 8 C3.34 8 2.68 8 2 8 C1.67 9.98 1.34 11.96 1 14 C0.67 14 0.34 14 0 14 C0 9.38 0 4.76 0 0 Z " fill="#DFDFDF" transform="translate(78,85)"/>
<path d="M0 0 C0.33 0.99 0.66 1.98 1 3 C0.67 3.66 0.34 4.32 0 5 C-3.0625 5.625 -3.0625 5.625 -6 6 C-6 6.66 -6 7.32 -6 8 C-7.32 8.33 -8.64 8.66 -10 9 C-8.77946141 5.33838422 -7.63217696 4.83729526 -4.4375 2.8125 C-3.61121094 2.28269531 -2.78492188 1.75289062 -1.93359375 1.20703125 C-1.29550781 0.80871094 -0.65742188 0.41039062 0 0 Z " fill="#6A307C" transform="translate(297,54)"/>
<path d="M0 0 C0.66 0 1.32 0 2 0 C2.33 2.64 2.66 5.28 3 8 C-0.75 9.125 -0.75 9.125 -3 8 C-2.01 5.36 -1.02 2.72 0 0 Z " fill="#7F448E" transform="translate(277,59)"/>
<path d="M0 0 C1.65 0 3.3 0 5 0 C5 1.65 5 3.3 5 5 C3.35 5 1.7 5 0 5 C0 3.35 0 1.7 0 0 Z " fill="#2B2B2B" transform="translate(154,146)"/>
<path d="M0 0 C0 0.99 0 1.98 0 3 C-3.37362154 5.60250805 -5.76907828 6.36265043 -10 6 C-6.87567603 3.47650757 -3.61939504 1.72743854 0 0 Z " fill="#5C437F" transform="translate(329,135)"/>
<path d="M0 0 C1.32 0 2.64 0 4 0 C4.5625 1.9375 4.5625 1.9375 5 4 C4 5 4 5 1.4375 5.0625 C0.2309375 5.0315625 0.2309375 5.0315625 -1 5 C-0.67 3.35 -0.34 1.7 0 0 Z " fill="#573982" transform="translate(309,119)"/>
<path d="M0 0 C1.65 0 3.3 0 5 0 C5 1.65 5 3.3 5 5 C3.35 5 1.7 5 0 5 C0 3.35 0 1.7 0 0 Z " fill="#474747" transform="translate(122,116)"/>
<path d="M0 0 C1.65 0 3.3 0 5 0 C5 1.65 5 3.3 5 5 C3.35 5 1.7 5 0 5 C0 3.35 0 1.7 0 0 Z " fill="#444444" transform="translate(81,116)"/>
<path d="M0 0 C0.33 0 0.66 0 1 0 C1.042721 1.66611905 1.04063832 3.33382885 1 5 C0 6 0 6 -2.4375 6.25 C-3.283125 6.1675 -4.12875 6.085 -5 6 C-5.66 5.01 -6.32 4.02 -7 3 C-5.02 3 -3.04 3 -1 3 C-0.67 2.01 -0.34 1.02 0 0 Z " fill="#692F77" transform="translate(307,72)"/>
<path d="M0 0 C1.65 0 3.3 0 5 0 C5 1.65 5 3.3 5 5 C3.35 5 1.7 5 0 5 C0 3.35 0 1.7 0 0 Z " fill="#272727" transform="translate(144,72)"/>
<path d="M0 0 C4.95 0.99 4.95 0.99 10 2 C9.67 2.99 9.34 3.98 9 5 C7.35 4.67 5.7 4.34 4 4 C4 3.34 4 2.68 4 2 C2.68 2 1.36 2 0 2 C0 1.34 0 0.68 0 0 Z " fill="#6F347B" transform="translate(326,15)"/>
<path d="M0 0 C0.66 0 1.32 0 2 0 C2.99 3.3 3.98 6.6 5 10 C4.01 10.495 4.01 10.495 3 11 C0 4.5 0 4.5 0 0 Z " fill="#604783" transform="translate(268,103)"/>
<path d="M0 0 C0.66 0.33 1.32 0.66 2 1 C2 2.65 2 4.3 2 6 C-0.97 5.505 -0.97 5.505 -4 5 C-2.25 1.125 -2.25 1.125 0 0 Z " fill="#53377E" transform="translate(342,104)"/>
<path d="M0 0 C1.32 0 2.64 0 4 0 C4 1.65 4 3.3 4 5 C2.68 5 1.36 5 0 5 C0 3.35 0 1.7 0 0 Z " fill="#222222" transform="translate(203,116)"/>
<path d="M0 0 C1.32 0 2.64 0 4 0 C4 1.65 4 3.3 4 5 C2.68 5 1.36 5 0 5 C0 3.35 0 1.7 0 0 Z " fill="#272727" transform="translate(197,116)"/>
<path d="M0 0 C1.32 0 2.64 0 4 0 C4 1.65 4 3.3 4 5 C2.68 5 1.36 5 0 5 C0 3.35 0 1.7 0 0 Z " fill="#1C1C1C" transform="translate(117,116)"/>
<path d="M0 0 C1.32 0 2.64 0 4 0 C4 1.65 4 3.3 4 5 C2.68 5 1.36 5 0 5 C0 3.35 0 1.7 0 0 Z " fill="#1B1B1B" transform="translate(76,116)"/>
<path d="M0 0 C1.65 0 3.3 0 5 0 C5 1.32 5 2.64 5 4 C3.35 4 1.7 4 0 4 C0 2.68 0 1.36 0 0 Z " fill="#121212" transform="translate(68,102)"/>
<path d="M0 0 C1.32 0 2.64 0 4 0 C4 1.65 4 3.3 4 5 C2.68 5 1.36 5 0 5 C0 3.35 0 1.7 0 0 Z " fill="#222222" transform="translate(189,72)"/>
<path d="M0 0 C1.32 0 2.64 0 4 0 C4 1.65 4 3.3 4 5 C2.68 5 1.36 5 0 5 C0 3.35 0 1.7 0 0 Z " fill="#313131" transform="translate(183,72)"/>
<path d="M0 0 C2.64 0.33 5.28 0.66 8 1 C8.33 2.32 8.66 3.64 9 5 C5.51694958 4.35499066 2.93797836 2.95865224 0 1 C0 0.67 0 0.34 0 0 Z " fill="#6D377A" transform="translate(334,54)"/>
<path d="M0 0 C0.99 0.33 1.98 0.66 3 1 C1.02 3.31 -0.96 5.62 -3 8 C-3.33 7.01 -3.66 6.02 -4 5 C-3.34 5 -2.68 5 -2 5 C-1.34 3.35 -0.68 1.7 0 0 Z " fill="#553C7D" transform="translate(356,127)"/>
<path d="M0 0 C0.66 0.66 1.32 1.32 2 2 C0.68 4.64 -0.64 7.28 -2 10 C-3.19156292 5.23374833 -2.3415946 4.12120649 0 0 Z " fill="#644E85" transform="translate(306,104)"/>
<path d="M0 0 C1.32 0.33 2.64 0.66 4 1 C4 2.32 4 3.64 4 5 C3.01 4.67 2.02 4.34 1 4 C0.3125 1.9375 0.3125 1.9375 0 0 Z " fill="#56338B" transform="translate(286,116)"/>
</svg>
