<?xml version="1.0" encoding="UTF-8"?>
<svg version="1.1" xmlns="http://www.w3.org/2000/svg" width="246" height="168">
<path d="M0 0 C81.18 0 162.36 0 246 0 C246 55.44 246 110.88 246 168 C164.82 168 83.64 168 0 168 C0 112.56 0 57.12 0 0 Z " fill="#F6F6F7" transform="translate(0,0)"/>
<path d="M0 0 C0.66 0 1.32 0 2 0 C2.5878125 0.7115625 2.5878125 0.7115625 3.1875 1.4375 C5.86612359 3.74665826 8.56076032 3.67554343 12 4 C11.67 4.99 11.34 5.98 11 7 C15.29 7.33 19.58 7.66 24 8 C24 8.66 24 9.32 24 10 C27.12197478 8.6910428 27.12197478 8.6910428 29 6 C30.65 6 32.3 6 34 6 C34.33 6.66 34.66 7.32 35 8 C36.11375 7.2575 36.11375 7.2575 37.25 6.5 C40 5 40 5 44 5 C44.33 3.68 44.66 2.36 45 1 C45.99 1.33 46.98 1.66 48 2 C48 2.99 48 3.98 48 5 C47.34 5 46.68 5 46 5 C46.33 5.66 46.66 6.32 47 7 C47.5775 6.649375 48.155 6.29875 48.75 5.9375 C51.35801776 4.85082593 52.39417629 5.06934867 55 6 C55 6.99 55 7.98 55 9 C57.91517292 7.92598892 59.77810176 7.22189824 62 5 C63.92583613 5.19922443 65.85186409 5.40977479 67.765625 5.703125 C71.76865276 6.23499582 76.33008574 6.83495713 80 5 C80 12.26 80 19.52 80 27 C-1.18 27 -82.36 27 -166 27 C-166 19.08 -166 11.16 -166 3 C-165.67 3.66 -165.34 4.32 -165 5 C-164.01 5.33 -163.02 5.66 -162 6 C-162.33 6.99 -162.66 7.98 -163 9 C-160.03 9.33 -157.06 9.66 -154 10 C-153.67 8.68 -153.34 7.36 -153 6 C-145.74 5.67 -138.48 5.34 -131 5 C-131 5.66 -131 6.32 -131 7 C-129.68 7 -128.36 7 -127 7 C-126.67 6.01 -126.34 5.02 -126 4 C-126 4.99 -126 5.98 -126 7 C-124.35 7 -122.7 7 -121 7 C-120.67 5.68 -120.34 4.36 -120 3 C-119.505 3.495 -119.505 3.495 -119 4 C-117.48071962 4.07179964 -115.95832518 4.08392007 -114.4375 4.0625 C-113.61121094 4.05347656 -112.78492188 4.04445312 -111.93359375 4.03515625 C-110.97646484 4.01775391 -110.97646484 4.01775391 -110 4 C-110.33 4.99 -110.66 5.98 -111 7 C-108.69 7 -106.38 7 -104 7 C-104 6.34 -104 5.68 -104 5 C-93.11 5 -82.22 5 -71 5 C-70.505 6.485 -70.505 6.485 -70 8 C-68.02 8 -66.04 8 -64 8 C-63.67 7.01 -63.34 6.02 -63 5 C-62.505 5.99 -62.505 5.99 -62 7 C-60.68 7 -59.36 7 -58 7 C-57.67 5.68 -57.34 4.36 -57 3 C-56.505 3.495 -56.505 3.495 -56 4 C-54.48071962 4.07179964 -52.95832518 4.08392007 -51.4375 4.0625 C-50.61121094 4.05347656 -49.78492187 4.04445312 -48.93359375 4.03515625 C-47.97646484 4.01775391 -47.97646484 4.01775391 -47 4 C-47.33 4.99 -47.66 5.98 -48 7 C-46.02 7 -44.04 7 -42 7 C-42 6.01 -42 5.02 -42 4 C-37.85418113 3.97113249 -33.70838784 3.95324673 -29.5625 3.9375 C-28.37849609 3.92912109 -27.19449219 3.92074219 -25.97460938 3.91210938 C-24.84990234 3.90888672 -23.72519531 3.90566406 -22.56640625 3.90234375 C-21.52427979 3.89710693 -20.48215332 3.89187012 -19.40844727 3.88647461 C-17 4 -17 4 -16 5 C-12.41546781 5.8595237 -8.85610379 6.25309968 -5.1875 6.5625 C-3.72376953 6.68818359 -3.72376953 6.68818359 -2.23046875 6.81640625 C-1.12638672 6.90728516 -1.12638672 6.90728516 0 7 C0 4.69 0 2.38 0 0 Z " fill="#F6F6F7" transform="translate(166,141)"/>
<path d="M0 0 C1.32 0 2.64 0 4 0 C4 3.3 4 6.6 4 10 C5.32 10 6.64 10 8 10 C8 8.02 8 6.04 8 4 C9.32 4 10.64 4 12 4 C12 5.98 12 7.96 12 10 C14.97 10 17.94 10 21 10 C20.505 9.01 20.505 9.01 20 8 C17.47266765 7.34444881 17.47266765 7.34444881 15 7 C15 6.01 15 5.02 15 4 C19.18524749 3.91793632 22.91081136 4.15810822 27 5 C27.33 4.67 27.66 4.34 28 4 C29.99958364 3.95919217 32.00045254 3.95745644 34 4 C34 6.31 34 8.62 34 11 C35.32 11 36.64 11 38 11 C38 7.37 38 3.74 38 0 C38.99 0 39.98 0 41 0 C41 4.62 41 9.24 41 14 C38.69 14 36.38 14 34 14 C33.34 15.32 32.68 16.64 32 18 C29.6875 18.1875 29.6875 18.1875 27 18 C25.33203125 16.48828125 25.33203125 16.48828125 24 15 C21.14031897 21.2989104 21.14031897 21.2989104 22 28 C22.66 28 23.32 28 24 28 C24 27.01 24 26.02 24 25 C24.66 25 25.32 25 26 25 C26.14285714 32.42857143 26.14285714 32.42857143 25 36 C27.475 35.505 27.475 35.505 30 35 C29.979375 33.906875 29.95875 32.81375 29.9375 31.6875 C30 28 30 28 31 25 C33.31 25 35.62 25 38 25 C38 25.66 38 26.32 38 27 C38.721875 26.855625 39.44375 26.71125 40.1875 26.5625 C42.0625 26.1875 43.9375 25.8125 45.8125 25.4375 C46.534375 25.293125 47.25625 25.14875 48 25 C48.433125 25.969375 48.86625 26.93875 49.3125 27.9375 C50.7014861 31.27731765 50.7014861 31.27731765 54 32 C54 29.69 54 27.38 54 25 C55.485 25.495 55.485 25.495 57 26 C57 27.32 57 28.64 57 30 C58.313702 29.3566152 59.62592898 28.71021785 60.9375 28.0625 C61.66839844 27.70285156 62.39929688 27.34320313 63.15234375 26.97265625 C64.96249027 26.13628173 64.96249027 26.13628173 66 25 C67.66617115 24.95936168 69.33388095 24.957279 71 25 C71.99 28.465 71.99 28.465 73 32 C73.47179687 31.13375 73.47179687 31.13375 73.953125 30.25 C74.38109375 29.5075 74.8090625 28.765 75.25 28 C75.66765625 27.2575 76.0853125 26.515 76.515625 25.75 C77.00546875 25.1725 77.4953125 24.595 78 24 C79.32 24 80.64 24 82 24 C82.103125 23.443125 82.20625 22.88625 82.3125 22.3125 C83 20 83 20 86 15 C74.78 14.67 63.56 14.34 52 14 C51.34 15.32 50.68 16.64 50 18 C48.35 18 46.7 18 45 18 C45 17.01 45 16.02 45 15 C45.66 14.67 46.32 14.34 47 14 C45.68 13.01 44.36 12.02 43 11 C43.75 6.25 43.75 6.25 46 4 C49.125 3.875 49.125 3.875 52 4 C52 6.31 52 8.62 52 11 C52.99 11 53.98 11 55 11 C55 8.69 55 6.38 55 4 C55.99 4 56.98 4 58 4 C58 6.31 58 8.62 58 11 C61.3 11 64.6 11 68 11 C68 10.01 68 9.02 68 8 C65.69 8 63.38 8 61 8 C61.33 5.36 61.66 2.72 62 0 C63.32 0 64.64 0 66 0 C65.67 1.32 65.34 2.64 65 4 C65.804375 4.226875 66.60875 4.45375 67.4375 4.6875 C68.283125 5.120625 69.12875 5.55375 70 6 C70.8125 8.625 70.8125 8.625 71 11 C72.65 11 74.3 11 76 11 C76 8.69 76 6.38 76 4 C76.66 4 77.32 4 78 4 C78 6.31 78 8.62 78 11 C79.98 11 81.96 11 84 11 C84 7.37 84 3.74 84 0 C86.97 0 89.94 0 93 0 C93 5.94 93 11.88 93 18 C93.66 18.33 94.32 18.66 95 19 C94.01 19.5775 93.02 20.155 92 20.75 C91.01 21.4925 90.02 22.235 89 23 C89 24.32 89 25.64 89 27 C89.66 27 90.32 27 91 27 C91 26.34 91 25.68 91 25 C91.66 25 92.32 25 93 25 C92.01 28.465 92.01 28.465 91 32 C90.34 32 89.68 32 89 32 C88.67 30.35 88.34 28.7 88 27 C86.03243548 27.03122943 86.03243548 27.03122943 84 28 C82.6954344 30.99615946 82.6954344 30.99615946 82 34 C80.515 33.505 80.515 33.505 79 33 C79 33.99 79 34.98 79 36 C82.37503669 34.8141763 84.64722731 33.72426311 87 31 C87.28875 31.804375 87.5775 32.60875 87.875 33.4375 C88.73262568 36.1326468 88.73262568 36.1326468 91 37 C91 37.66 91 38.32 91 39 C91.93972656 38.76603516 91.93972656 38.76603516 92.8984375 38.52734375 C93.71570313 38.33269531 94.53296875 38.13804687 95.375 37.9375 C96.18710938 37.74027344 96.99921875 37.54304688 97.8359375 37.33984375 C100 37 100 37 102 38 C102 38.99 102 39.98 102 41 C100.35 41 98.7 41 97 41 C97 41.66 97 42.32 97 43 C98.65 42.67 100.3 42.34 102 42 C102 44.97 102 47.94 102 51 C97.72656908 51.36629408 95.51187196 50.40814077 92 48 C91.67 49.65 91.34 51.3 91 53 C90.2575 53.12375 89.515 53.2475 88.75 53.375 C86.19858515 53.95486701 84.2732427 54.73708739 82 56 C81.67 55.01 81.34 54.02 81 53 C79.35 53 77.7 53 76 53 C75.67 53.99 75.34 54.98 75 56 C72.9375 56.6875 72.9375 56.6875 71 57 C71 56.34 71 55.68 71 55 C69.96875 55.20625 68.9375 55.4125 67.875 55.625 C63.8765784 56.01194403 61.66306243 55.51883076 58 54 C58 53.34 58 52.68 58 52 C57.43410156 51.89042969 56.86820312 51.78085938 56.28515625 51.66796875 C55.18494141 51.43013672 55.18494141 51.43013672 54.0625 51.1875 C53.33160156 51.03667969 52.60070312 50.88585937 51.84765625 50.73046875 C51.23792969 50.48941406 50.62820312 50.24835938 50 50 C49.67 49.01 49.34 48.02 49 47 C48.34 47 47.68 47 47 47 C47.226875 47.763125 47.45375 48.52625 47.6875 49.3125 C48 52 48 52 46.79296875 53.68359375 C45 55 45 55 42.9140625 55.109375 C42.15867188 54.99078125 41.40328125 54.8721875 40.625 54.75 C39.83222656 54.63140625 39.03945312 54.5128125 38.22265625 54.390625 C37.48917969 54.26171875 36.75570312 54.1328125 36 54 C35.030625 53.835 34.06125 53.67 33.0625 53.5 C31 53 31 53 29 52 C27.18828902 51.84693099 25.3716206 51.75053339 23.5546875 51.68359375 C22.47832031 51.64169922 21.40195313 51.59980469 20.29296875 51.55664062 C19.16503906 51.51732422 18.03710938 51.47800781 16.875 51.4375 C15.73933594 51.39431641 14.60367188 51.35113281 13.43359375 51.30664062 C10.62252232 51.2003396 7.81136055 51.09830595 5 51 C5 51.99 5 52.98 5 54 C3.02 54 1.04 54 -1 54 C-1 53.34 -1 52.68 -1 52 C-2.299375 52.020625 -3.59875 52.04125 -4.9375 52.0625 C-6.29165633 52.08399454 -7.64756083 52.07148199 -9 52 C-9.33 51.67 -9.66 51.34 -10 51 C-10.33 51.99 -10.66 52.98 -11 54 C-11.99 54 -12.98 54 -14 54 C-14 52.35 -14 50.7 -14 49 C-13.360625 48.731875 -12.72125 48.46375 -12.0625 48.1875 C-9.66868314 47.11332248 -9.66868314 47.11332248 -9 44 C-7.35 44 -5.7 44 -4 44 C-3.34 45.32 -2.68 46.64 -2 48 C-1.01 48 -0.02 48 1 48 C1 46.35 1 44.7 1 43 C1.66 43 2.32 43 3 43 C3 44.65 3 46.3 3 48 C4.32 48 5.64 48 7 48 C7 45.36 7 42.72 7 40 C7.66 40 8.32 40 9 40 C9 42.64 9 45.28 9 48 C9.99 48 10.98 48 12 48 C11.690625 47.1028125 11.690625 47.1028125 11.375 46.1875 C11 44 11 44 13 41 C16.125 40.8125 16.125 40.8125 19 41 C19.33 38.03 19.66 35.06 20 32 C19.34 32 18.68 32 18 32 C17.67 31.34 17.34 30.68 17 30 C16.34 30 15.68 30 15 30 C15 30.66 15 31.32 15 32 C13.35 32 11.7 32 10 32 C9.375 29.6875 9.375 29.6875 9 27 C9.66 26.01 10.32 25.02 11 24 C11.99 24 12.98 24 14 24 C14 22.35 14 20.7 14 19 C12.68 19 11.36 19 10 19 C9.67 19.66 9.34 20.32 9 21 C7.5 19.6875 7.5 19.6875 6 18 C6 17.01 6 16.02 6 15 C3.03 14.505 3.03 14.505 0 14 C0 9.38 0 4.76 0 0 Z " fill="#EEF5F8" transform="translate(119,94)"/>
<path d="M0 0 C2.31 0 4.62 0 7 0 C7 3.96 7 7.92 7 12 C8.32 12 9.64 12 11 12 C11 9.69 11 7.38 11 5 C11.99 5 12.98 5 14 5 C14 7.31 14 9.62 14 12 C15.32 12 16.64 12 18 12 C18.12375 11.21625 18.2475 10.4325 18.375 9.625 C19 7 19 7 21 5 C24.125 4.875 24.125 4.875 27 5 C27 7.31 27 9.62 27 12 C28.32 12 29.64 12 31 12 C31 9.69 31 7.38 31 5 C31.99 5 32.98 5 34 5 C34 7.31 34 9.62 34 12 C35.65 12 37.3 12 39 12 C39 9.69 39 7.38 39 5 C39.99 5 40.98 5 42 5 C42 7.31 42 9.62 42 12 C42.99 12 43.98 12 45 12 C45 8.37 45 4.74 45 1 C45.99 1 46.98 1 48 1 C48 2.32 48 3.64 48 5 C48.928125 4.938125 49.85625 4.87625 50.8125 4.8125 C54 5 54 5 55.875 6.25 C57 8 57 8 57 12 C58.32 12 59.64 12 61 12 C60.7834375 10.1128125 60.7834375 10.1128125 60.5625 8.1875 C60.48128906 7.47980469 60.40007812 6.77210937 60.31640625 6.04296875 C60.02829265 3.80603607 60.02829265 3.80603607 59 1 C61.31 1 63.62 1 66 1 C66 1.99 66 2.98 66 4 C65.34 4 64.68 4 64 4 C64 6.64 64 9.28 64 12 C65.65 12 67.3 12 69 12 C68.98839844 11.21753906 68.97679688 10.43507813 68.96484375 9.62890625 C68.95582031 8.61699219 68.94679688 7.60507813 68.9375 6.5625 C68.92589844 5.55316406 68.91429688 4.54382813 68.90234375 3.50390625 C69 1 69 1 70 0 C73.5 -0.125 73.5 -0.125 77 0 C80.54338194 3.54338194 78 9.98890121 78 15 C60.675 15.495 60.675 15.495 43 16 C42.505 17.485 42.505 17.485 42 19 C41.2575 18.896875 40.515 18.79375 39.75 18.6875 C36.78737059 18.73010318 36.78737059 18.73010318 34.75 21.3125 C32.43284849 24.87098268 32 26.70815876 32 31 C33.65 31 35.3 31 37 31 C37.33 29.35 37.66 27.7 38 26 C38.99 26 39.98 26 41 26 C41 28.64 41 31.28 41 34 C39.35 34 37.7 34 36 34 C35.34 35.65 34.68 37.3 34 39 C35.32 39 36.64 39 38 39 C37.505 37.02 37.505 37.02 37 35 C38.41377782 34.63447197 39.83120576 34.28304505 41.25 33.9375 C42.03890625 33.74027344 42.8278125 33.54304688 43.640625 33.33984375 C46.10394822 32.98502733 47.65604132 33.23122456 50 34 C50 34.99 50 35.98 50 37 C50.33 36.01 50.66 35.02 51 34 C51.99 33.67 52.98 33.34 54 33 C54.66 33.33 55.32 33.66 56 34 C55.67 35.98 55.34 37.96 55 40 C56.485 40.495 56.485 40.495 58 41 C58 42.32 58 43.64 58 45 C58.66 44.67 59.32 44.34 60 44 C61.99960012 43.960008 64.00047242 43.95653201 66 44 C66.05399736 45.45792884 66.09279177 46.91642712 66.125 48.375 C66.14820312 49.18710938 66.17140625 49.99921875 66.1953125 50.8359375 C66 53 66 53 64 55 C62.32320045 54.72209325 60.65796625 54.37421493 59 54 C56.42503371 53.85301387 53.86966263 53.74546333 51.29296875 53.68359375 C50.20487663 53.6524221 50.20487663 53.6524221 49.09480286 53.62062073 C46.79245887 53.55557785 44.49000718 53.49645227 42.1875 53.4375 C40.62043186 53.39427165 39.05337435 53.35065602 37.48632812 53.30664062 C33.65766064 53.19994332 29.8288855 53.09855031 26 53 C26 53.66 26 54.32 26 55 C23.69 55 21.38 55 19 55 C19 54.34 19 53.68 19 53 C17.700625 53.020625 16.40125 53.04125 15.0625 53.0625 C13.70834367 53.08399454 12.35243917 53.07148199 11 53 C10.67 52.67 10.34 52.34 10 52 C9.67 52.99 9.34 53.98 9 55 C7.35425434 55.02688151 5.70838587 55.04634123 4.0625 55.0625 C2.68771484 55.07990234 2.68771484 55.07990234 1.28515625 55.09765625 C-1 55 -1 55 -2 54 C-3.56423432 53.98334926 -5.12935006 54.03691108 -6.69140625 54.12109375 C-7.63564453 54.16943359 -8.57988281 54.21777344 -9.55273438 54.26757812 C-10.54595703 54.32365234 -11.53917969 54.37972656 -12.5625 54.4375 C-13.55958984 54.48970703 -14.55667969 54.54191406 -15.58398438 54.59570312 C-18.05627522 54.7258237 -20.5282063 54.86080181 -23 55 C-23.33 55.99 -23.66 56.98 -24 58 C-30.75 58.125 -30.75 58.125 -33 57 C-33 56.01 -33 55.02 -33 54 C-33.495 53.54625 -33.99 53.0925 -34.5 52.625 C-36 51 -36 51 -36.1875 48.3125 C-36.125625 47.549375 -36.06375 46.78625 -36 46 C-35.01 46 -34.02 46 -33 46 C-32.8453125 46.9590625 -32.8453125 46.9590625 -32.6875 47.9375 C-32.460625 48.618125 -32.23375 49.29875 -32 50 C-31.01 50.33 -30.02 50.66 -29 51 C-29.020625 50.030625 -29.04125 49.06125 -29.0625 48.0625 C-29 45 -29 45 -28 44 C-26.00041636 43.95919217 -23.99954746 43.95745644 -22 44 C-22 45.65 -22 47.3 -22 49 C-21.34 49 -20.68 49 -20 49 C-20 47.35 -20 45.7 -20 44 C-19.34 44 -18.68 44 -18 44 C-18 45.65 -18 47.3 -18 49 C-17.01 49 -16.02 49 -15 49 C-14.896875 48.360625 -14.79375 47.72125 -14.6875 47.0625 C-14.460625 46.381875 -14.23375 45.70125 -14 45 C-12.515 44.505 -12.515 44.505 -11 44 C-11.33 43.01 -11.66 42.02 -12 41 C-10.515 40.505 -10.515 40.505 -9 40 C-8.67 42.97 -8.34 45.94 -8 49 C-7.01 49 -6.02 49 -5 49 C-5 46.03 -5 43.06 -5 40 C-2.69 39.67 -0.38 39.34 2 39 C2.33 37.35 2.66 35.7 3 34 C2.38125 34.185625 1.7625 34.37125 1.125 34.5625 C-1 35 -1 35 -3 34 C-2.34 31.69 -1.68 29.38 -1 27 C0.32 26.67 1.64 26.34 3 26 C2.67 24.35 2.34 22.7 2 21 C1.34 21 0.68 21 0 21 C0 19.68 0 18.36 0 17 C0.99 17 1.98 17 3 17 C3.495 17.99 3.495 17.99 4 19 C4.66 19 5.32 19 6 19 C6 18.34 6 17.68 6 17 C5.236875 16.9175 4.47375 16.835 3.6875 16.75 C1 16 1 16 -0.875 14.25 C-2.34749578 11.30500844 -1.87661443 10.14120171 -1 7 C-0.65596692 4.66822025 -0.32050798 2.33512959 0 0 Z " fill="#F3F7F7" transform="translate(36,93)"/>
<path d="M0 0 C4.55555556 0.55555556 4.55555556 0.55555556 6 2 C6.08651611 3.41570123 6.10704904 4.835595 6.09765625 6.25390625 C6.09443359 7.10791016 6.09121094 7.96191406 6.08789062 8.84179688 C6.07951172 9.73962891 6.07113281 10.63746094 6.0625 11.5625 C6.05798828 12.46419922 6.05347656 13.36589844 6.04882812 14.29492188 C6.03700225 16.53001314 6.0205222 18.76497437 6 21 C5.34 21 4.68 21 4 21 C3.67 15.06 3.34 9.12 3 3 C2.34 2.67 1.68 2.34 1 2 C1.33 10.91 1.66 19.82 2 29 C2.33 29 2.66 29 3 29 C3.33 33.95 3.66 38.9 4 44 C5.98 44 7.96 44 10 44 C8.02 43.34 6.04 42.68 4 42 C3.67 37.05 3.34 32.1 3 27 C3.99 27 4.98 27 6 27 C6.33 26.01 6.66 25.02 7 24 C6.67 29.94 6.34 35.88 6 42 C6.66 42 7.32 42 8 42 C8 30.45 8 18.9 8 7 C9.65 6.67 11.3 6.34 13 6 C13.185625 6.94875 13.37125 7.8975 13.5625 8.875 C14.036875 9.90625 14.51125 10.9375 15 12 C18.53015795 13.23497401 18.53015795 13.23497401 22 14 C22.02505615 14.58491211 22.0501123 15.16982422 22.07592773 15.77246094 C22.19222962 18.43184471 22.31480067 21.09090403 22.4375 23.75 C22.47681641 24.67039062 22.51613281 25.59078125 22.55664062 26.5390625 C22.59853516 27.42851563 22.64042969 28.31796875 22.68359375 29.234375 C22.73858032 30.45979004 22.73858032 30.45979004 22.79467773 31.70996094 C22.99156147 33.90588181 23.440957 35.87296502 24 38 C24 42.67855628 23.38853295 47.33760458 23 52 C7.655 52.495 7.655 52.495 -8 53 C-7.34 54.65 -6.68 56.3 -6 58 C-2.94727535 58.89830839 -2.94727535 58.89830839 0 59 C0.33 60.65 0.66 62.3 1 64 C-2.51953736 65.17317912 -4.27972623 64.64240132 -7.6640625 63.27734375 C-12.92668441 60.39962241 -19.0540675 56.18797442 -20.8125 50.26171875 C-21.04747666 46.17410398 -20.86324852 42.20411784 -20.5625 38.125 C-20.48418945 36.949375 -20.48418945 36.949375 -20.40429688 35.75 C-20.27571149 33.8329088 -20.13871383 31.91638497 -20 30 C-19.01 30 -18.02 30 -17 30 C-17 31.32 -17 32.64 -17 34 C-16.34 34 -15.68 34 -15 34 C-15 32.02 -15 30.04 -15 28 C-14.34 27.67 -13.68 27.34 -13 27 C-13.66 26.34 -14.32 25.68 -15 25 C-15.66 26.32 -16.32 27.64 -17 29 C-17.66 28.67 -18.32 28.34 -19 28 C-18.34 26.35 -17.68 24.7 -17 23 C-15.35 23.33 -13.7 23.66 -12 24 C-10.75106883 30.24465583 -10.45372433 36.64785943 -10 43 C-9.67 30.79 -9.34 18.58 -9 6 C-7.35 6.33 -5.7 6.66 -4 7 C-3.67 10.3 -3.34 13.6 -3 17 C-4.32 16.67 -5.64 16.34 -7 16 C-7.33 25.57 -7.66 35.14 -8 45 C-9.98 45.495 -9.98 45.495 -12 46 C-14 44 -14 44 -14.1953125 42.0546875 C-14.09765625 39.02734375 -14.09765625 39.02734375 -14 36 C-14.99 36 -15.98 36 -17 36 C-16.74562289 38.62756588 -16.47235799 41.25071774 -16.1875 43.875 C-16.11724609 44.62136719 -16.04699219 45.36773437 -15.97460938 46.13671875 C-15.75289777 48.10551777 -15.38420661 50.05636658 -15 52 C-14.01 52.66 -13.02 53.32 -12 54 C-11.67 52.35 -11.34 50.7 -11 49 C-0.77 49 9.46 49 20 49 C19.67 48.34 19.34 47.68 19 47 C18.67 47.33 18.34 47.66 18 48 C16.62000063 48.09865116 15.23508201 48.13079023 13.8515625 48.1328125 C13.01109375 48.13410156 12.170625 48.13539062 11.3046875 48.13671875 C9.97824219 48.13091797 9.97824219 48.13091797 8.625 48.125 C7.31015625 48.13080078 7.31015625 48.13080078 5.96875 48.13671875 C5.12570313 48.13542969 4.28265625 48.13414063 3.4140625 48.1328125 C2.6401416 48.13168457 1.8662207 48.13055664 1.06884766 48.12939453 C-1 48 -1 48 -4 47 C-4.625 45 -4.625 45 -5 43 C-5.33 42.67 -5.66 42.34 -6 42 C-6.08700342 40.36527118 -6.10701063 38.72685945 -6.09765625 37.08984375 C-6.09443359 36.10048828 -6.09121094 35.11113281 -6.08789062 34.09179688 C-6.07951172 33.05087891 -6.07113281 32.00996094 -6.0625 30.9375 C-6.05798828 29.89271484 -6.05347656 28.84792969 -6.04882812 27.77148438 C-6.03699913 25.1809334 -6.02051689 22.59049441 -6 20 C-5.34 20 -4.68 20 -4 20 C-4 26.93 -4 33.86 -4 41 C-3.34 41 -2.68 41 -2 41 C-2.01047363 39.82904785 -2.02094727 38.6580957 -2.03173828 37.45166016 C-2.06787497 33.11689295 -2.09087733 28.78213911 -2.10986328 24.44726562 C-2.11993534 22.56931318 -2.13359362 20.69137647 -2.15087891 18.81347656 C-2.17507453 16.1177991 -2.18647083 13.42232854 -2.1953125 10.7265625 C-2.20563507 9.88380768 -2.21595764 9.04105286 -2.22659302 8.17276001 C-2.22699144 6.11378753 -2.12257588 4.05532065 -2 2 C-1.34 1.34 -0.68 0.68 0 0 Z " fill="#E6F4F9" transform="translate(122,18)"/>
<path d="M0 0 C0.66 0 1.32 0 2 0 C2.66 1.32 3.32 2.64 4 4 C4.66 4 5.32 4 6 4 C6.33 3.01 6.66 2.02 7 1 C7 2.98 7 4.96 7 7 C7.66 7 8.32 7 9 7 C9 4.69 9 2.38 9 0 C11.475 0.495 11.475 0.495 14 1 C15.125 8.75 15.125 8.75 14 11 C14.66 11 15.32 11 16 11 C15.938125 10.29875 15.87625 9.5975 15.8125 8.875 C16.04256101 5.34739788 17.29200568 3.06015649 19 0 C21.475 0.495 21.475 0.495 24 1 C24 2.32 24 3.64 24 5 C23.01 5 22.02 5 21 5 C21 5.66 21 6.32 21 7 C20.34 7 19.68 7 19 7 C18.67 8.98 18.34 10.96 18 13 C18.99 13 19.98 13 21 13 C21 14.32 21 15.64 21 17 C21.99 17 22.98 17 24 17 C24.33 16.34 24.66 15.68 25 15 C26.32 15 27.64 15 29 15 C29 17.64 29 20.28 29 23 C29.99 23 30.98 23 32 23 C31.505 21.02 31.505 21.02 31 19 C34 17 34 17 36.6875 17.375 C37.8321875 17.684375 37.8321875 17.684375 39 18 C39.495 19.485 39.495 19.485 40 21 C39.67 21.66 39.34 22.32 39 23 C40.32 23 41.64 23 43 23 C43 21.35 43 19.7 43 18 C43.66 18 44.32 18 45 18 C45 19.65 45 21.3 45 23 C46.65 23 48.3 23 50 23 C50 20.36 50 17.72 50 15 C52.64 15 55.28 15 58 15 C58 16.32 58 17.64 58 19 C58.99 18.505 58.99 18.505 60 18 C61.99960012 17.960008 64.00047242 17.95653201 66 18 C66.05399736 19.45792884 66.09279177 20.91642712 66.125 22.375 C66.14820312 23.18710938 66.17140625 23.99921875 66.1953125 24.8359375 C66 27 66 27 64 29 C62.32320045 28.72209325 60.65796625 28.37421493 59 28 C56.42503371 27.85301387 53.86966263 27.74546333 51.29296875 27.68359375 C50.56757401 27.66281265 49.84217926 27.64203156 49.09480286 27.62062073 C46.79245887 27.55557785 44.49000718 27.49645227 42.1875 27.4375 C40.62043186 27.39427165 39.05337435 27.35065602 37.48632812 27.30664062 C33.65766064 27.19994332 29.8288855 27.09855031 26 27 C26 27.66 26 28.32 26 29 C23.69 29 21.38 29 19 29 C19 28.34 19 27.68 19 27 C17.700625 27.020625 16.40125 27.04125 15.0625 27.0625 C13.70834367 27.08399454 12.35243917 27.07148199 11 27 C10.67 26.67 10.34 26.34 10 26 C9.505 27.485 9.505 27.485 9 29 C7.35425434 29.02688151 5.70838587 29.04634123 4.0625 29.0625 C3.14597656 29.07410156 2.22945312 29.08570313 1.28515625 29.09765625 C-1 29 -1 29 -2 28 C-3.56423432 27.98334926 -5.12935006 28.03691108 -6.69140625 28.12109375 C-7.63564453 28.16943359 -8.57988281 28.21777344 -9.55273438 28.26757812 C-10.54595703 28.32365234 -11.53917969 28.37972656 -12.5625 28.4375 C-13.55958984 28.48970703 -14.55667969 28.54191406 -15.58398438 28.59570312 C-18.05627522 28.7258237 -20.5282063 28.86080181 -23 29 C-23.33 29.99 -23.66 30.98 -24 32 C-30.75 32.125 -30.75 32.125 -33 31 C-33 30.01 -33 29.02 -33 28 C-33.495 27.54625 -33.99 27.0925 -34.5 26.625 C-36 25 -36 25 -36.1875 22.3125 C-36.125625 21.549375 -36.06375 20.78625 -36 20 C-35.01 20 -34.02 20 -33 20 C-32.8453125 20.9590625 -32.8453125 20.9590625 -32.6875 21.9375 C-32.460625 22.618125 -32.23375 23.29875 -32 24 C-31.01 24.33 -30.02 24.66 -29 25 C-29.020625 24.030625 -29.04125 23.06125 -29.0625 22.0625 C-29 19 -29 19 -28 18 C-26.00041636 17.95919217 -23.99954746 17.95745644 -22 18 C-22 19.65 -22 21.3 -22 23 C-21.34 23 -20.68 23 -20 23 C-20 21.35 -20 19.7 -20 18 C-19.34 18 -18.68 18 -18 18 C-18 19.65 -18 21.3 -18 23 C-17.01 23 -16.02 23 -15 23 C-14.896875 22.360625 -14.79375 21.72125 -14.6875 21.0625 C-14.460625 20.381875 -14.23375 19.70125 -14 19 C-13.01 18.67 -12.02 18.34 -11 18 C-11.33 17.01 -11.66 16.02 -12 15 C-11.01 14.67 -10.02 14.34 -9 14 C-8.67 16.97 -8.34 19.94 -8 23 C-7.01 23 -6.02 23 -5 23 C-5 20.03 -5 17.06 -5 14 C-1.535 13.505 -1.535 13.505 2 13 C2.33 11.35 2.66 9.7 3 8 C2.38125 8.185625 1.7625 8.37125 1.125 8.5625 C-1 9 -1 9 -3 8 C-1.125 1.125 -1.125 1.125 0 0 Z " fill="#EEF5F8" transform="translate(36,119)"/>
<path d="M0 0 C1.32 0 2.64 0 4 0 C3.67 1.32 3.34 2.64 3 4 C3.804375 4.226875 4.60875 4.45375 5.4375 4.6875 C6.283125 5.120625 7.12875 5.55375 8 6 C8.8125 8.625 8.8125 8.625 9 11 C10.65 11 12.3 11 14 11 C14 8.69 14 6.38 14 4 C14.66 4 15.32 4 16 4 C16 6.31 16 8.62 16 11 C17.98 11 19.96 11 22 11 C22 7.37 22 3.74 22 0 C24.97 0 27.94 0 31 0 C31 5.94 31 11.88 31 18 C31.66 18.33 32.32 18.66 33 19 C32.01 19.5775 31.02 20.155 30 20.75 C29.01 21.4925 28.02 22.235 27 23 C27 24.32 27 25.64 27 27 C27.66 27 28.32 27 29 27 C29 26.34 29 25.68 29 25 C29.66 25 30.32 25 31 25 C30.34 27.31 29.68 29.62 29 32 C28.34 32 27.68 32 27 32 C26.67 30.35 26.34 28.7 26 27 C24.03243548 27.03122943 24.03243548 27.03122943 22 28 C20.6954344 30.99615946 20.6954344 30.99615946 20 34 C19.01 33.67 18.02 33.34 17 33 C17 33.99 17 34.98 17 36 C20.37503669 34.8141763 22.64722731 33.72426311 25 31 C25.28875 31.804375 25.5775 32.60875 25.875 33.4375 C26.73262568 36.1326468 26.73262568 36.1326468 29 37 C29 41.62 29 46.24 29 51 C28.01 51 27.02 51 26 51 C25.67 47.37 25.34 43.74 25 40 C24.01 39.67 23.02 39.34 22 39 C22 41.97 22 44.94 22 48 C20.68 48 19.36 48 18 48 C18 46.35 18 44.7 18 43 C17.01 43 16.02 43 15 43 C15 44.65 15 46.3 15 48 C14.01 48 13.02 48 12 48 C12 46.35 12 44.7 12 43 C11.34 43 10.68 43 10 43 C10 45.64 10 48.28 10 51 C8.68 51 7.36 51 6 51 C6 48.36 6 45.72 6 43 C5.34 43 4.68 43 4 43 C4 44.65 4 46.3 4 48 C2.68 48 1.36 48 0 48 C0 46.35 0 44.7 0 43 C-0.66 43 -1.32 43 -2 43 C-2 44.65 -2 46.3 -2 48 C-2.99 48 -3.98 48 -5 48 C-5 46.02 -5 44.04 -5 42 C-5.99 41.67 -6.98 41.34 -8 41 C-7.34 41 -6.68 41 -6 41 C-6 40.34 -6 39.68 -6 39 C-6.66 39 -7.32 39 -8 39 C-8.99 35.535 -8.99 35.535 -10 32 C-9.34 32 -8.68 32 -8 32 C-8 29.69 -8 27.38 -8 25 C-7.01 25.33 -6.02 25.66 -5 26 C-5 27.32 -5 28.64 -5 30 C-3.686298 29.3566152 -2.37407102 28.71021785 -1.0625 28.0625 C-0.33160156 27.70285156 0.39929688 27.34320313 1.15234375 26.97265625 C2.96249027 26.13628173 2.96249027 26.13628173 4 25 C5.66617115 24.95936168 7.33388095 24.957279 9 25 C9.66 27.31 10.32 29.62 11 32 C11.31453125 31.4225 11.6290625 30.845 11.953125 30.25 C12.38109375 29.5075 12.8090625 28.765 13.25 28 C13.66765625 27.2575 14.0853125 26.515 14.515625 25.75 C15.00546875 25.1725 15.4953125 24.595 16 24 C17.32 24 18.64 24 20 24 C20.103125 23.443125 20.20625 22.88625 20.3125 22.3125 C21 20 21 20 24 15 C12.78 14.67 1.56 14.34 -10 14 C-10.66 15.32 -11.32 16.64 -12 18 C-13.65 18 -15.3 18 -17 18 C-17 17.01 -17 16.02 -17 15 C-16.34 14.67 -15.68 14.34 -15 14 C-16.32 13.01 -17.64 12.02 -19 11 C-18.25 6.25 -18.25 6.25 -16 4 C-12.875 3.875 -12.875 3.875 -10 4 C-10 6.31 -10 8.62 -10 11 C-9.01 11 -8.02 11 -7 11 C-7 8.69 -7 6.38 -7 4 C-6.01 4 -5.02 4 -4 4 C-4 6.31 -4 8.62 -4 11 C-0.7 11 2.6 11 6 11 C6 10.01 6 9.02 6 8 C3.69 8 1.38 8 -1 8 C-0.67 5.36 -0.34 2.72 0 0 Z " fill="#E6F1F4" transform="translate(181,94)"/>
<path d="M0 0 C2.31 0 4.62 0 7 0 C7 3.96 7 7.92 7 12 C8.32 12 9.64 12 11 12 C11 9.69 11 7.38 11 5 C11.99 5 12.98 5 14 5 C14 7.31 14 9.62 14 12 C15.32 12 16.64 12 18 12 C18.12375 11.21625 18.2475 10.4325 18.375 9.625 C19 7 19 7 21 5 C24.125 4.875 24.125 4.875 27 5 C27 7.31 27 9.62 27 12 C28.32 12 29.64 12 31 12 C31 9.69 31 7.38 31 5 C31.99 5 32.98 5 34 5 C34 7.31 34 9.62 34 12 C35.65 12 37.3 12 39 12 C39 9.69 39 7.38 39 5 C39.99 5 40.98 5 42 5 C42 7.31 42 9.62 42 12 C42.99 12 43.98 12 45 12 C45 8.37 45 4.74 45 1 C45.99 1 46.98 1 48 1 C48 2.32 48 3.64 48 5 C49.3921875 4.9071875 49.3921875 4.9071875 50.8125 4.8125 C54 5 54 5 55.875 6.25 C57 8 57 8 57 12 C58.32 12 59.64 12 61 12 C60.855625 10.741875 60.71125 9.48375 60.5625 8.1875 C60.48128906 7.47980469 60.40007812 6.77210937 60.31640625 6.04296875 C60.02829265 3.80603607 60.02829265 3.80603607 59 1 C61.31 1 63.62 1 66 1 C66 1.99 66 2.98 66 4 C65.34 4 64.68 4 64 4 C64 6.64 64 9.28 64 12 C65.65 12 67.3 12 69 12 C68.98839844 11.21753906 68.97679688 10.43507813 68.96484375 9.62890625 C68.95582031 8.61699219 68.94679688 7.60507813 68.9375 6.5625 C68.92589844 5.55316406 68.91429688 4.54382813 68.90234375 3.50390625 C69 1 69 1 70 0 C73.5 -0.125 73.5 -0.125 77 0 C78 1 78 1 78.09765625 4.16015625 C78.08605469 5.44792969 78.07445313 6.73570313 78.0625 8.0625 C78.05347656 9.35285156 78.04445313 10.64320312 78.03515625 11.97265625 C78.02355469 12.97167969 78.01195313 13.97070312 78 15 C68.0123038 15.06945342 58.02466488 15.12278753 48.03677654 15.15543652 C43.3991869 15.17110494 38.76176225 15.19236458 34.12426758 15.22631836 C29.65037727 15.25887 25.17664583 15.27684415 20.70264626 15.28463173 C18.99416413 15.2901828 17.28569088 15.3010225 15.57727623 15.31719017 C13.18763688 15.33890904 10.79865742 15.34196931 8.40893555 15.34057617 C7.34510399 15.35675491 7.34510399 15.35675491 6.25978088 15.3732605 C3.35245411 15.35487163 1.44424254 15.309978 -0.97868347 13.61933899 C-2 12 -2 12 -1.75 9.75 C-1.5025 8.8425 -1.255 7.935 -1 7 C-0.65596692 4.66822025 -0.32050798 2.33512959 0 0 Z " fill="#76C0B2" transform="translate(36,93)"/>
<path d="M0 0 C1.32 0 2.64 0 4 0 C4 3.3 4 6.6 4 10 C5.32 10 6.64 10 8 10 C8 8.02 8 6.04 8 4 C9.32 4 10.64 4 12 4 C12 5.98 12 7.96 12 10 C14.97 10 17.94 10 21 10 C20.67 9.34 20.34 8.68 20 8 C17.47266765 7.34444881 17.47266765 7.34444881 15 7 C15 6.01 15 5.02 15 4 C19.18524749 3.91793632 22.91081136 4.15810822 27 5 C27.33 4.67 27.66 4.34 28 4 C29.99958364 3.95919217 32.00045254 3.95745644 34 4 C34 6.31 34 8.62 34 11 C35.32 11 36.64 11 38 11 C38 7.37 38 3.74 38 0 C38.99 0 39.98 0 41 0 C41 4.62 41 9.24 41 14 C38.69 14 36.38 14 34 14 C33.34 15.32 32.68 16.64 32 18 C29.6875 18.1875 29.6875 18.1875 27 18 C25.33203125 16.48828125 25.33203125 16.48828125 24 15 C21.14031897 21.2989104 21.14031897 21.2989104 22 28 C22.66 28 23.32 28 24 28 C24 27.01 24 26.02 24 25 C24.66 25 25.32 25 26 25 C26 27.31 26 29.62 26 32 C25.34 32 24.68 32 24 32 C24 31.34 24 30.68 24 30 C23.34 30 22.68 30 22 30 C22 30.99 22 31.98 22 33 C20.0625 32.625 20.0625 32.625 18 32 C17.67 31.34 17.34 30.68 17 30 C16.34 30 15.68 30 15 30 C15 30.66 15 31.32 15 32 C13.35 32 11.7 32 10 32 C9.375 29.6875 9.375 29.6875 9 27 C9.66 26.01 10.32 25.02 11 24 C11.99 24 12.98 24 14 24 C14 22.35 14 20.7 14 19 C12.68 19 11.36 19 10 19 C9.67 19.66 9.34 20.32 9 21 C7.5 19.6875 7.5 19.6875 6 18 C6 17.01 6 16.02 6 15 C3.03 14.505 3.03 14.505 0 14 C0 9.38 0 4.76 0 0 Z " fill="#E3F4F3" transform="translate(119,94)"/>
<path d="M0 0 C0.66 0 1.32 0 2 0 C2 2.64 2 5.28 2 8 C2.99 8 3.98 8 5 8 C4.67 6.68 4.34 5.36 4 4 C7 2 7 2 9.6875 2.375 C10.8321875 2.684375 10.8321875 2.684375 12 3 C12.495 4.485 12.495 4.485 13 6 C12.67 6.66 12.34 7.32 12 8 C13.32 8 14.64 8 16 8 C16 6.35 16 4.7 16 3 C16.66 3 17.32 3 18 3 C18 4.65 18 6.3 18 8 C19.65 8 21.3 8 23 8 C23 5.36 23 2.72 23 0 C25.64 0 28.28 0 31 0 C31 1.32 31 2.64 31 4 C31.66 3.67 32.32 3.34 33 3 C34.99960012 2.960008 37.00047242 2.95653201 39 3 C39.05399736 4.45792884 39.09279177 5.91642712 39.125 7.375 C39.14820313 8.18710938 39.17140625 8.99921875 39.1953125 9.8359375 C39 12 39 12 37 14 C35.32320045 13.72209325 33.65796625 13.37421493 32 13 C29.42503371 12.85301387 26.86966263 12.74546333 24.29296875 12.68359375 C23.56757401 12.66281265 22.84217926 12.64203156 22.09480286 12.62062073 C19.79245887 12.55557785 17.49000718 12.49645227 15.1875 12.4375 C13.62043186 12.39427165 12.05337435 12.35065602 10.48632812 12.30664062 C6.65766064 12.19994332 2.8288855 12.09855031 -1 12 C-1 12.66 -1 13.32 -1 14 C-3.31 14 -5.62 14 -8 14 C-8 13.34 -8 12.68 -8 12 C-9.299375 12.020625 -10.59875 12.04125 -11.9375 12.0625 C-13.29165633 12.08399454 -14.64756083 12.07148199 -16 12 C-16.33 11.67 -16.66 11.34 -17 11 C-17.33 11.99 -17.66 12.98 -18 14 C-18.99 14 -19.98 14 -21 14 C-21 12.35 -21 10.7 -21 9 C-20.0409375 8.5978125 -20.0409375 8.5978125 -19.0625 8.1875 C-16.66868314 7.11332248 -16.66868314 7.11332248 -16 4 C-14.35 4 -12.7 4 -11 4 C-10.34 5.32 -9.68 6.64 -9 8 C-8.01 8 -7.02 8 -6 8 C-6 6.35 -6 4.7 -6 3 C-5.34 3 -4.68 3 -4 3 C-4 4.65 -4 6.3 -4 8 C-2.68 8 -1.36 8 0 8 C0 5.36 0 2.72 0 0 Z " fill="#18568A" transform="translate(63,134)"/>
<path d="M0 0 C1.65 0.33 3.3 0.66 5 1 C5.33 4.3 5.66 7.6 6 11 C4.68 10.67 3.36 10.34 2 10 C1.67 19.57 1.34 29.14 1 39 C-0.98 39.495 -0.98 39.495 -3 40 C-5 38 -5 38 -5.1953125 36.0546875 C-5.09765625 33.02734375 -5.09765625 33.02734375 -5 30 C-5.99 30 -6.98 30 -8 30 C-7.74562289 32.62756588 -7.47235799 35.25071774 -7.1875 37.875 C-7.11724609 38.62136719 -7.04699219 39.36773437 -6.97460938 40.13671875 C-6.75289777 42.10551777 -6.38420661 44.05636658 -6 46 C-5.01 46.66 -4.02 47.32 -3 48 C-2.67 46.35 -2.34 44.7 -2 43 C8.23 43 18.46 43 29 43 C28.505 39.535 28.505 39.535 28 36 C29.98 35.505 29.98 35.505 32 35 C32 38.63 32 42.26 32 46 C16.655 46.495 16.655 46.495 1 47 C1.66 48.65 2.32 50.3 3 52 C6.05272465 52.89830839 6.05272465 52.89830839 9 53 C9.33 54.65 9.66 56.3 10 58 C6.48046264 59.17317912 4.72027377 58.64240132 1.3359375 57.27734375 C-3.92668441 54.39962241 -10.0540675 50.18797442 -11.8125 44.26171875 C-12.04747666 40.17410398 -11.86324852 36.20411784 -11.5625 32.125 C-11.51029297 31.34125 -11.45808594 30.5575 -11.40429688 29.75 C-11.27571149 27.8329088 -11.13871383 25.91638497 -11 24 C-10.01 24 -9.02 24 -8 24 C-8 25.32 -8 26.64 -8 28 C-7.34 28 -6.68 28 -6 28 C-6 26.02 -6 24.04 -6 22 C-5.34 21.67 -4.68 21.34 -4 21 C-4.66 20.34 -5.32 19.68 -6 19 C-6.66 20.32 -7.32 21.64 -8 23 C-8.66 22.67 -9.32 22.34 -10 22 C-9.34 20.35 -8.68 18.7 -8 17 C-6.35 17.33 -4.7 17.66 -3 18 C-1.75106883 24.24465583 -1.45372433 30.64785943 -1 37 C-0.67 24.79 -0.34 12.58 0 0 Z " fill="#DCF0F9" transform="translate(113,24)"/>
<path d="M0 0 C0 0.99 0 1.98 0 3 C-1.65 3 -3.3 3 -5 3 C-5 3.66 -5 4.32 -5 5 C-3.35 4.67 -1.7 4.34 0 4 C0 6.97 0 9.94 0 13 C-4.27343092 13.36629408 -6.48812804 12.40814077 -10 10 C-10.33 11.65 -10.66 13.3 -11 15 C-11.7425 15.12375 -12.485 15.2475 -13.25 15.375 C-15.80141485 15.95486701 -17.7267573 16.73708739 -20 18 C-20.495 16.515 -20.495 16.515 -21 15 C-22.65 15 -24.3 15 -26 15 C-26.33 15.99 -26.66 16.98 -27 18 C-29.0625 18.6875 -29.0625 18.6875 -31 19 C-31 18.34 -31 17.68 -31 17 C-32.03125 17.20625 -33.0625 17.4125 -34.125 17.625 C-38.1234216 18.01194403 -40.33693757 17.51883076 -44 16 C-44 15.34 -44 14.68 -44 14 C-46.64 13.34 -49.28 12.68 -52 12 C-52.625 9.6875 -52.625 9.6875 -53 7 C-52.34 6.01 -51.68 5.02 -51 4 C-51 3.01 -51 2.02 -51 1 C-49.35 1 -47.7 1 -46 1 C-45.67 3.97 -45.34 6.94 -45 10 C-44.01 10 -43.02 10 -42 10 C-42 8.35 -42 6.7 -42 5 C-41.34 5 -40.68 5 -40 5 C-40 6.65 -40 8.3 -40 10 C-38.68 10 -37.36 10 -36 10 C-36 8.35 -36 6.7 -36 5 C-35.34 5 -34.68 5 -34 5 C-34 7.64 -34 10.28 -34 13 C-32.68 13 -31.36 13 -30 13 C-30 10.36 -30 7.72 -30 5 C-29.34 5 -28.68 5 -28 5 C-28 6.65 -28 8.3 -28 10 C-27.01 10 -26.02 10 -25 10 C-25 8.35 -25 6.7 -25 5 C-24.01 5 -23.02 5 -22 5 C-22 6.65 -22 8.3 -22 10 C-20.68 10 -19.36 10 -18 10 C-18 7.03 -18 4.06 -18 1 C-16.68 1.33 -15.36 1.66 -14 2 C-14 5.63 -14 9.26 -14 13 C-13.01 13 -12.02 13 -11 13 C-11 9.37 -11 5.74 -11 2 C-6.89657963 -0.38570952 -4.61380251 -1.49270081 0 0 Z " fill="#EBFAFD" transform="translate(221,132)"/>
<path d="M0 0 C0.495 1.98 0.495 1.98 1 4 C3.64 4 6.28 4 9 4 C9.05399736 5.45792884 9.09279177 6.91642712 9.125 8.375 C9.14820313 9.18710938 9.17140625 9.99921875 9.1953125 10.8359375 C9 13 9 13 7 15 C1.80602577 15.25544136 -3.24699073 15.37650463 -8 13 C-9.81171098 12.84693099 -11.6283794 12.75053339 -13.4453125 12.68359375 C-14.52167969 12.64169922 -15.59804687 12.59980469 -16.70703125 12.55664062 C-18.39892578 12.49766602 -18.39892578 12.49766602 -20.125 12.4375 C-21.26066406 12.39431641 -22.39632812 12.35113281 -23.56640625 12.30664062 C-26.37747768 12.2003396 -29.18863945 12.09830595 -32 12 C-32 12.99 -32 13.98 -32 15 C-33.98 15 -35.96 15 -38 15 C-38 14.34 -38 13.68 -38 13 C-39.299375 13.020625 -40.59875 13.04125 -41.9375 13.0625 C-43.29165633 13.08399454 -44.64756083 13.07148199 -46 13 C-46.33 12.67 -46.66 12.34 -47 12 C-47.33 12.99 -47.66 13.98 -48 15 C-48.99 15 -49.98 15 -51 15 C-51 13.35 -51 11.7 -51 10 C-50.0409375 9.5978125 -50.0409375 9.5978125 -49.0625 9.1875 C-46.66868314 8.11332248 -46.66868314 8.11332248 -46 5 C-44.35 5 -42.7 5 -41 5 C-40.34 6.32 -39.68 7.64 -39 9 C-38.01 9 -37.02 9 -36 9 C-36 7.35 -36 5.7 -36 4 C-35.34 4 -34.68 4 -34 4 C-34 5.65 -34 7.3 -34 9 C-32.68 9 -31.36 9 -30 9 C-30 6.36 -30 3.72 -30 1 C-29.34 1 -28.68 1 -28 1 C-28 3.64 -28 6.28 -28 9 C-27.01 9 -26.02 9 -25 9 C-25.33 7.68 -25.66 6.36 -26 5 C-23 3 -23 3 -20.3125 3.375 C-19.1678125 3.684375 -19.1678125 3.684375 -18 4 C-17.505 5.485 -17.505 5.485 -17 7 C-17.33 7.66 -17.66 8.32 -18 9 C-16.68 9 -15.36 9 -14 9 C-14 7.35 -14 5.7 -14 4 C-13.34 4 -12.68 4 -12 4 C-12 5.65 -12 7.3 -12 9 C-10.35 9 -8.7 9 -7 9 C-7 6.36 -7 3.72 -7 1 C-4.50935112 0.31292445 -2.62113708 0 0 0 Z " fill="#16568D" transform="translate(156,133)"/>
<path d="M0 0 C1.32 0 2.64 0 4 0 C3.67 1.32 3.34 2.64 3 4 C3.804375 4.226875 4.60875 4.45375 5.4375 4.6875 C6.283125 5.120625 7.12875 5.55375 8 6 C8.8125 8.625 8.8125 8.625 9 11 C10.65 11 12.3 11 14 11 C14 8.69 14 6.38 14 4 C14.66 4 15.32 4 16 4 C16 6.31 16 8.62 16 11 C17.98 11 19.96 11 22 11 C22 7.37 22 3.74 22 0 C22.99 0 23.98 0 25 0 C25 4.62 25 9.24 25 14 C13.45 14 1.9 14 -10 14 C-10.66 15.32 -11.32 16.64 -12 18 C-13.65 18 -15.3 18 -17 18 C-17 17.01 -17 16.02 -17 15 C-16.34 14.67 -15.68 14.34 -15 14 C-16.32 13.01 -17.64 12.02 -19 11 C-18.25 6.25 -18.25 6.25 -16 4 C-12.875 3.875 -12.875 3.875 -10 4 C-10 6.31 -10 8.62 -10 11 C-9.01 11 -8.02 11 -7 11 C-7 8.69 -7 6.38 -7 4 C-6.01 4 -5.02 4 -4 4 C-4 6.31 -4 8.62 -4 11 C-0.7 11 2.6 11 6 11 C6 10.01 6 9.02 6 8 C3.69 8 1.38 8 -1 8 C-0.67 5.36 -0.34 2.72 0 0 Z " fill="#79C2B4" transform="translate(181,94)"/>
<path d="M0 0 C0 5.94 0 11.88 0 18 C0.66 18.33 1.32 18.66 2 19 C1.01 19.5775 0.02 20.155 -1 20.75 C-2.485 21.86375 -2.485 21.86375 -4 23 C-4 24.32 -4 25.64 -4 27 C-3.34 27 -2.68 27 -2 27 C-2 26.34 -2 25.68 -2 25 C-1.34 25 -0.68 25 0 25 C-0.66 27.31 -1.32 29.62 -2 32 C-2.66 32 -3.32 32 -4 32 C-4.33 30.35 -4.66 28.7 -5 27 C-6.32 27.33 -7.64 27.66 -9 28 C-9.33 29.32 -9.66 30.64 -10 32 C-11.98 32 -13.96 32 -16 32 C-16.625 29.6875 -16.625 29.6875 -17 27 C-16.01 25.515 -16.01 25.515 -15 24 C-13.68 24 -12.36 24 -11 24 C-10.8453125 23.1646875 -10.8453125 23.1646875 -10.6875 22.3125 C-10 20 -10 20 -8.4921875 17.80859375 C-6.6401077 14.3226111 -6.56484854 11.67726454 -6.4375 7.75 C-6.36036075 5.49659882 -6.23190874 3.24276296 -6 1 C-4 0 -4 0 0 0 Z " fill="#D9EBE8" transform="translate(212,94)"/>
<path d="M0 0 C9.9 0 19.8 0 30 0 C30 0.33 30 0.66 30 1 C29.13048706 1.03758423 29.13048706 1.03758423 28.2434082 1.07592773 C25.59957893 1.19246234 22.95605591 1.31492682 20.3125 1.4375 C18.94448242 1.49647461 18.94448242 1.49647461 17.54882812 1.55664062 C16.66259766 1.59853516 15.77636719 1.64042969 14.86328125 1.68359375 C13.64572144 1.73858032 13.64572144 1.73858032 12.40356445 1.79467773 C9.87855515 2.01037431 7.47399303 2.45899452 5 3 C4.34 5.31 3.68 7.62 3 10 C4.98 10 6.96 10 9 10 C9 10.33 9 10.66 9 11 C7.35 11 5.7 11 4 11 C4 13.31 4 15.62 4 18 C1.36 18.99 -1.28 19.98 -4 21 C-4 21.99 -4 22.98 -4 24 C-5.32 24 -6.64 24 -8 24 C-7.34 22.02 -6.68 20.04 -6 18 C-4.35 18.33 -2.7 18.66 -1 19 C-1 16.36 -1 13.72 -1 11 C-1.99 11.33 -2.98 11.66 -4 12 C-4.73323796 14.01508358 -4.73323796 14.01508358 -5 16 C-6.65 16 -8.3 16 -10 16 C-10.875 13.5 -10.875 13.5 -11 10 C-9.29572101 7.07388408 -7.22725962 4.54359505 -5 2 C-4.67 2.66 -4.34 3.32 -4 4 C-2.68 4 -1.36 4 0 4 C0 2.68 0 1.36 0 0 Z " fill="#F2F8F8" transform="translate(78,108)"/>
<path d="M0 0 C4.55555556 0.55555556 4.55555556 0.55555556 6 2 C6.08651611 3.41570123 6.10704904 4.835595 6.09765625 6.25390625 C6.09443359 7.10791016 6.09121094 7.96191406 6.08789062 8.84179688 C6.07951172 9.73962891 6.07113281 10.63746094 6.0625 11.5625 C6.05798828 12.46419922 6.05347656 13.36589844 6.04882812 14.29492188 C6.03700225 16.53001314 6.0205222 18.76497437 6 21 C5.34 21 4.68 21 4 21 C3.67 15.06 3.34 9.12 3 3 C2.34 2.67 1.68 2.34 1 2 C1 15.86 1 29.72 1 44 C-0.65 44 -2.3 44 -4 44 C-6 42 -6 42 -6.22705078 39.75341797 C-6.21657715 38.84221191 -6.20610352 37.93100586 -6.1953125 36.9921875 C-6.18886719 36.00605469 -6.18242188 35.01992188 -6.17578125 34.00390625 C-6.15902344 32.97136719 -6.14226562 31.93882813 -6.125 30.875 C-6.11597656 29.83472656 -6.10695313 28.79445313 -6.09765625 27.72265625 C-6.07403747 25.14820908 -6.04110149 22.57421788 -6 20 C-5.34 20 -4.68 20 -4 20 C-4 26.93 -4 33.86 -4 41 C-3.34 41 -2.68 41 -2 41 C-2.01047363 39.82904785 -2.02094727 38.6580957 -2.03173828 37.45166016 C-2.06787497 33.11689295 -2.09087733 28.78213911 -2.10986328 24.44726562 C-2.11993534 22.56931318 -2.13359362 20.69137647 -2.15087891 18.81347656 C-2.17507453 16.1177991 -2.18647083 13.42232854 -2.1953125 10.7265625 C-2.20563507 9.88380768 -2.21595764 9.04105286 -2.22659302 8.17276001 C-2.22699144 6.11378753 -2.12257588 4.05532065 -2 2 C-1.34 1.34 -0.68 0.68 0 0 Z " fill="#6793B7" transform="translate(122,18)"/>
<path d="M0 0 C1.32 0 2.64 0 4 0 C4.33 1.65 4.66 3.3 5 5 C8.465 4.505 8.465 4.505 12 4 C12 5.65 12 7.3 12 9 C11.01 9 10.02 9 9 9 C8.67 11.31 8.34 13.62 8 16 C9.65 16.33 11.3 16.66 13 17 C13 16.34 13 15.68 13 15 C13.99 14.67 14.98 14.34 16 14 C16 14.99 16 15.98 16 17 C16.66 17 17.32 17 18 17 C17.67 19.97 17.34 22.94 17 26 C14.03 26.33 11.06 26.66 8 27 C8 26.01 8 25.02 8 24 C7.34 23.67 6.68 23.34 6 23 C6.33 22.34 6.66 21.68 7 21 C6.60061233 18.90178785 6.60061233 18.90178785 6 17 C5.67 18.32 5.34 19.64 5 21 C3.68 21 2.36 21 1 21 C1 20.34 1 19.68 1 19 C1.66 19 2.32 19 3 19 C3 15.7 3 12.4 3 9 C1.68 8.67 0.36 8.34 -1 8 C-1.125 2.25 -1.125 2.25 0 0 Z " fill="#F4F7F7" transform="translate(121,109)"/>
<path d="M0 0 C0.66 0 1.32 0 2 0 C2.33 2.97 2.66 5.94 3 9 C3.99 9 4.98 9 6 9 C6 6.03 6 3.06 6 0 C6.99 0 7.98 0 9 0 C9 3.96 9 7.92 9 12 C1.41 12 -6.18 12 -14 12 C-14.33 10.35 -14.66 8.7 -15 7 C-15.33 8.98 -15.66 10.96 -16 13 C-18.64 13 -21.28 13 -24 13 C-24.33 10.69 -24.66 8.38 -25 6 C-24.01 6 -23.02 6 -22 6 C-21.8453125 6.9590625 -21.8453125 6.9590625 -21.6875 7.9375 C-21.460625 8.618125 -21.23375 9.29875 -21 10 C-20.01 10.33 -19.02 10.66 -18 11 C-18.020625 10.030625 -18.04125 9.06125 -18.0625 8.0625 C-18 5 -18 5 -17 4 C-15.00041636 3.95919217 -12.99954746 3.95745644 -11 4 C-11 5.65 -11 7.3 -11 9 C-10.34 9 -9.68 9 -9 9 C-9 7.35 -9 5.7 -9 4 C-8.34 4 -7.68 4 -7 4 C-7 5.65 -7 7.3 -7 9 C-6.01 9 -5.02 9 -4 9 C-3.896875 8.360625 -3.79375 7.72125 -3.6875 7.0625 C-3.460625 6.381875 -3.23375 5.70125 -3 5 C-2.01 4.67 -1.02 4.34 0 4 C-0.33 3.01 -0.66 2.02 -1 1 C-0.67 0.67 -0.34 0.34 0 0 Z " fill="#4075A0" transform="translate(25,133)"/>
<path d="M0 0 C0.66 0 1.32 0 2 0 C2.33 0.99 2.66 1.98 3 3 C4.32 2.67 5.64 2.34 7 2 C7.33 2.99 7.66 3.98 8 5 C6.68 5.33 5.36 5.66 4 6 C3.67 17.55 3.34 29.1 3 41 C2.34 41 1.68 41 1 41 C1 36.05 1 31.1 1 26 C0.34 26.33 -0.32 26.66 -1 27 C-0.67 31.62 -0.34 36.24 0 41 C1.65 41 3.3 41 5 41 C5 41.66 5 42.32 5 43 C3.0085944 43.38133299 1.00720923 43.71325582 -1 44 C-2.94090826 42.05909174 -2.39919435 38.52706098 -2.5625 35.9375 C-2.64628906 34.64714844 -2.73007813 33.35679688 -2.81640625 32.02734375 C-2.87699219 31.02832031 -2.93757813 30.02929688 -3 29 C-3.33 29 -3.66 29 -4 29 C-4 19.76 -4 10.52 -4 1 C-3.01 1.33 -2.02 1.66 -1 2 C-1 7.94 -1 13.88 -1 20 C-0.34 20 0.32 20 1 20 C0.67 13.4 0.34 6.8 0 0 Z " fill="#DAEDF5" transform="translate(127,19)"/>
<path d="M0 0 C1.32 0 2.64 0 4 0 C4 3.3 4 6.6 4 10 C5.32 10 6.64 10 8 10 C8 8.02 8 6.04 8 4 C9.32 4 10.64 4 12 4 C12 5.98 12 7.96 12 10 C14.97 10 17.94 10 21 10 C20.67 9.34 20.34 8.68 20 8 C17.47266765 7.34444881 17.47266765 7.34444881 15 7 C15 6.01 15 5.02 15 4 C18.375 3.875 18.375 3.875 22 4 C24 6 24 6 24.1875 9.5625 C24 13 24 13 23 14 C21.29227642 14.08713831 19.58101351 14.10700007 17.87109375 14.09765625 C16.31938477 14.09282227 16.31938477 14.09282227 14.73632812 14.08789062 C13.64771484 14.07951172 12.55910156 14.07113281 11.4375 14.0625 C9.7987793 14.05573242 9.7987793 14.05573242 8.12695312 14.04882812 C5.41794568 14.0369984 2.7089662 14.01906231 0 14 C0 9.38 0 4.76 0 0 Z " fill="#80C5B9" transform="translate(119,94)"/>
<path d="M0 0 C1.65 0.33 3.3 0.66 5 1 C5.33 4.3 5.66 7.6 6 11 C4.68 10.67 3.36 10.34 2 10 C1.67 19.57 1.34 29.14 1 39 C-0.98 39.495 -0.98 39.495 -3 40 C-5 38 -5 38 -5.1953125 36.0546875 C-5.09765625 33.02734375 -5.09765625 33.02734375 -5 30 C-6.32 30 -7.64 30 -9 30 C-9 33.63 -9 37.26 -9 41 C-9.66 41 -10.32 41 -11 41 C-11 35.39 -11 29.78 -11 24 C-10.01 24 -9.02 24 -8 24 C-8 25.32 -8 26.64 -8 28 C-7.34 28 -6.68 28 -6 28 C-6 26.02 -6 24.04 -6 22 C-5.34 21.67 -4.68 21.34 -4 21 C-4.66 20.34 -5.32 19.68 -6 19 C-6.66 20.32 -7.32 21.64 -8 23 C-8.66 22.67 -9.32 22.34 -10 22 C-9.34 20.35 -8.68 18.7 -8 17 C-6.35 17.33 -4.7 17.66 -3 18 C-1.75106883 24.24465583 -1.45372433 30.64785943 -1 37 C-0.67 24.79 -0.34 12.58 0 0 Z " fill="#7B9EBC" transform="translate(113,24)"/>
<path d="M0 0 C1.98 0 3.96 0 6 0 C6 1.32 6 2.64 6 4 C6.66 3.67 7.32 3.34 8 3 C9.99960012 2.960008 12.00047242 2.95653201 14 3 C14.05399736 4.45792884 14.09279177 5.91642712 14.125 7.375 C14.14820313 8.18710938 14.17140625 8.99921875 14.1953125 9.8359375 C14 12 14 12 12 14 C10.32320045 13.72209325 8.65796625 13.37421493 7 13 C4.42503371 12.85301387 1.86966263 12.74546333 -0.70703125 12.68359375 C-1.79512337 12.6524221 -1.79512337 12.6524221 -2.90519714 12.62062073 C-5.20754113 12.55557785 -7.50999282 12.49645227 -9.8125 12.4375 C-11.37956814 12.39427165 -12.94662565 12.35065602 -14.51367188 12.30664062 C-18.34233936 12.19994332 -22.1711145 12.09855031 -26 12 C-26.33 12.66 -26.66 13.32 -27 14 C-27 13.01 -27 12.02 -27 11 C-18.09 11 -9.18 11 0 11 C0 7.37 0 3.74 0 0 Z " fill="#DCF4FC" transform="translate(88,134)"/>
<path d="M0 0 C1.32 0 2.64 0 4 0 C4 4.95 4 9.9 4 15 C1.525 14.505 1.525 14.505 -1 14 C-2.69442701 13.98524567 -4.39011708 14.02767518 -6.08203125 14.12109375 C-7.47905273 14.19360352 -7.47905273 14.19360352 -8.90429688 14.26757812 C-9.86400391 14.32365234 -10.82371094 14.37972656 -11.8125 14.4375 C-12.79154297 14.48970703 -13.77058594 14.54191406 -14.77929688 14.59570312 C-17.1865609 14.72487339 -19.59335638 14.85981643 -22 15 C-22.33 15.99 -22.66 16.98 -23 18 C-29.75 18.125 -29.75 18.125 -32 17 C-32 15.68 -32 14.36 -32 13 C-30.02 13 -28.04 13 -26 13 C-26 11.02 -26 9.04 -26 7 C-25.34 6.67 -24.68 6.34 -24 6 C-24 7.98 -24 9.96 -24 12 C-16.41 12 -8.82 12 -1 12 C-1 8.37 -1 4.74 -1 1 C-0.67 0.67 -0.34 0.34 0 0 Z " fill="#E5F8FE" transform="translate(35,133)"/>
<path d="M0 0 C0.33 1.32 0.66 2.64 1 4 C3.64 4 6.28 4 9 4 C9.05399736 5.45792884 9.09279177 6.91642712 9.125 8.375 C9.14820313 9.18710938 9.17140625 9.99921875 9.1953125 10.8359375 C9 13 9 13 7 15 C1.80602577 15.25544136 -3.24699073 15.37650463 -8 13 C-7.01 12.67 -6.02 12.34 -5 12 C-5 8.37 -5 4.74 -5 1 C-3 0 -3 0 0 0 Z " fill="#D8F1FE" transform="translate(156,133)"/>
<path d="M0 0 C1.65 0 3.3 0 5 0 C5.33 2.97 5.66 5.94 6 9 C6.99 9 7.98 9 9 9 C9 7.35 9 5.7 9 4 C9.66 4 10.32 4 11 4 C11 5.65 11 7.3 11 9 C12.32 9 13.64 9 15 9 C15 7.35 15 5.7 15 4 C15.66 4 16.32 4 17 4 C17 7.96 17 11.92 17 16 C12.59232396 17.10191901 11.1077065 16.58706842 7 15 C7 14.34 7 13.68 7 13 C4.36 12.34 1.72 11.68 -1 11 C-1.625 8.6875 -1.625 8.6875 -2 6 C-1.34 5.01 -0.68 4.02 0 3 C0 2.01 0 1.02 0 0 Z " fill="#3F719C" transform="translate(170,133)"/>
<path d="M0 0 C1.5 1.375 1.5 1.375 3 3 C3 3.66 3 4.32 3 5 C3.66 5.33 4.32 5.66 5 6 C5 10.62 5 15.24 5 20 C4.01 20 3.02 20 2 20 C1.67 16.37 1.34 12.74 1 9 C0.01 8.67 -0.98 8.34 -2 8 C-2 10.97 -2 13.94 -2 17 C-3.32 17 -4.64 17 -6 17 C-6 15.35 -6 13.7 -6 12 C-6.99 12 -7.98 12 -9 12 C-9 13.65 -9 15.3 -9 17 C-9.99 17 -10.98 17 -12 17 C-12 15.35 -12 13.7 -12 12 C-12.66 11.67 -13.32 11.34 -14 11 C-13.34 10.34 -12.68 9.68 -12 9 C-11.67 8.34 -11.34 7.68 -11 7 C-9.700625 6.87625 -8.40125 6.7525 -7.0625 6.625 C-4.91451744 6.45717416 -4.91451744 6.45717416 -3 6 C-1.45599341 4.16427296 -1.45599341 4.16427296 -1 2 C-0.67 1.34 -0.34 0.68 0 0 Z " fill="#B4CBDB" transform="translate(205,125)"/>
<path d="M0 0 C0.33 0 0.66 0 1 0 C1.33 7.59 1.66 15.18 2 23 C3.98 23.66 5.96 24.32 8 25 C8 25.33 8 25.66 8 26 C6.35 26 4.7 26 3 26 C3 26.66 3 27.32 3 28 C6.62493334 28.05787784 10.24974857 28.0935542 13.875 28.125 C15.42380859 28.15013672 15.42380859 28.15013672 17.00390625 28.17578125 C17.99003906 28.18222656 18.97617188 28.18867187 19.9921875 28.1953125 C20.90339355 28.20578613 21.81459961 28.21625977 22.75341797 28.22705078 C25.20290436 28.21870993 25.20290436 28.21870993 27 26 C27 27.32 27 28.64 27 30 C16.77 30 6.54 30 -4 30 C-4.495 32.475 -4.495 32.475 -5 35 C-6.9375 34.3125 -6.9375 34.3125 -9 33 C-10.02055289 29.37703724 -10.1076402 25.93413629 -10.0625 22.1875 C-10.05347656 21.21167969 -10.04445313 20.23585938 -10.03515625 19.23046875 C-10.02355469 18.49441406 -10.01195313 17.75835937 -10 17 C-9.01 17 -8.02 17 -7 17 C-6.67 19.64 -6.34 22.28 -6 25 C-4.05396726 25.59070014 -4.05396726 25.59070014 -2 26 C-0.25493385 24.25493385 -0.76717216 21.80960857 -0.68359375 19.43359375 C-0.64169922 18.30888672 -0.59980469 17.18417969 -0.55664062 16.02539062 C-0.51732422 14.84138672 -0.47800781 13.65738281 -0.4375 12.4375 C-0.39431641 11.24962891 -0.35113281 10.06175781 -0.30664062 8.83789062 C-0.20016454 5.89205216 -0.09815159 2.9461257 0 0 Z " fill="#E4FBFE" transform="translate(115,37)"/>
<path d="M0 0 C-0.33 3.63 -0.66 7.26 -1 11 C-0.34 11 0.32 11 1 11 C1 7.04 1 3.08 1 -1 C1.99 -1 2.98 -1 4 -1 C4.02693575 1.12493141 4.04636628 3.24995912 4.0625 5.375 C4.07410156 6.55835938 4.08570313 7.74171875 4.09765625 8.9609375 C4 12 4 12 3 14 C0.34624517 14.07582157 -1.96090609 14.00858159 -4.5625 13.4375 C-7.10269391 12.98156776 -8.57892488 13.19297496 -11 14 C-11 13.01 -11 12.02 -11 11 C-10.34 11 -9.68 11 -9 11 C-9 7.7 -9 4.4 -9 1 C-5.19495213 -0.79682816 -4.29399165 -1.07349791 0 0 Z " fill="#90B4CE" transform="translate(233,134)"/>
<path d="M0 0 C0.99 0 1.98 0 3 0 C3 4.62 3 9.24 3 14 C0.69 14 -1.62 14 -4 14 C-4.66 15.32 -5.32 16.64 -6 18 C-7.65 18 -9.3 18 -11 18 C-11 17.01 -11 16.02 -11 15 C-10.34 14.67 -9.68 14.34 -9 14 C-10.32 13.01 -11.64 12.02 -13 11 C-12.25 6.25 -12.25 6.25 -10 4 C-6.875 3.875 -6.875 3.875 -4 4 C-4 6.31 -4 8.62 -4 11 C-2.68 11 -1.36 11 0 11 C0 7.37 0 3.74 0 0 Z " fill="#73C2B3" transform="translate(157,94)"/>
<path d="M0 0 C0.66 0 1.32 0 2 0 C2 1.98 2 3.96 2 6 C5.43793339 5.81870185 5.43793339 5.81870185 9 5 C10.1500831 3.03327085 10.1500831 3.03327085 11 1 C13.87939419 0.06419689 15.25509788 -0.37245106 18 1 C18 1.66 18 2.32 18 3 C19.65 3 21.3 3 23 3 C22.01 3.495 22.01 3.495 21 4 C21 6.64 21 9.28 21 12 C19.35 12 17.7 12 16 12 C16 10.35 16 8.7 16 7 C15.34 7 14.68 7 14 7 C14 8.65 14 10.3 14 12 C12.68 12 11.36 12 10 12 C9.67 10.35 9.34 8.7 9 7 C7.02 7.33 5.04 7.66 3 8 C3 9.32 3 10.64 3 12 C2.01 12 1.02 12 0 12 C0 9.36 0 6.72 0 4 C-0.66 3.67 -1.32 3.34 -2 3 C-1.34 2.01 -0.68 1.02 0 0 Z " fill="#E2F3FA" transform="translate(65,130)"/>
<path d="M0 0 C0.66 0 1.32 0 2 0 C2 12.21 2 24.42 2 37 C1.01 37.495 1.01 37.495 0 38 C0 33.38 0 28.76 0 24 C-0.99 23.67 -1.98 23.34 -3 23 C-2.01 23 -1.02 23 0 23 C-0.70339566 20.49034386 -0.70339566 20.49034386 -2 18 C-4.04105639 17.11306697 -4.04105639 17.11306697 -6 17 C-6.38218767 18.65614657 -6.71395102 20.32457024 -7 22 C-6.67 22.33 -6.34 22.66 -6 23 C-5.87625 22.360625 -5.7525 21.72125 -5.625 21.0625 C-5.41875 20.381875 -5.2125 19.70125 -5 19 C-4.34 18.67 -3.68 18.34 -3 18 C-2.34 19.32 -1.68 20.64 -1 22 C-1.99 22 -2.98 22 -4 22 C-4 23.98 -4 25.96 -4 28 C-4.66 28 -5.32 28 -6 28 C-6 26.68 -6 25.36 -6 24 C-6.99 24 -7.98 24 -9 24 C-9 24.99 -9 25.98 -9 27 C-8.34 27.33 -7.68 27.66 -7 28 C-7.66 28 -8.32 28 -9 28 C-9 31.96 -9 35.92 -9 40 C-9.33 40 -9.66 40 -10 40 C-10.02895225 36.70835171 -10.0467823 33.41673601 -10.0625 30.125 C-10.07506836 28.71927734 -10.07506836 28.71927734 -10.08789062 27.28515625 C-10.09111328 26.38925781 -10.09433594 25.49335937 -10.09765625 24.5703125 C-10.10289307 23.74289551 -10.10812988 22.91547852 -10.11352539 22.06298828 C-10 20 -10 20 -9 18 C-8.34 18 -7.68 18 -7 18 C-7 17.34 -7 16.68 -7 16 C-5.02 16 -3.04 16 -1 16 C-0.67 10.72 -0.34 5.44 0 0 Z " fill="#AED0EB" transform="translate(111,24)"/>
<path d="M0 0 C1.65 0.33 3.3 0.66 5 1 C5.33 4.63 5.66 8.26 6 12 C4.68 12.33 3.36 12.66 2 13 C2.33 9.04 2.66 5.08 3 1 C2.34 1 1.68 1 1 1 C1 12.55 1 24.1 1 36 C-1.475 36.495 -1.475 36.495 -4 37 C-5.99616554 35.00383446 -5.40983427 31.18298037 -5.5625 28.4375 C-5.60568359 27.72658203 -5.64886719 27.01566406 -5.69335938 26.28320312 C-5.79971777 24.52238088 -5.90038846 22.7612168 -6 21 C-5.01 21 -4.02 21 -3 21 C-2.67 20.01 -2.34 19.02 -2 18 C-2.33 23.94 -2.66 29.88 -3 36 C-2.34 36 -1.68 36 -1 36 C-1.00523682 34.94498291 -1.01047363 33.88996582 -1.01586914 32.80297852 C-1.03391901 28.9024337 -1.04543195 25.0018926 -1.05493164 21.10131836 C-1.0599719 19.41055684 -1.06680405 17.71979971 -1.07543945 16.02905273 C-1.08751857 13.60399293 -1.09323123 11.17899056 -1.09765625 8.75390625 C-1.10281754 7.99348526 -1.10797882 7.23306427 -1.11329651 6.44960022 C-1.11349238 4.6326743 -1.06197277 2.81586873 -1 1 C-0.67 0.67 -0.34 0.34 0 0 Z " fill="#3B6E9A" transform="translate(131,24)"/>
<path d="M0 0 C1.35015859 4.05047576 0.62084998 6.7920168 0 11 C0.99 11 1.98 11 3 11 C3 7.7 3 4.4 3 1 C3.33 1 3.66 1 4 1 C4 4.63 4 8.26 4 12 C2.02 12 0.04 12 -2 12 C-2 9.69 -2 7.38 -2 5 C-2.66 5 -3.32 5 -4 5 C-4 7.31 -4 9.62 -4 12 C-5.65 12 -7.3 12 -9 12 C-9.226875 11.195625 -9.45375 10.39125 -9.6875 9.5625 C-10.120625 8.716875 -10.55375 7.87125 -11 7 C-13.54775306 6.10613836 -13.54775306 6.10613836 -16 6 C-15.34 4.35 -14.68 2.7 -14 1 C-13.01 1 -12.02 1 -11 1 C-11 1.99 -11 2.98 -11 4 C-10.34 4 -9.68 4 -9 4 C-9 3.01 -9 2.02 -9 1 C-5.8035914 -0.06546953 -3.34252724 -0.07427838 0 0 Z " fill="#CAE9E5" transform="translate(199,93)"/>
<path d="M0 0 C1.32 0 2.64 0 4 0 C3.67 1.32 3.34 2.64 3 4 C3.804375 4.226875 4.60875 4.45375 5.4375 4.6875 C6.283125 5.120625 7.12875 5.55375 8 6 C8.8125 8.625 8.8125 8.625 9 11 C10.65 11 12.3 11 14 11 C14 8.69 14 6.38 14 4 C14.66 4 15.32 4 16 4 C16 6.31 16 8.62 16 11 C17.98 11 19.96 11 22 11 C22 7.37 22 3.74 22 0 C22.66 0 23.32 0 24 0 C24 4.29 24 8.58 24 13 C17.4 13 10.8 13 4 13 C4.66 12.67 5.32 12.34 6 12 C6 10.68 6 9.36 6 8 C3.69 8 1.38 8 -1 8 C-0.67 5.36 -0.34 2.72 0 0 Z " fill="#6FBFB0" transform="translate(181,94)"/>
<path d="M0 0 C1.65 0.33 3.3 0.66 5 1 C5.33 7.93 5.66 14.86 6 22 C5.01 21.67 4.02 21.34 3 21 C3.33 14.73 3.66 8.46 4 2 C3.01 2 2.02 2 1 2 C1 10.91 1 19.82 1 29 C-0.65 29.33 -2.3 29.66 -4 30 C-5 29 -5 29 -5.11352539 27.23413086 C-5.10828857 26.48526611 -5.10305176 25.73640137 -5.09765625 24.96484375 C-5.09443359 24.15595703 -5.09121094 23.34707031 -5.08789062 22.51367188 C-5.07951172 21.66353516 -5.07113281 20.81339844 -5.0625 19.9375 C-5.05798828 19.08349609 -5.05347656 18.22949219 -5.04882812 17.34960938 C-5.03700373 15.23304337 -5.01906769 13.11651315 -5 11 C-4.34 11 -3.68 11 -3 11 C-3 16.94 -3 22.88 -3 29 C-2.34 29 -1.68 29 -1 29 C-1.00523682 28.15703369 -1.01047363 27.31406738 -1.01586914 26.44555664 C-1.03287826 23.32772064 -1.04543406 20.20990823 -1.05493164 17.09204102 C-1.05997057 15.74079614 -1.06680177 14.38955674 -1.07543945 13.03833008 C-1.08752419 11.09979566 -1.09269828 9.161222 -1.09765625 7.22265625 C-1.10289307 6.05484619 -1.10812988 4.88703613 -1.11352539 3.68383789 C-1 1 -1 1 0 0 Z " fill="#1E5686" transform="translate(139,31)"/>
<path d="M0 0 C0.33 0 0.66 0 1 0 C1 2.97 1 5.94 1 9 C1.99 9.33 2.98 9.66 4 10 C3.67 7.03 3.34 4.06 3 1 C3.66 1.33 4.32 1.66 5 2 C5 12.56 5 23.12 5 34 C4.34 34 3.68 34 3 34 C3 27.07 3 20.14 3 13 C2.34 13 1.68 13 1 13 C0.67 20.92 0.34 28.84 0 37 C-0.33 37 -0.66 37 -1 37 C-1.0246501 31.89136104 -1.04283607 26.78275641 -1.05493164 21.67407227 C-1.05997204 19.93480832 -1.0668043 18.19554864 -1.07543945 16.45629883 C-1.08751792 13.96174063 -1.09323108 11.46723827 -1.09765625 8.97265625 C-1.10281754 8.19036148 -1.10797882 7.40806671 -1.11329651 6.60206604 C-1.11349226 4.73432886 -1.06199694 2.86670796 -1 1 C-0.67 0.67 -0.34 0.34 0 0 Z " fill="#C3DBEC" transform="translate(115,25)"/>
<path d="M0 0 C1.65 0 3.3 0 5 0 C5.33 1.65 5.66 3.3 6 5 C6.66 5 7.32 5 8 5 C8.33 3.35 8.66 1.7 9 0 C11.375 -0.125 11.375 -0.125 14 0 C14.66 0.66 15.32 1.32 16 2 C15.625 4.625 15.625 4.625 15 7 C14.030625 7.12375 13.06125 7.2475 12.0625 7.375 C10.5465625 7.684375 10.5465625 7.684375 9 8 C8.67 8.66 8.34 9.32 8 10 C7.67 9.34 7.34 8.68 7 8 C6.34 8 5.68 8 5 8 C5.33 8.99 5.66 9.98 6 11 C5.34 11 4.68 11 4 11 C4 10.01 4 9.02 4 8 C2.68 8 1.36 8 0 8 C0 5.36 0 2.72 0 0 Z " fill="#DBEFED" transform="translate(82,119)"/>
<path d="M0 0 C0.99 0 1.98 0 3 0 C3 3.96 3 7.92 3 12 C-1.29 12 -5.58 12 -10 12 C-10.33 12.99 -10.66 13.98 -11 15 C-12.32 15 -13.64 15 -15 15 C-15 14.01 -15 13.02 -15 12 C-14.01 12 -13.02 12 -12 12 C-12 9.36 -12 6.72 -12 4 C-11.34 4 -10.68 4 -10 4 C-10 5.65 -10 7.3 -10 9 C-9.01 9 -8.02 9 -7 9 C-7 7.35 -7 5.7 -7 4 C-6.01 4 -5.02 4 -4 4 C-4 5.65 -4 7.3 -4 9 C-2.68 9 -1.36 9 0 9 C0 6.03 0 3.06 0 0 Z " fill="#185383" transform="translate(203,133)"/>
<path d="M0 0 C0.94875 0.04125 1.8975 0.0825 2.875 0.125 C2.875 2.435 2.875 4.745 2.875 7.125 C3.865 7.125 4.855 7.125 5.875 7.125 C5.875 7.785 5.875 8.445 5.875 9.125 C3.27134072 9.34671552 0.66803507 9.55284859 -1.9375 9.75 C-2.67548828 9.81445312 -3.41347656 9.87890625 -4.17382812 9.9453125 C-9.78515625 10.3515625 -9.78515625 10.3515625 -13.125 8.125 C-12.795 5.815 -12.465 3.505 -12.125 1.125 C-11.465 1.125 -10.805 1.125 -10.125 1.125 C-10.125 3.105 -10.125 5.085 -10.125 7.125 C-8.805 7.125 -7.485 7.125 -6.125 7.125 C-5.939375 5.949375 -5.939375 5.949375 -5.75 4.75 C-4.82468755 0.8636877 -4.01182624 0.16047305 0 0 Z " fill="#6EBFB1" transform="translate(60.125,97.875)"/>
<path d="M0 0 C0.99 0 1.98 0 3 0 C3 6.27 3 12.54 3 19 C3.99 19.33 4.98 19.66 6 20 C5.814375 20.556875 5.62875 21.11375 5.4375 21.6875 C4.92448835 24.399133 5.3359276 26.34371039 6 29 C5.67 28.01 5.34 27.02 5 26 C4.29875 26.495 3.5975 26.99 2.875 27.5 C-0.37119719 29.1936681 -2.39340156 29.25162315 -6 29 C-5.67 28.34 -5.34 27.68 -5 27 C-3.68 27 -2.36 27 -1 27 C-0.67 18.09 -0.34 9.18 0 0 Z " fill="#CDE7F5" transform="translate(140,33)"/>
<path d="M0 0 C13.53 0 27.06 0 41 0 C41.495 0.99 41.495 0.99 42 2 C41.67 2.66 41.34 3.32 41 4 C36.71 4 32.42 4 28 4 C28 3.01 28 2.02 28 1 C24.04 1 20.08 1 16 1 C16 1.99 16 2.98 16 4 C13.36 4 10.72 4 8 4 C8 3.01 8 2.02 8 1 C5.36 1 2.72 1 0 1 C0 0.67 0 0.34 0 0 Z " fill="#E3FBF7" transform="translate(37,108)"/>
<path d="M0 0 C1.4540625 0.0309375 1.4540625 0.0309375 2.9375 0.0625 C2.9375 1.7125 2.9375 3.3625 2.9375 5.0625 C3.5975 5.0625 4.2575 5.0625 4.9375 5.0625 C4.9375 3.4125 4.9375 1.7625 4.9375 0.0625 C5.5975 0.0625 6.2575 0.0625 6.9375 0.0625 C6.9375 1.7125 6.9375 3.3625 6.9375 5.0625 C7.9275 5.3925 8.9175 5.7225 9.9375 6.0625 C6.46424819 7.2202506 3.57682552 7.13116652 -0.0625 7.0625 C-0.3925 5.7425 -0.7225 4.4225 -1.0625 3.0625 C-1.3925 5.0425 -1.7225 7.0225 -2.0625 9.0625 C-4.7025 9.0625 -7.3425 9.0625 -10.0625 9.0625 C-10.3925 6.7525 -10.7225 4.4425 -11.0625 2.0625 C-10.0725 2.0625 -9.0825 2.0625 -8.0625 2.0625 C-7.9078125 3.0215625 -7.9078125 3.0215625 -7.75 4 C-7.523125 4.680625 -7.29625 5.36125 -7.0625 6.0625 C-6.0725 6.3925 -5.0825 6.7225 -4.0625 7.0625 C-4.083125 6.093125 -4.10375 5.12375 -4.125 4.125 C-4.0425 0.0825 -4.0425 0.0825 0 0 Z " fill="#205988" transform="translate(11.0625,136.9375)"/>
<path d="M0 0 C2.33294775 -0.04241723 4.66702567 -0.04092937 7 0 C8 1 8 1 8.09765625 4.16015625 C8.08605469 5.44792969 8.07445313 6.73570313 8.0625 8.0625 C8.05347656 9.35285156 8.04445313 10.64320312 8.03515625 11.97265625 C8.02355469 12.97167969 8.01195313 13.97070312 8 15 C6.02 15 4.04 15 2 15 C2 10.38 2 5.76 2 1 C1.34 0.67 0.68 0.34 0 0 Z " fill="#D4F4EF" transform="translate(106,93)"/>
<path d="M0 0 C0.99 0 1.98 0 3 0 C2.67 3.3 2.34 6.6 2 10 C-8.89 10 -19.78 10 -31 10 C-31 9.34 -31 8.68 -31 8 C-20.77 8 -10.54 8 0 8 C-0.33 5.69 -0.66 3.38 -1 1 C-0.67 0.67 -0.34 0.34 0 0 Z " fill="#305779" transform="translate(142,59)"/>
<path d="M0 0 C4.70588235 0.70588235 4.70588235 0.70588235 6 2 C6.08651611 3.41570123 6.10704904 4.835595 6.09765625 6.25390625 C6.09443359 7.10791016 6.09121094 7.96191406 6.08789062 8.84179688 C6.07951172 9.73962891 6.07113281 10.63746094 6.0625 11.5625 C6.05798828 12.46419922 6.05347656 13.36589844 6.04882812 14.29492188 C6.03700225 16.53001314 6.0205222 18.76497437 6 21 C5.34 21 4.68 21 4 21 C3.67 15.06 3.34 9.12 3 3 C2.34 3 1.68 3 1 3 C0.67 15.54 0.34 28.08 0 41 C-0.33 41 -0.66 41 -1 41 C-1.02464705 35.32169922 -1.04283462 29.64342931 -1.05493164 23.96508789 C-1.05997256 22.03181415 -1.06680519 20.09854424 -1.07543945 18.1652832 C-1.08751565 15.39273128 -1.09323057 12.62022959 -1.09765625 9.84765625 C-1.10281754 8.97786636 -1.10797882 8.10807648 -1.11329651 7.21192932 C-1.11349185 5.14094186 -1.06208168 3.07005676 -1 1 C-0.67 0.67 -0.34 0.34 0 0 Z " fill="#275984" transform="translate(122,18)"/>
<path d="M0 0 C0 4.95 0 9.9 0 15 C-1.65 15.33 -3.3 15.66 -5 16 C-6.44207941 13.11584117 -6.09394887 10.58278472 -6.0625 7.375 C-6.05347656 6.18648438 -6.04445312 4.99796875 -6.03515625 3.7734375 C-6.02355469 2.85820313 -6.01195312 1.94296875 -6 1 C-4 0 -4 0 0 0 Z " fill="#D9F5F0" transform="translate(212,94)"/>
<path d="M0 0 C8.58 0 17.16 0 26 0 C25 5 25 5 23.375 6.6875 C19.61514668 8.76531368 15.88670204 10.29026185 11.5625 9.625 C11.046875 9.41875 10.53125 9.2125 10 9 C10.99 9 11.98 9 13 9 C13.33 8.01 13.66 7.02 14 6 C15.11375 5.87625 16.2275 5.7525 17.375 5.625 C21.03103677 5.3534187 21.03103677 5.3534187 23 3 C11.615 2.505 11.615 2.505 0 2 C0 1.34 0 0.68 0 0 Z " fill="#306491" transform="translate(118,72)"/>
<path d="M0 0 C1.65 0.33 3.3 0.66 5 1 C5.33 4.3 5.66 7.6 6 11 C4.68 10.67 3.36 10.34 2 10 C1.67 19.57 1.34 29.14 1 39 C-0.98 39.495 -0.98 39.495 -3 40 C-4 39 -4 39 -4.09765625 36.71484375 C-4.08605469 35.79832031 -4.07445313 34.88179687 -4.0625 33.9375 C-4.05347656 33.01839844 -4.04445313 32.09929688 -4.03515625 31.15234375 C-4.02355469 30.44207031 -4.01195313 29.73179688 -4 29 C-3.67 29 -3.34 29 -3 29 C-2.67 31.64 -2.34 34.28 -2 37 C-1.67 37 -1.34 37 -1 37 C-0.67 24.79 -0.34 12.58 0 0 Z " fill="#1F507A" transform="translate(113,24)"/>
<path d="M0 0 C3.3 0 6.6 0 10 0 C9.01 0.495 9.01 0.495 8 1 C8 3.64 8 6.28 8 9 C6.35 9 4.7 9 3 9 C3 7.35 3 5.7 3 4 C2.34 4 1.68 4 1 4 C1 5.65 1 7.3 1 9 C-0.32 9 -1.64 9 -3 9 C-3 7.02 -3 5.04 -3 3 C-2.34 3 -1.68 3 -1 3 C-0.67 2.01 -0.34 1.02 0 0 Z " fill="#BFDAEA" transform="translate(141,133)"/>
<path d="M0 0 C1.65 0.33 3.3 0.66 5 1 C5 1.99 5 2.98 5 4 C3.35 4 1.7 4 0 4 C0 4.66 0 5.32 0 6 C1.65 5.67 3.3 5.34 5 5 C5 7.97 5 10.94 5 14 C2.625 14.125 2.625 14.125 0 14 C-2 12 -2 12 -2.01171875 9.6875 C-1.90472656 8.800625 -1.79773438 7.91375 -1.6875 7 C-1.58824219 6.113125 -1.48898438 5.22625 -1.38671875 4.3125 C-1 2 -1 2 0 0 Z " fill="#135285" transform="translate(216,131)"/>
<path d="M0 0 C2.31 0 4.62 0 7 0 C7.33 2.64 7.66 5.28 8 8 C6.35 8.33 4.7 8.66 3 9 C3 9.66 3 10.32 3 11 C1.68 10.67 0.36 10.34 -1 10 C-1.125 3.375 -1.125 3.375 0 0 Z " fill="#DCF1EF" transform="translate(150,119)"/>
<path d="M0 0 C0.94875 0.04125 1.8975 0.0825 2.875 0.125 C2.92899736 1.58292884 2.96779177 3.04142712 3 4.5 C3.02320312 5.31210938 3.04640625 6.12421875 3.0703125 6.9609375 C2.875 9.125 2.875 9.125 0.875 11.125 C-1.75 10.75 -1.75 10.75 -4.125 10.125 C-5.1015625 4.0703125 -5.1015625 4.0703125 -5.125 2.125 C-3.125 0.125 -3.125 0.125 0 0 Z " fill="#2F6795" transform="translate(99.125,136.875)"/>
<path d="M0 0 C1.32 0 2.64 0 4 0 C4 4.95 4 9.9 4 15 C2.68 15 1.36 15 0 15 C-1.37252731 12.25494537 -1.13229255 9.99672588 -1.125 6.9375 C-1.12757812 5.85339844 -1.13015625 4.76929688 -1.1328125 3.65234375 C-1 1 -1 1 0 0 Z " fill="#93B5CE" transform="translate(35,133)"/>
<path d="M0 0 C0.99 0.33 1.98 0.66 3 1 C3 2.32 3 3.64 3 5 C4.65 5 6.3 5 8 5 C8.33 3.35 8.66 1.7 9 0 C9.99 0 10.98 0 12 0 C12 2.64 12 5.28 12 8 C10.7934375 7.9690625 10.7934375 7.9690625 9.5625 7.9375 C7.06645115 7.70366379 7.06645115 7.70366379 6 9 C3.5 9.125 3.5 9.125 1 9 C0 8 0 8 -0.09765625 6.15234375 C-0.06510417 4.1015625 -0.03255208 2.05078125 0 0 Z " fill="#D2EBE5" transform="translate(65,119)"/>
<path d="M0 0 C1.32 0 2.64 0 4 0 C4 1.32 4 2.64 4 4 C4.99 4.33 5.98 4.66 7 5 C6.67 6.65 6.34 8.3 6 10 C8.31 10 10.62 10 13 10 C13 10.99 13 11.98 13 13 C9.7 13 6.4 13 3 13 C3 10.69 3 8.38 3 6 C2.01 6 1.02 6 0 6 C0 4.02 0 2.04 0 0 Z " fill="#C2E8E2" transform="translate(174,92)"/>
<path d="M0 0 C2.31 0 4.62 0 7 0 C7 0.99 7 1.98 7 3 C6.34 3 5.68 3 5 3 C5 5.64 5 8.28 5 11 C7.31 11 9.62 11 12 11 C12 11.66 12 12.32 12 13 C7.38 13 2.76 13 -2 13 C-0.68 12.67 0.64 12.34 2 12 C1.85831863 10.56208484 1.71148957 9.1246763 1.5625 7.6875 C1.48128906 6.88699219 1.40007812 6.08648437 1.31640625 5.26171875 C1.04734307 2.83912821 1.04734307 2.83912821 0 0 Z " fill="#6BC0B0" transform="translate(95,94)"/>
<path d="M0 0 C1.65 0 3.3 0 5 0 C5 3.3 5 6.6 5 10 C3.35 10.33 1.7 10.66 0 11 C-1.82941851 7.23355012 -2.23162684 5.03077875 -1 1 C-0.67 0.67 -0.34 0.34 0 0 Z " fill="#296090" transform="translate(240,137)"/>
<path d="M0 0 C2.31 0 4.62 0 7 0 C7 3.3 7 6.6 7 10 C6.34 9.01 5.68 8.02 5 7 C4.67 7.33 4.34 7.66 4 8 C4 9.32 4 10.64 4 12 C3.01 11.67 2.02 11.34 1 11 C0.67 10.34 0.34 9.68 0 9 C-0.66 8.67 -1.32 8.34 -2 8 C-1.67 7.67 -1.34 7.34 -1 7 C-0.63239269 4.67182036 -0.29758419 2.3381615 0 0 Z " fill="#93CDC5" transform="translate(36,93)"/>
<path d="M0 0 C0.99 0 1.98 0 3 0 C3.12375 1.2375 3.2475 2.475 3.375 3.75 C3.67565443 6.27019157 3.92856277 7.86506302 5.125 10.125 C6.42680139 12.91457441 5.66393088 15.07870414 5 18 C3.0625 17.3125 3.0625 17.3125 1 16 C-0.02055289 12.37703724 -0.1076402 8.93413629 -0.0625 5.1875 C-0.05347656 4.21167969 -0.04445313 3.23585937 -0.03515625 2.23046875 C-0.02355469 1.49441406 -0.01195313 0.75835937 0 0 Z " fill="#F0F8FB" transform="translate(105,54)"/>
<path d="M0 0 C2.475 0.495 2.475 0.495 5 1 C5.33 4.63 5.66 8.26 6 12 C4.68 12.33 3.36 12.66 2 13 C2.33 9.04 2.66 5.08 3 1 C2.34 1 1.68 1 1 1 C1 10.57 1 20.14 1 30 C0.67 30 0.34 30 0 30 C0 20.1 0 10.2 0 0 Z " fill="#19507D" transform="translate(131,24)"/>
<path d="M0 0 C0.33 0 0.66 0 1 0 C1 1.98 1 3.96 1 6 C3.97 6 6.94 6 10 6 C9.67 5.34 9.34 4.68 9 4 C6.47266765 3.34444881 6.47266765 3.34444881 4 3 C4 2.01 4 1.02 4 0 C7.375 -0.125 7.375 -0.125 11 0 C13 2 13 2 13.125 5.625 C13.08375 6.73875 13.0425 7.8525 13 9 C8.71 8.34 4.42 7.68 0 7 C0 4.69 0 2.38 0 0 Z " fill="#8DCABF" transform="translate(130,98)"/>
<path d="M0 0 C2.97 0 5.94 0 9 0 C8.67 0.99 8.34 1.98 8 3 C6.02 3 4.04 3 2 3 C0.58622659 5.63904371 -0.37240135 8.07120629 -1 11 C-2.32 11 -3.64 11 -5 11 C-5 8.69 -5 6.38 -5 4 C-3.35 4 -1.7 4 0 4 C0 2.68 0 1.36 0 0 Z " fill="#C6E7E2" transform="translate(55,94)"/>
<path d="M0 0 C1.98 0 3.96 0 6 0 C6.05399736 1.45792884 6.09279177 2.91642712 6.125 4.375 C6.14820313 5.18710938 6.17140625 5.99921875 6.1953125 6.8359375 C6 9 6 9 4 11 C1.375 10.625 1.375 10.625 -1 10 C-0.67 8.35 -0.34 6.7 0 5 C0.99 5 1.98 5 3 5 C3 4.01 3 3.02 3 2 C2.34 2 1.68 2 1 2 C1 2.66 1 3.32 1 4 C0.34 4 -0.32 4 -1 4 C-0.67 2.68 -0.34 1.36 0 0 Z " fill="#15558C" transform="translate(159,137)"/>
<path d="M0 0 C1.65 0.33 3.3 0.66 5 1 C5.33 7.93 5.66 14.86 6 22 C5.01 21.67 4.02 21.34 3 21 C3.33 14.73 3.66 8.46 4 2 C3.01 2 2.02 2 1 2 C1 10.91 1 19.82 1 29 C0.67 29 0.34 29 0 29 C-0.16729064 25.03092526 -0.32788226 21.06164279 -0.48217773 17.09204102 C-0.53565802 15.74072921 -0.59099194 14.38948948 -0.64819336 13.03833008 C-0.72993571 11.09997011 -0.80453323 9.16131296 -0.87890625 7.22265625 C-0.9260376 6.05484619 -0.97316895 4.88703613 -1.02172852 3.68383789 C-1 1 -1 1 0 0 Z " fill="#2C5E8A" transform="translate(139,31)"/>
<path d="M0 0 C1 2 1 2 1 3 C1.99 2.34 2.98 1.68 4 1 C4.66 2.32 5.32 3.64 6 5 C5.01 5 4.02 5 3 5 C3 6.98 3 8.96 3 11 C2.34 11 1.68 11 1 11 C1 9.68 1 8.36 1 7 C0.01 7 -0.98 7 -2 7 C-2 7.99 -2 8.98 -2 10 C-1.34 10.33 -0.68 10.66 0 11 C-0.66 11 -1.32 11 -2 11 C-2 14.96 -2 18.92 -2 23 C-2.33 23 -2.66 23 -3 23 C-3.08706892 19.72933434 -3.14041241 16.45896635 -3.1875 13.1875 C-3.21263672 12.25873047 -3.23777344 11.32996094 -3.26367188 10.37304688 C-3.27333984 9.48037109 -3.28300781 8.58769531 -3.29296875 7.66796875 C-3.3086792 6.84578857 -3.32438965 6.0236084 -3.34057617 5.17651367 C-2.92566921 2.52497566 -2.04470249 1.66736408 0 0 Z " fill="#92B0CA" transform="translate(104,41)"/>
<path d="M0 0 C3.3 0 6.6 0 10 0 C9.01 0.495 9.01 0.495 8 1 C8 3.64 8 6.28 8 9 C6.35 9 4.7 9 3 9 C3 7.35 3 5.7 3 4 C1.68 3.34 0.36 2.68 -1 2 C-0.67 1.34 -0.34 0.68 0 0 Z " fill="#7FA1BC" transform="translate(78,133)"/>
<path d="M0 0 C0.33 0.99 0.66 1.98 1 3 C1.99 3.33 2.98 3.66 4 4 C5.53515625 5.55859375 5.53515625 5.55859375 7.0625 7.4375 C9.84684025 11.37834952 9.84684025 11.37834952 13.9453125 13.1953125 C16.97265625 13.09765625 16.97265625 13.09765625 20 13 C19.67 14.32 19.34 15.64 19 17 C13.19228741 16.61619854 10.37768934 15.25301131 6.125 11.3125 C5.17882812 10.46300781 4.23265625 9.61351563 3.2578125 8.73828125 C0.75708754 5.7053951 0.2607 3.87082822 0 0 Z " fill="#285980" transform="translate(101,65)"/>
<path d="M0 0 C0.33 0 0.66 0 1 0 C1 4.95 1 9.9 1 15 C2.65 14.34 4.3 13.68 6 13 C5.67 13.99 5.34 14.98 5 16 C3.35 16.33 1.7 16.66 0 17 C-0.33 16.01 -0.66 15.02 -1 14 C-1.5775 14.165 -2.155 14.33 -2.75 14.5 C-5 15 -5 15 -9 15 C-9 14.34 -9 13.68 -9 13 C-8.34 13 -7.68 13 -7 13 C-6.67 12.01 -6.34 11.02 -6 10 C-4.02 10.66 -2.04 11.32 0 12 C0 9.03 0 6.06 0 3 C-1.65 3.33 -3.3 3.66 -5 4 C-5 3.34 -5 2.68 -5 2 C-3.35 2 -1.7 2 0 2 C0 1.34 0 0.68 0 0 Z " fill="#D5EBF8" transform="translate(221,133)"/>
<path d="M0 0 C0.99 0.66 1.98 1.32 3 2 C3.29296875 4.3828125 3.29296875 4.3828125 3.1875 7.125 C3.16042969 8.03507813 3.13335937 8.94515625 3.10546875 9.8828125 C3.07066406 10.58148438 3.03585938 11.28015625 3 12 C2.01 12 1.02 12 0 12 C-0.33 9.03 -0.66 6.06 -1 3 C-1.66 3.66 -2.32 4.32 -3 5 C-3 5.66 -3 6.32 -3 7 C-3.66 7 -4.32 7 -5 7 C-5.33 5.02 -5.66 3.04 -6 1 C-3.03 1.495 -3.03 1.495 0 2 C0 1.34 0 0.68 0 0 Z " fill="#EAF5FC" transform="translate(28,130)"/>
<path d="M0 0 C0.33 0.66 0.66 1.32 1 2 C8.92 2 16.84 2 25 2 C22 6 22 6 18.3125 6.75 C17.219375 6.8325 16.12625 6.915 15 7 C15.33 6.01 15.66 5.02 16 4 C10.72 4 5.44 4 0 4 C0 2.68 0 1.36 0 0 Z " fill="#E6FAFE" transform="translate(117,72)"/>
<path d="M0 0 C11.55 0 23.1 0 35 0 C35 0.33 35 0.66 35 1 C26.09 1 17.18 1 8 1 C8 1.99 8 2.98 8 4 C6.02 4 4.04 4 2 4 C2 3.34 2 2.68 2 2 C1.34 1.34 0.68 0.68 0 0 Z " fill="#4E799D" transform="translate(116,144)"/>
<path d="M0 0 C11.55 0 23.1 0 35 0 C35 0.33 35 0.66 35 1 C26.09 1 17.18 1 8 1 C8 1.99 8 2.98 8 4 C6.02 4 4.04 4 2 4 C2 3.34 2 2.68 2 2 C1.34 1.34 0.68 0.68 0 0 Z " fill="#4E799E" transform="translate(53,144)"/>
<path d="M0 0 C0.66 0 1.32 0 2 0 C2 3.3 2 6.6 2 10 C-2.29 10 -6.58 10 -11 10 C-11 9.34 -11 8.68 -11 8 C-9.68 8 -8.36 8 -7 8 C-7 6.35 -7 4.7 -7 3 C-6.34 3 -5.68 3 -5 3 C-5 4.65 -5 6.3 -5 8 C-3.35 8 -1.7 8 0 8 C0 5.36 0 2.72 0 0 Z " fill="#185487" transform="translate(149,134)"/>
<path d="M0 0 C1.98 0 3.96 0 6 0 C7.35015859 4.05047576 6.62084998 6.7920168 6 11 C6.99 11 7.98 11 9 11 C9 7.7 9 4.4 9 1 C9.33 1 9.66 1 10 1 C10 4.63 10 8.26 10 12 C8.02 12 6.04 12 4 12 C4 9.69 4 7.38 4 5 C3.01 4.67 2.02 4.34 1 4 C1.66 3.01 2.32 2.02 3 1 C2.01 0.67 1.02 0.34 0 0 Z " fill="#B9E4DE" transform="translate(193,93)"/>
<path d="M0 0 C0.66 0 1.32 0 2 0 C2 3.63 2 7.26 2 11 C1.01 11 0.02 11 -1 11 C-1 8.69 -1 6.38 -1 4 C-1.99 4 -2.98 4 -4 4 C-4 6.31 -4 8.62 -4 11 C-5.65 11 -7.3 11 -9 11 C-9 8.69 -9 6.38 -9 4 C-8.67 4 -8.34 4 -8 4 C-8 5.98 -8 7.96 -8 10 C-7.01 10 -6.02 10 -5 10 C-5 7.69 -5 5.38 -5 3 C-3.35 3 -1.7 3 0 3 C0 2.01 0 1.02 0 0 Z " fill="#CCEFEA" transform="translate(79,94)"/>
<path d="M0 0 C0.99 0.33 1.98 0.66 3 1 C3.02691685 3.45840605 3.04679802 5.91651882 3.0625 8.375 C3.07087891 9.07367188 3.07925781 9.77234375 3.08789062 10.4921875 C3.11328125 15.7734375 3.11328125 15.7734375 2 18 C1.34 18 0.68 18 0 18 C0 12.06 0 6.12 0 0 Z " fill="#E7F7FD" transform="translate(123,20)"/>
<path d="M0 0 C0.33 0.99 0.66 1.98 1 3 C3.97 3.33 6.94 3.66 10 4 C10.33 2.68 10.66 1.36 11 0 C13.67927341 4.01891012 13.15601248 6.24161923 13 11 C11.68 11 10.36 11 9 11 C8.67 9.02 8.34 7.04 8 5 C5.36 4.67 2.72 4.34 0 4 C0 2.68 0 1.36 0 0 Z " fill="#E2F9F7" transform="translate(84,94)"/>
<path d="M0 0 C0.99 0 1.98 0 3 0 C3 3.63 3 7.26 3 11 C0.66705225 11.04241723 -1.66702567 11.04092937 -4 11 C-5 10 -5 10 -5.0625 7.4375 C-5.041875 6.633125 -5.02125 5.82875 -5 5 C-4.01 5.495 -4.01 5.495 -3 6 C-3 6.99 -3 7.98 -3 9 C-2.01 9 -1.02 9 0 9 C0 6.03 0 3.06 0 0 Z " fill="#2E6696" transform="translate(31,133)"/>
<path d="M0 0 C0.99 0 1.98 0 3 0 C3.02693575 2.12493141 3.04636628 4.24995912 3.0625 6.375 C3.07410156 7.55835938 3.08570313 8.74171875 3.09765625 9.9609375 C3 13 3 13 2 15 C0.68 15 -0.64 15 -2 15 C-2 14.01 -2 13.02 -2 12 C-1.34 12 -0.68 12 0 12 C0 8.04 0 4.08 0 0 Z " fill="#46769D" transform="translate(234,133)"/>
<path d="M0 0 C3.96 0 7.92 0 12 0 C12.33 0.66 12.66 1.32 13 2 C12.67 2.66 12.34 3.32 12 4 C7.71 4 3.42 4 -1 4 C-0.67 2.68 -0.34 1.36 0 0 Z " fill="#C3E8E4" transform="translate(66,108)"/>
<path d="M0 0 C0.99 0 1.98 0 3 0 C3 3.63 3 7.26 3 11 C1.35 11 -0.3 11 -2 11 C-2 8.36 -2 5.72 -2 3 C-1.34 3 -0.68 3 0 3 C0 2.01 0 1.02 0 0 Z " fill="#D2F5F2" transform="translate(102,94)"/>
<path d="M0 0 C0.66 0 1.32 0 2 0 C2.33 0.99 2.66 1.98 3 3 C4.32 2.67 5.64 2.34 7 2 C7.33 2.99 7.66 3.98 8 5 C6.68 5.33 5.36 5.66 4 6 C3.67 10.62 3.34 15.24 3 20 C2.34 20 1.68 20 1 20 C0.67 13.4 0.34 6.8 0 0 Z " fill="#E1F3FA" transform="translate(127,19)"/>
<path d="M0 0 C1.32 0 2.64 0 4 0 C4.33 0.99 4.66 1.98 5 3 C7.31 3.33 9.62 3.66 12 4 C12 7.3 12 10.6 12 14 C11.67 14 11.34 14 11 14 C11 11.03 11 8.06 11 5 C9.02 5.66 7.04 6.32 5 7 C5 8.32 5 9.64 5 11 C5.66 11.66 6.32 12.32 7 13 C6.34 13 5.68 13 5 13 C5.33 13.99 5.66 14.98 6 16 C4.68 15.34 3.36 14.68 2 14 C2.33 9.71 2.66 5.42 3 1 C2.01 0.67 1.02 0.34 0 0 Z " fill="#C6E3F3" transform="translate(234,132)"/>
<path d="M0 0 C0.33 0.66 0.66 1.32 1 2 C1.99 2 2.98 2 4 2 C4 3.32 4 4.64 4 6 C3.01 6 2.02 6 1 6 C0.67 6.66 0.34 7.32 0 8 C-0.33 7.67 -0.66 7.34 -1 7 C-1.33 7.99 -1.66 8.98 -2 10 C-2.99 10 -3.98 10 -5 10 C-5 8.35 -5 6.7 -5 5 C-4.360625 4.731875 -3.72125 4.46375 -3.0625 4.1875 C-0.66868314 3.11332248 -0.66868314 3.11332248 0 0 Z " fill="#5F93BA" transform="translate(110,138)"/>
<path d="M0 0 C1.98 0 3.96 0 6 0 C6 2.64 6 5.28 6 8 C4.33388095 8.042721 2.66617115 8.04063832 1 8 C0 7 0 7 -0.0625 3.4375 C-0.041875 2.303125 -0.02125 1.16875 0 0 Z " fill="#ADD8D0" transform="translate(118,119)"/>
<path d="M0 0 C0.28571429 7.42857143 0.28571429 7.42857143 -2 11 C-2.66 10.67 -3.32 10.34 -4 10 C-4.33 10.99 -4.66 11.98 -5 13 C-5.08086147 11.20906809 -5.13912702 9.41710372 -5.1875 7.625 C-5.22230469 6.62726563 -5.25710937 5.62953125 -5.29296875 4.6015625 C-5.14794922 3.31378906 -5.14794922 3.31378906 -5 2 C-2 0 -2 0 0 0 Z " fill="#E1EDF6" transform="translate(215,132)"/>
<path d="M0 0 C0.33 0 0.66 0 1 0 C1 4.29 1 8.58 1 13 C3.31 13.33 5.62 13.66 8 14 C6.68 14.33 5.36 14.66 4 15 C4 15.99 4 16.98 4 18 C3.34 18 2.68 18 2 18 C2 18.66 2 19.32 2 20 C1.34 20 0.68 20 0 20 C-1.625 18 -1.625 18 -3 16 C-2.01 15.34 -1.02 14.68 0 14 C0.36558117 10.64496524 0.36558117 10.64496524 0.1875 6.875 C0.16042969 5.59367187 0.13335937 4.31234375 0.10546875 2.9921875 C0.05326172 1.51105469 0.05326172 1.51105469 0 0 Z " fill="#DAF0EC" transform="translate(160,94)"/>
<path d="M0 0 C2.64 0 5.28 0 8 0 C9.125 3.75 9.125 3.75 8 6 C8.99 6 9.98 6 11 6 C11 8.31 11 10.62 11 13 C9.68 13 8.36 13 7 13 C7 9.04 7 5.08 7 1 C5.68 1.33 4.36 1.66 3 2 C2.01 1.34 1.02 0.68 0 0 Z " fill="#E1FBF9" transform="translate(36,92)"/>
<path d="M0 0 C0.33 0.66 0.66 1.32 1 2 C2.32 1.67 3.64 1.34 5 1 C5 2.32 5 3.64 5 5 C4.01 5 3.02 5 2 5 C1.67 5.66 1.34 6.32 1 7 C0.67 6.67 0.34 6.34 0 6 C-0.33 6.99 -0.66 7.98 -1 9 C-1.99 9 -2.98 9 -4 9 C-4 7.35 -4 5.7 -4 4 C-2.68 3.34 -1.36 2.68 0 2 C0 1.34 0 0.68 0 0 Z " fill="#4B7EA7" transform="translate(46,139)"/>
<path d="M0 0 C2.625 0.375 2.625 0.375 5 1 C5.042721 2.66611905 5.04063832 4.33382885 5 6 C4 7 4 7 1.4375 7.0625 C0.2309375 7.0315625 0.2309375 7.0315625 -1 7 C-1.625 4.625 -1.625 4.625 -2 2 C-1.34 1.34 -0.68 0.68 0 0 Z " fill="#A5D4CC" transform="translate(163,119)"/>
<path d="M0 0 C0.99 0 1.98 0 3 0 C3 3.96 3 7.92 3 12 C-1.29 12 -5.58 12 -10 12 C-10.33 12.99 -10.66 13.98 -11 15 C-12.32 15 -13.64 15 -15 15 C-15 14.01 -15 13.02 -15 12 C-11.43954823 10.81318274 -8.56191663 10.90310168 -4.8125 10.9375 C-3.54019531 10.94652344 -2.26789063 10.95554688 -0.95703125 10.96484375 C0.50669922 10.98224609 0.50669922 10.98224609 2 11 C2 7.7 2 4.4 2 1 C1.34 0.67 0.68 0.34 0 0 Z " fill="#5583A9" transform="translate(203,133)"/>
<path d="M0 0 C0.99 0 1.98 0 3 0 C3 4.62 3 9.24 3 14 C2.01 14 1.02 14 0 14 C0 9.38 0 4.76 0 0 Z " fill="#76BDB2" transform="translate(111,94)"/>
<path d="M0 0 C0.99 0 1.98 0 3 0 C3 4.62 3 9.24 3 14 C1.68 13.67 0.36 13.34 -1 13 C-0.67 8.71 -0.34 4.42 0 0 Z " fill="#79C0B2" transform="translate(157,94)"/>
<path d="M0 0 C0.99 0 1.98 0 3 0 C3 4.62 3 9.24 3 14 C2.01 14 1.02 14 0 14 C0 9.38 0 4.76 0 0 Z " fill="#80C2B6" transform="translate(208,94)"/>
<path d="M0 0 C7.42857143 1 7.42857143 1 11 2 C10.67 2.66 10.34 3.32 10 4 C11.98 4 13.96 4 16 4 C12.08565139 6.60956574 10.53174074 5.84490082 6 5 C4.865625 4.814375 3.73125 4.62875 2.5625 4.4375 C1.716875 4.293125 0.87125 4.14875 0 4 C0 2.68 0 1.36 0 0 Z " fill="#DFEFF7" transform="translate(45,144)"/>
<path d="M0 0 C5.28 0 10.56 0 16 0 C15.67 0.66 15.34 1.32 15 2 C14.01 1.67 13.02 1.34 12 1 C12 1.99 12 2.98 12 4 C9.36 4 6.72 4 4 4 C4 3.01 4 2.02 4 1 C2.68 0.67 1.36 0.34 0 0 Z " fill="#DCF8F5" transform="translate(121,108)"/>
<path d="M0 0 C1.65 0 3.3 0 5 0 C4.814375 0.556875 4.62875 1.11375 4.4375 1.6875 C3.92448835 4.399133 4.3359276 6.34371039 5 9 C4.67 8.01 4.34 7.02 4 6 C3.29875 6.495 2.5975 6.99 1.875 7.5 C-1.37119719 9.1936681 -3.39340156 9.25162315 -7 9 C-6.67 8.34 -6.34 7.68 -6 7 C-4.68 7 -3.36 7 -2 7 C-0.5393715 4.35261084 0 3.10551666 0 0 Z " fill="#CCE6F3" transform="translate(141,53)"/>
<path d="M0 0 C0.66 0 1.32 0 2 0 C2 1.65 2 3.3 2 5 C3.32 5 4.64 5 6 5 C6 3.35 6 1.7 6 0 C6.66 0 7.32 0 8 0 C8 2.31 8 4.62 8 7 C4.04 7 0.08 7 -4 7 C-2.68 6.67 -1.36 6.34 0 6 C0 4.02 0 2.04 0 0 Z " fill="#185283" transform="translate(179,137)"/>
<path d="M0 0 C1.32 0 2.64 0 4 0 C3.67 1.32 3.34 2.64 3 4 C4.32 4.66 5.64 5.32 7 6 C6.34 6 5.68 6 5 6 C5 6.66 5 7.32 5 8 C3.02 8 1.04 8 -1 8 C-0.67 5.36 -0.34 2.72 0 0 Z " fill="#7EC2B5" transform="translate(181,94)"/>
<path d="M0 0 C1.2065625 0.0309375 1.2065625 0.0309375 2.4375 0.0625 C2.81968767 1.71864657 3.15145102 3.38707024 3.4375 5.0625 C2.4375 6.0625 2.4375 6.0625 -0.125 6.125 C-1.3315625 6.0940625 -1.3315625 6.0940625 -2.5625 6.0625 C-2.94468767 4.40635343 -3.27645102 2.73792976 -3.5625 1.0625 C-2.5625 0.0625 -2.5625 0.0625 0 0 Z " fill="#A0D1C7" transform="translate(186.5625,119.9375)"/>
<path d="M0 0 C0.99 0 1.98 0 3 0 C3.33 1.65 3.66 3.3 4 5 C3.34 5 2.68 5 2 5 C2 8.96 2 12.92 2 17 C1.34 17 0.68 17 0 17 C0 11.39 0 5.78 0 0 Z " fill="#3E739E" transform="translate(102,48)"/>
<path d="M0 0 C8.25 0 16.5 0 25 0 C25 0.33 25 0.66 25 1 C17.41 1.33 9.82 1.66 2 2 C2 2.66 2 3.32 2 4 C0.68 4.33 -0.64 4.66 -2 5 C-2 4.34 -2 3.68 -2 3 C-1.34 3 -0.68 3 0 3 C0 2.01 0 1.02 0 0 Z " fill="#E3F7FD" transform="translate(124,145)"/>
<path d="M0 0 C0.99 0 1.98 0 3 0 C3.05399736 1.45792884 3.09279177 2.91642712 3.125 4.375 C3.14820313 5.18710938 3.17140625 5.99921875 3.1953125 6.8359375 C3 9 3 9 1 11 C0.01 11 -0.98 11 -2 11 C-2 10.01 -2 9.02 -2 8 C-1.34 8 -0.68 8 0 8 C0 5.36 0 2.72 0 0 Z " fill="#356791" transform="translate(224,137)"/>
<path d="M0 0 C2.97 0 5.94 0 9 0 C9 1.32 9 2.64 9 4 C5.18510326 5.46726798 2.70988378 4.43336419 -1 3 C-0.67 2.01 -0.34 1.02 0 0 Z " fill="#94C1DB" transform="translate(178,145)"/>
<path d="M0 0 C0.99 0 1.98 0 3 0 C3 3.96 3 7.92 3 12 C2.01 12 1.02 12 0 12 C0 8.04 0 4.08 0 0 Z " fill="#406E98" transform="translate(153,133)"/>
<path d="M0 0 C0.33 2.31 0.66 4.62 1 7 C-0.98 7.33 -2.96 7.66 -5 8 C-5.36625971 3.48279689 -5.36625971 3.48279689 -3.625 1.1875 C-2 0 -2 0 0 0 Z " fill="#8DD0C5" transform="translate(59,98)"/>
<path d="M0 0 C0.33 0.66 0.66 1.32 1 2 C1.99 2 2.98 2 4 2 C4 4.31 4 6.62 4 9 C2.68 9 1.36 9 0 9 C0 6.69 0 4.38 0 2 C-1.98 2 -3.96 2 -6 2 C-6 1.67 -6 1.34 -6 1 C-4.02 0.67 -2.04 0.34 0 0 Z " fill="#DDFAF7" transform="translate(63,96)"/>
<path d="M0 0 C2.31 0 4.62 0 7 0 C7.66 1.65 8.32 3.3 9 5 C2.25 5.125 2.25 5.125 0 4 C0 2.68 0 1.36 0 0 Z " fill="#95B5CD" transform="translate(3,146)"/>
<path d="M0 0 C0.99 0 1.98 0 3 0 C3 0.99 3 1.98 3 3 C4.65 3 6.3 3 8 3 C8.33 3.99 8.66 4.98 9 6 C6.03 6 3.06 6 0 6 C0 4.02 0 2.04 0 0 Z " fill="#E8FAF9" transform="translate(131,98)"/>
<path d="M0 0 C0.33 0 0.66 0 1 0 C1 3.63 1 7.26 1 11 C0.01 11 -0.98 11 -2 11 C-2 8.69 -2 6.38 -2 4 C-3.65 4 -5.3 4 -7 4 C-7 3.67 -7 3.34 -7 3 C-5.5459375 2.5359375 -5.5459375 2.5359375 -4.0625 2.0625 C-1.15934208 1.30476658 -1.15934208 1.30476658 0 0 Z " fill="#DEF8F5" transform="translate(173,94)"/>
<path d="M0 0 C1.98 0 3.96 0 6 0 C6.33 0.99 6.66 1.98 7 3 C4.69 3.33 2.38 3.66 0 4 C0 5.98 0 7.96 0 10 C-0.33 10 -0.66 10 -1 10 C-1 8.35 -1 6.7 -1 5 C-1.66 4.67 -2.32 4.34 -3 4 C-2.34 3.34 -1.68 2.68 -1 2 C-0.67 1.34 -0.34 0.68 0 0 Z " fill="#A0BCD1" transform="translate(194,132)"/>
<path d="M0 0 C0.66 0 1.32 0 2 0 C2 0.99 2 1.98 2 3 C2.66 3 3.32 3 4 3 C4 2.01 4 1.02 4 0 C4.66 0 5.32 0 6 0 C6 2.31 6 4.62 6 7 C5.34 7 4.68 7 4 7 C4 6.34 4 5.68 4 5 C3.34 5 2.68 5 2 5 C2 5.99 2 6.98 2 8 C1.34 8 0.68 8 0 8 C0 5.36 0 2.72 0 0 Z " fill="#97C6BC" transform="translate(139,119)"/>
<path d="M0 0 C1.65 0 3.3 0 5 0 C5.38218767 1.65614657 5.71395102 3.32457024 6 5 C5 6 5 6 2.4375 6.0625 C1.2309375 6.0315625 1.2309375 6.0315625 0 6 C0 4.02 0 2.04 0 0 Z " fill="#99CFC4" transform="translate(92,120)"/>
<path d="M0 0 C0.99 0 1.98 0 3 0 C3.33 1.32 3.66 2.64 4 4 C6.97 3.34 9.94 2.68 13 2 C12 4 12 4 9.375 5.125 C5.78189212 6.05654649 2.69584376 6.14783375 -1 6 C-1.042721 4.33388095 -1.04063832 2.66617115 -1 1 C-0.67 0.67 -0.34 0.34 0 0 Z " fill="#CBDDE7" transform="translate(128,77)"/>
<path d="M0 0 C0.99 0 1.98 0 3 0 C3 3.63 3 7.26 3 11 C2.01 11 1.02 11 0 11 C0 7.37 0 3.74 0 0 Z " fill="#366894" transform="translate(90,134)"/>
<path d="M0 0 C0.763125 0.20625 1.52625 0.4125 2.3125 0.625 C2.3125 1.945 2.3125 3.265 2.3125 4.625 C0.9925 4.955 -0.3275 5.285 -1.6875 5.625 C-2.0175 4.635 -2.3475 3.645 -2.6875 2.625 C-3.6775 2.295 -4.6675 1.965 -5.6875 1.625 C-2.6875 -0.375 -2.6875 -0.375 0 0 Z " fill="#4C81A9" transform="translate(135.6875,136.375)"/>
<path d="M0 0 C1.98 0 3.96 0 6 0 C6.33 2.64 6.66 5.28 7 8 C4.03 7.505 4.03 7.505 1 7 C1 5.68 1 4.36 1 3 C2.32 3 3.64 3 5 3 C5 2.34 5 1.68 5 1 C3.35 1 1.7 1 0 1 C0 0.67 0 0.34 0 0 Z " fill="#8DD0C5" transform="translate(147,98)"/>
<path d="M0 0 C2.31 0 4.62 0 7 0 C7 1.32 7 2.64 7 4 C4.69 4.66 2.38 5.32 0 6 C0 4.02 0 2.04 0 0 Z " fill="#ADD9D0" transform="translate(36,93)"/>
<path d="M0 0 C0.99 0.33 1.98 0.66 3 1 C-0.78409618 4.44008744 -3.97835137 5.99567027 -9 7 C-11.4375 6.625 -11.4375 6.625 -13 6 C-12.01 6 -11.02 6 -10 6 C-9.67 5.01 -9.34 4.02 -9 3 C-7.88625 2.87625 -6.7725 2.7525 -5.625 2.625 C-1.96896323 2.3534187 -1.96896323 2.3534187 0 0 Z " fill="#487193" transform="translate(141,75)"/>
<path d="M0 0 C0.99 0.495 0.99 0.495 2 1 C2 1.99 2 2.98 2 4 C2.66 4 3.32 4 4 4 C4 3.34 4 2.68 4 2 C4.66 2 5.32 2 6 2 C6 2.99 6 3.98 6 5 C5.01 5 4.02 5 3 5 C3.33 5.99 3.66 6.98 4 8 C3.34 8 2.68 8 2 8 C2.33 8.99 2.66 9.98 3 11 C2.34 11 1.68 11 1 11 C-0.28317892 7.15046324 -0.06643637 4.05261865 0 0 Z " fill="#B3D4E5" transform="translate(156,137)"/>
<path d="M0 0 C3 1 3 1 4 3 C4.99 3.66 5.98 4.32 7 5 C6.34 6.32 5.68 7.64 5 9 C4.01 9 3.02 9 2 9 C2 7.35 2 5.7 2 4 C1.34 4 0.68 4 0 4 C0 2.68 0 1.36 0 0 Z " fill="#9DBED4" transform="translate(16,133)"/>
<path d="M0 0 C0.99 0 1.98 0 3 0 C3.33 0.99 3.66 1.98 4 3 C4.66 2.34 5.32 1.68 6 1 C6 2.98 6 4.96 6 7 C4 7 2 7 0 7 C0 4.69 0 2.38 0 0 Z " fill="#8CC5B9" transform="translate(150,119)"/>
<path d="M0 0 C0.33 0 0.66 0 1 0 C1.12375 0.804375 1.2475 1.60875 1.375 2.4375 C1.684375 3.7059375 1.684375 3.7059375 2 5 C2.66 5.33 3.32 5.66 4 6 C3.67 7.65 3.34 9.3 3 11 C2.34 10.67 1.68 10.34 1 10 C0.67 10.66 0.34 11.32 0 12 C-1.98 12 -3.96 12 -6 12 C-5.360625 11.690625 -4.72125 11.38125 -4.0625 11.0625 C-2.06389179 10.1654837 -2.06389179 10.1654837 -1 9 C-0.76807135 7.48530552 -0.58784762 5.96245438 -0.4375 4.4375 C-0.35371094 3.61121094 -0.26992187 2.78492188 -0.18359375 1.93359375 C-0.12300781 1.29550781 -0.06242187 0.65742188 0 0 Z " fill="#E7F8FE" transform="translate(102,137)"/>
<path d="M0 0 C0.66 0 1.32 0 2 0 C2 2.64 2 5.28 2 8 C0.68 8 -0.64 8 -2 8 C-2 6.35 -2 4.7 -2 3 C-2.66 2.67 -3.32 2.34 -4 2 C-3.01 2 -2.02 2 -1 2 C-0.67 1.34 -0.34 0.68 0 0 Z " fill="#C4DEF2" transform="translate(61,134)"/>
<path d="M0 0 C0.66 0 1.32 0 2 0 C2 1.98 2 3.96 2 6 C2.99 6 3.98 6 5 6 C5 6.66 5 7.32 5 8 C3.02 8.66 1.04 9.32 -1 10 C-1.33 9.01 -1.66 8.02 -2 7 C-1.34 7 -0.68 7 0 7 C0 4.69 0 2.38 0 0 Z " fill="#B8D6D1" transform="translate(173,119)"/>
<path d="M0 0 C0.33 0 0.66 0 1 0 C1.05399736 1.45792884 1.09279177 2.91642712 1.125 4.375 C1.14820313 5.18710938 1.17140625 5.99921875 1.1953125 6.8359375 C1 9 1 9 -1 11 C-3.625 10.625 -3.625 10.625 -6 10 C-6 9.34 -6 8.68 -6 8 C-4.35 7.67 -2.7 7.34 -1 7 C-0.67 4.69 -0.34 2.38 0 0 Z " fill="#4E7BA3" transform="translate(164,137)"/>
<path d="M0 0 C0.33 0.99 0.66 1.98 1 3 C1.66 2.01 2.32 1.02 3 0 C3 2.64 3 5.28 3 8 C1.68 8 0.36 8 -1 8 C-1 6.35 -1 4.7 -1 3 C-1.66 2.67 -2.32 2.34 -3 2 C-2.01 1.34 -1.02 0.68 0 0 Z " fill="#C9DFEE" transform="translate(123,134)"/>
<path d="M0 0 C2.475 0.495 2.475 0.495 5 1 C5 2.32 5 3.64 5 5 C4.01 5 3.02 5 2 5 C2 5.66 2 6.32 2 7 C1.34 7 0.68 7 0 7 C0 4.69 0 2.38 0 0 Z " fill="#92C9BE" transform="translate(55,119)"/>
<path d="M0 0 C0.33 0.99 0.66 1.98 1 3 C1.99 3.33 2.98 3.66 4 4 C5.38671875 5.62890625 5.38671875 5.62890625 6.6875 7.5625 C7.12449219 8.20316406 7.56148438 8.84382813 8.01171875 9.50390625 C8.50091797 10.24447266 8.50091797 10.24447266 9 11 C6 11 6 11 4.39453125 9.609375 C3.87246094 8.99578125 3.35039063 8.3821875 2.8125 7.75 C2.28269531 7.14671875 1.75289063 6.5434375 1.20703125 5.921875 C0 4 0 4 0 0 Z " fill="#497297" transform="translate(101,65)"/>
<path d="M0 0 C0.66 0 1.32 0 2 0 C2 1.65 2 3.3 2 5 C2.99 5 3.98 5 5 5 C5 3.35 5 1.7 5 0 C5.33 0 5.66 0 6 0 C6 2.31 6 4.62 6 7 C4.02 7 2.04 7 0 7 C0 4.69 0 2.38 0 0 Z " fill="#265E8E" transform="translate(191,137)"/>
<path d="M0 0 C0.66 0 1.32 0 2 0 C2.33 2.31 2.66 4.62 3 7 C1.68 6.34 0.36 5.68 -1 5 C-1.66 5.66 -2.32 6.32 -3 7 C-2.25 2.25 -2.25 2.25 0 0 Z " fill="#9AD7CC" transform="translate(165,98)"/>
<path d="M0 0 C3.3 0 6.6 0 10 0 C9.01 0.495 9.01 0.495 8 1 C8 3.64 8 6.28 8 9 C7.67 9 7.34 9 7 9 C6.67 6.69 6.34 4.38 6 2 C4.02 2.33 2.04 2.66 0 3 C0 2.01 0 1.02 0 0 Z " fill="#7B9DB9" transform="translate(141,133)"/>
<path d="M0 0 C1.65 0 3.3 0 5 0 C4.67 2.31 4.34 4.62 4 7 C2.68 7 1.36 7 0 7 C0 4.69 0 2.38 0 0 Z " fill="#8FC6BB" transform="translate(82,119)"/>
<path d="M0 0 C0.66 0 1.32 0 2 0 C2.66 2.31 3.32 4.62 4 7 C2.02 7 0.04 7 -2 7 C-1.125 1.125 -1.125 1.125 0 0 Z " fill="#8CC6BB" transform="translate(36,119)"/>
<path d="M0 0 C0.763125 0.20625 1.52625 0.4125 2.3125 0.625 C1.6525 2.275 0.9925 3.925 0.3125 5.625 C-0.6775 5.295 -1.6675 4.965 -2.6875 4.625 C-3.0175 3.965 -3.3475 3.305 -3.6875 2.625 C-4.3475 2.295 -5.0075 1.965 -5.6875 1.625 C-2.6875 -0.375 -2.6875 -0.375 0 0 Z " fill="#5B8FB1" transform="translate(72.6875,136.375)"/>
<path d="M0 0 C2.475 0.495 2.475 0.495 5 1 C4.67 2.32 4.34 3.64 4 5 C3.01 5 2.02 5 1 5 C0.67 5.66 0.34 6.32 0 7 C0 4.69 0 2.38 0 0 Z " fill="#91C5BB" transform="translate(45,119)"/>
<path d="M0 0 C0.99 0 1.98 0 3 0 C3 0.99 3 1.98 3 3 C4.32 3.33 5.64 3.66 7 4 C6.34 4.66 5.68 5.32 5 6 C5 6.99 5 7.98 5 9 C4.01 9 3.02 9 2 9 C2 6.36 2 3.72 2 1 C1.34 0.67 0.68 0.34 0 0 Z " fill="#B6D5E7" transform="translate(126,133)"/>
<path d="M0 0 C2.64 0.33 5.28 0.66 8 1 C7.01 1.495 7.01 1.495 6 2 C6 3.65 6 5.3 6 7 C5.01 7 4.02 7 3 7 C3 5.02 3 3.04 3 1 C2.01 0.67 1.02 0.34 0 0 Z " fill="#D8EEFA" transform="translate(173,135)"/>
<path d="M0 0 C1.98 0 3.96 0 6 0 C6 0.66 6 1.32 6 2 C5.34 2 4.68 2 4 2 C4 3.98 4 5.96 4 8 C3.34 8 2.68 8 2 8 C2 6.02 2 4.04 2 2 C1.34 2 0.68 2 0 2 C0 1.34 0 0.68 0 0 Z " fill="#9AC9BE" transform="translate(108,119)"/>
<path d="M0 0 C0.99 1.485 0.99 1.485 2 3 C2.66 3 3.32 3 4 3 C3.4740625 3.804375 3.4740625 3.804375 2.9375 4.625 C1.71075751 7.73274763 2.27143569 9.79431703 3 13 C2.01 13 1.02 13 0 13 C0 8.71 0 4.42 0 0 Z " fill="#E5F9F6" transform="translate(161,94)"/>
<path d="M0 0 C0.66 0.33 1.32 0.66 2 1 C2 3.97 2 6.94 2 10 C1.34 10 0.68 10 0 10 C0 10.66 0 11.32 0 12 C-0.99 11.67 -1.98 11.34 -3 11 C-3 10.34 -3 9.68 -3 9 C-1.68 9 -0.36 9 1 9 C0.67 6.03 0.34 3.06 0 0 Z " fill="#D6EEFA" transform="translate(118,26)"/>
<path d="M0 0 C0.33 0.99 0.66 1.98 1 3 C0.34 3 -0.32 3 -1 3 C-1 4.65 -1 6.3 -1 8 C-1.99 8 -2.98 8 -4 8 C-4.25 5.6875 -4.25 5.6875 -4 3 C-2 1.1875 -2 1.1875 0 0 Z " fill="#2F6391" transform="translate(109,140)"/>
<path d="M0 0 C0.66 0 1.32 0 2 0 C2 1.65 2 3.3 2 5 C2.99 5.33 3.98 5.66 5 6 C2.36 6.33 -0.28 6.66 -3 7 C-3 6.34 -3 5.68 -3 5 C-2.01 5 -1.02 5 0 5 C0 3.35 0 1.7 0 0 Z " fill="#18598E" transform="translate(16,137)"/>
<path d="M0 0 C1.32 0.33 2.64 0.66 4 1 C4 2.65 4 4.3 4 6 C2.68 6 1.36 6 0 6 C0 4.02 0 2.04 0 0 Z " fill="#E5FBFE" transform="translate(199,136)"/>
<path d="M0 0 C1.65 0.33 3.3 0.66 5 1 C5 1.99 5 2.98 5 4 C3.35 4 1.7 4 0 4 C-0.33 4.99 -0.66 5.98 -1 7 C-0.67 4.69 -0.34 2.38 0 0 Z " fill="#8DA8BC" transform="translate(216,131)"/>
<path d="M0 0 C1.32 0 2.64 0 4 0 C4 0.66 4 1.32 4 2 C2.68 2 1.36 2 0 2 C0.75150023 5.27773504 0.75150023 5.27773504 4 7 C2.35 7 0.7 7 -1 7 C-1.625 4.625 -1.625 4.625 -2 2 C-1.34 1.34 -0.68 0.68 0 0 Z " fill="#92C3B8" transform="translate(130,119)"/>
<path d="M0 0 C1.65 0 3.3 0 5 0 C5.33 1.32 5.66 2.64 6 4 C4.02 4 2.04 4 0 4 C0 2.68 0 1.36 0 0 Z " fill="#D0F4F1" transform="translate(84,101)"/>
<path d="M0 0 C2.31 0 4.62 0 7 0 C7 0.99 7 1.98 7 3 C5.35 3.33 3.7 3.66 2 4 C1.34 2.68 0.68 1.36 0 0 Z " fill="#A1D2C9" transform="translate(95,94)"/>
<path d="M0 0 C0.33 0 0.66 0 1 0 C1.33 4.62 1.66 9.24 2 14 C0.68 14 -0.64 14 -2 14 C-2 13.01 -2 12.02 -2 11 C-1.34 11 -0.68 11 0 11 C0 7.37 0 3.74 0 0 Z " fill="#BED6E6" transform="translate(104,54)"/>
<path d="M0 0 C0.66 0 1.32 0 2 0 C2 1.98 2 3.96 2 6 C2.99 6 3.98 6 5 6 C5 6.66 5 7.32 5 8 C3.35 8 1.7 8 0 8 C0 5.36 0 2.72 0 0 Z " fill="#A5C7C0" transform="translate(65,119)"/>
<path d="M0 0 C2.64 0 5.28 0 8 0 C8 0.33 8 0.66 8 1 C7.071875 1.28875 6.14375 1.5775 5.1875 1.875 C1.90208333 2.8875 1.90208333 2.8875 -1 5 C-4.1875 5.125 -4.1875 5.125 -7 5 C-7 4.67 -7 4.34 -7 4 C-6.030625 3.71125 -5.06125 3.4225 -4.0625 3.125 C-0.89335797 2.35785318 -0.89335797 2.35785318 0 0 Z " fill="#E5FCF8" transform="translate(153,108)"/>
<path d="M0 0 C0 2.31 0 4.62 0 7 C-0.99 7.33 -1.98 7.66 -3 8 C-3.33 5.69 -3.66 3.38 -4 1 C-2 0 -2 0 0 0 Z " fill="#F0FAF8" transform="translate(104,96)"/>
<path d="M0 0 C1.98 0 3.96 0 6 0 C6 0.99 6 1.98 6 3 C3.69 3.33 1.38 3.66 -1 4 C-0.67 2.68 -0.34 1.36 0 0 Z " fill="#DEEDF7" transform="translate(133,75)"/>
<path d="M0 0 C0.33 0 0.66 0 1 0 C1.66 3.3 2.32 6.6 3 10 C1.68 10.33 0.36 10.66 -1 11 C-0.67 7.37 -0.34 3.74 0 0 Z " fill="#265F8F" transform="translate(134,26)"/>
<path d="M0 0 C0.99 0.33 1.98 0.66 3 1 C3 2.32 3 3.64 3 5 C1.35 5.33 -0.3 5.66 -2 6 C-1.125 1.125 -1.125 1.125 0 0 Z " fill="#4F87B1" transform="translate(240,137)"/>
<path d="M0 0 C0.33 0 0.66 0 1 0 C1 2.64 1 5.28 1 8 C0.01 8 -0.98 8 -2 8 C-2.125 5.125 -2.125 5.125 -2 2 C-1.34 1.34 -0.68 0.68 0 0 Z " fill="#E8F9FE" transform="translate(147,134)"/>
<path d="M0 0 C0.33 0 0.66 0 1 0 C1 2.64 1 5.28 1 8 C0.01 8 -0.98 8 -2 8 C-2.125 5.125 -2.125 5.125 -2 2 C-1.34 1.34 -0.68 0.68 0 0 Z " fill="#E8FAFE" transform="translate(84,134)"/>
<path d="M0 0 C0.99 0.495 0.99 0.495 2 1 C2 1.66 2 2.32 2 3 C3.98 3 5.96 3 8 3 C8 3.66 8 4.32 8 5 C5.36 5 2.72 5 0 5 C0 3.35 0 1.7 0 0 Z " fill="#EBFBFC" transform="translate(178,99)"/>
<path d="M0 0 C2.76223278 2.76223278 2.57856291 5.20706617 3 9 C1.68 8.67 0.36 8.34 -1 8 C-0.67 5.36 -0.34 2.72 0 0 Z " fill="#1E5A8A" transform="translate(116,26)"/>
<path d="M0 0 C0.66 0 1.32 0 2 0 C2.33 1.98 2.66 3.96 3 6 C1.02 6 -0.96 6 -3 6 C-2.67 5.34 -2.34 4.68 -2 4 C-1.34 4 -0.68 4 0 4 C-0.33 3.01 -0.66 2.02 -1 1 C-0.67 0.67 -0.34 0.34 0 0 Z " fill="#427096" transform="translate(25,133)"/>
<path d="M0 0 C0.66 0 1.32 0 2 0 C1.67 3.96 1.34 7.92 1 12 C0.67 12 0.34 12 0 12 C0 9.36 0 6.72 0 4 C-0.66 3.67 -1.32 3.34 -2 3 C-1.34 2.01 -0.68 1.02 0 0 Z " fill="#BDD3E6" transform="translate(65,130)"/>
<path d="M0 0 C0.66 0 1.32 0 2 0 C1.34 2.31 0.68 4.62 0 7 C-0.66 7 -1.32 7 -2 7 C-2.66 5.02 -3.32 3.04 -4 1 C-2.68 1.33 -1.36 1.66 0 2 C0 1.34 0 0.68 0 0 Z " fill="#91C7BA" transform="translate(210,119)"/>
<path d="M0 0 C0.66 0.33 1.32 0.66 2 1 C2 3.31 2 5.62 2 8 C1.01 8 0.02 8 -1 8 C-0.67 5.36 -0.34 2.72 0 0 Z " fill="#EDFAF9" transform="translate(192,96)"/>
<path d="M0 0 C0.99 0 1.98 0 3 0 C2.45276317 3.37462715 1.9451 5.08235 0 8 C-0.38063221 5.6739143 -0.71269945 3.33944736 -1 1 C-0.67 0.67 -0.34 0.34 0 0 Z " fill="#3F7099" transform="translate(142,59)"/>
<path d="M0 0 C0.33 0 0.66 0 1 0 C1.33 2.64 1.66 5.28 2 8 C3.65 8 5.3 8 7 8 C7 8.66 7 9.32 7 10 C5.0085944 10.38133299 3.00720923 10.71325582 1 11 C0 10 0 10 -0.09765625 7.71484375 C-0.08605469 6.79832031 -0.07445313 5.88179687 -0.0625 4.9375 C-0.05347656 4.01839844 -0.04445313 3.09929688 -0.03515625 2.15234375 C-0.02355469 1.44207031 -0.01195313 0.73179688 0 0 Z " fill="#CDE2F0" transform="translate(125,52)"/>
<path d="M0 0 C0.99 0 1.98 0 3 0 C3.33 1.65 3.66 3.3 4 5 C3.01 5.66 2.02 6.32 1 7 C0.67 4.69 0.34 2.38 0 0 Z " fill="#336C9B" transform="translate(0,139)"/>
<path d="M0 0 C0.66 1.32 1.32 2.64 2 4 C2.66 3.34 3.32 2.68 4 2 C4 3.65 4 5.3 4 7 C2.68 6.67 1.36 6.34 0 6 C0 4.68 0 3.36 0 2 C-0.99 1.67 -1.98 1.34 -3 1 C-2.01 0.67 -1.02 0.34 0 0 Z " fill="#CAE2F2" transform="translate(3,137)"/>
<path d="M0 0 C1.98 0 3.96 0 6 0 C6 0.99 6 1.98 6 3 C3.69 3 1.38 3 -1 3 C-0.67 2.01 -0.34 1.02 0 0 Z " fill="#91C8C0" transform="translate(46,109)"/>
<path d="M0 0 C0.33 0 0.66 0 1 0 C1.33 2.64 1.66 5.28 2 8 C2.99 8.33 3.98 8.66 5 9 C4.67 9.66 4.34 10.32 4 11 C2.68 10.67 1.36 10.34 0 10 C0 6.7 0 3.4 0 0 Z " fill="#2E6088" transform="translate(109,53)"/>
<path d="M0 0 C0.33 0.66 0.66 1.32 1 2 C1.66 2 2.32 2 3 2 C3 2.99 3 3.98 3 5 C1.35 5.33 -0.3 5.66 -2 6 C-1.125 1.125 -1.125 1.125 0 0 Z " fill="#5D92B7" transform="translate(170,137)"/>
<path d="M0 0 C1.98 0 3.96 0 6 0 C6.33 0.99 6.66 1.98 7 3 C4.69 3 2.38 3 0 3 C0 2.01 0 1.02 0 0 Z " fill="#90C6BD" transform="translate(126,109)"/>
<path d="M0 0 C1.98 0 3.96 0 6 0 C6 0.99 6 1.98 6 3 C3.69 3 1.38 3 -1 3 C-0.67 2.01 -0.34 1.02 0 0 Z " fill="#91C7BD" transform="translate(66,109)"/>
<path d="M0 0 C2.31 0 4.62 0 7 0 C6.01 1.485 6.01 1.485 5 3 C2.375 3.1875 2.375 3.1875 0 3 C0 2.01 0 1.02 0 0 Z " fill="#84C5B9" transform="translate(146,109)"/>
<path d="M0 0 C0.99 0 1.98 0 3 0 C3 2.31 3 4.62 3 7 C2.01 6.67 1.02 6.34 0 6 C0 4.02 0 2.04 0 0 Z " fill="#80C5B8" transform="translate(75,98)"/>
<path d="M0 0 C1.65 0 3.3 0 5 0 C4.67 1.32 4.34 2.64 4 4 C2.68 3.67 1.36 3.34 0 3 C0 2.01 0 1.02 0 0 Z " fill="#A4B8C5" transform="translate(141,53)"/>
<path d="M0 0 C1.98 0 3.96 0 6 0 C6 0.99 6 1.98 6 3 C2.25 4.125 2.25 4.125 0 3 C0 2.01 0 1.02 0 0 Z " fill="#7495B0" transform="translate(181,146)"/>
<path d="M0 0 C1.65 0 3.3 0 5 0 C5 0.99 5 1.98 5 3 C3.02 3 1.04 3 -1 3 C-0.67 2.01 -0.34 1.02 0 0 Z " fill="#6796B6" transform="translate(119,145)"/>
<path d="M0 0 C1.65 0 3.3 0 5 0 C5 0.99 5 1.98 5 3 C3.02 3 1.04 3 -1 3 C-0.67 2.01 -0.34 1.02 0 0 Z " fill="#6B96B6" transform="translate(56,145)"/>
<path d="M0 0 C0.66 0 1.32 0 2 0 C2 1.65 2 3.3 2 5 C2.66 5.33 3.32 5.66 4 6 C2.35 6 0.7 6 -1 6 C-1.33 5.34 -1.66 4.68 -2 4 C-1.34 4 -0.68 4 0 4 C0 2.68 0 1.36 0 0 Z " fill="#5D91B9" transform="translate(217,139)"/>
<path d="M0 0 C0.66 0 1.32 0 2 0 C1.67 1.98 1.34 3.96 1 6 C0.01 6 -0.98 6 -2 6 C-1.125 1.125 -1.125 1.125 0 0 Z " fill="#296190" transform="translate(216,137)"/>
<path d="M0 0 C3 2 3 2 3.6875 5.125 C3.8421875 6.548125 3.8421875 6.548125 4 8 C3.01 8 2.02 8 1 8 C0.67 5.36 0.34 2.72 0 0 Z " fill="#DDF0FA" transform="translate(27,134)"/>
<path d="M0 0 C0.66 0 1.32 0 2 0 C2.33 1.65 2.66 3.3 3 5 C1.68 5 0.36 5 -1 5 C-1.33 4.01 -1.66 3.02 -2 2 C-1.34 1.34 -0.68 0.68 0 0 Z " fill="#5D97BD" transform="translate(96,137)"/>
<path d="M0 0 C0.99 0 1.98 0 3 0 C3 1.98 3 3.96 3 6 C2.01 6 1.02 6 0 6 C0 4.02 0 2.04 0 0 Z " fill="#77BCAF" transform="translate(97,98)"/>
<path d="M0 0 C0.99 0.33 1.98 0.66 3 1 C3 2.65 3 4.3 3 6 C2.01 6 1.02 6 0 6 C0 4.02 0 2.04 0 0 Z " fill="#EDFBFA" transform="translate(71,98)"/>
<path d="M0 0 C0.99 0 1.98 0 3 0 C2.34 3.3 1.68 6.6 1 10 C0.67 10 0.34 10 0 10 C0 6.7 0 3.4 0 0 Z " fill="#76BDAF" transform="translate(81,94)"/>
<path d="M0 0 C0.99 1.32 1.98 2.64 3 4 C2.01 4 1.02 4 0 4 C0 5.65 0 7.3 0 9 C-0.33 9 -0.66 9 -1 9 C-1.625 5.625 -1.625 5.625 -2 2 C-1.34 1.34 -0.68 0.68 0 0 Z " fill="#9BC0DD" transform="translate(107,42)"/>
</svg>
