<?xml version="1.0" encoding="UTF-8"?>
<svg version="1.1" xmlns="http://www.w3.org/2000/svg" width="166" height="80">
<path d="M0 0 C54.78 0 109.56 0 166 0 C166 26.4 166 52.8 166 80 C111.22 80 56.44 80 0 80 C0 53.6 0 27.2 0 0 Z " fill="#F2F2F2" transform="translate(0,0)"/>
<path d="M0 0 C2 2 2 2 2.125 4.625 C2.08375 5.40875 2.0425 6.1925 2 7 C1.67 6.34 1.34 5.68 1 5 C0.34 5 -0.32 5 -1 5 C-1 5.66 -1 6.32 -1 7 C-1.66 7 -2.32 7 -3 7 C-3 8.98 -3 10.96 -3 13 C-0.525 13.495 -0.525 13.495 2 14 C4.60674157 23.4494382 4.60674157 23.4494382 4 28 C3.34 28.721875 2.68 29.44375 2 30.1875 C-0.6388278 33.8983516 -0.28591959 36.45184748 -0.04296875 40.890625 C-0.00850682 43.3844159 -0.14998521 45.58385607 -0.453125 48.04296875 C-1.17672198 54.03347465 -1.35036744 60.03584871 -1.5625 66.0625 C-1.60568359 67.21427734 -1.64886719 68.36605469 -1.69335938 69.55273438 C-1.79850802 72.36838151 -1.89966363 75.18417728 -2 78 C-8.6 78 -15.2 78 -22 78 C-22 72 -22 72 -21 71 C-20.92346054 68.80331763 -20.91711743 66.60417089 -20.9375 64.40625 C-20.94609534 62.98348061 -20.95455251 61.56071038 -20.96289062 60.13793945 C-20.97219604 59.00372055 -20.97219604 59.00372055 -20.98168945 57.84658813 C-21.08720037 44.32483626 -20.94738956 30.82726792 -20.5 17.3125 C-20.47599121 16.58514648 -20.45198242 15.85779297 -20.42724609 15.10839844 C-20.29233178 11.07198251 -20.14975773 7.03589106 -20 3 C-19.67 3 -19.34 3 -19 3 C-19 10.26 -19 17.52 -19 25 C-18.01 25 -17.02 25 -16 25 C-15.34 25.99 -14.68 26.98 -14 28 C-13.401875 27.34 -12.80375 26.68 -12.1875 26 C-10 24 -10 24 -7 24 C-6.67 23.34 -6.34 22.68 -6 22 C-5.33333333 20.66666667 -4.66666667 19.33333333 -4 18 C-5.32 18 -6.64 18 -8 18 C-7.67 16.68 -7.34 15.36 -7 14 C-6.34 14 -5.68 14 -5 14 C-5 11.69 -5 9.38 -5 7 C-6.32 7 -7.64 7 -9 7 C-9.25 4.6875 -9.25 4.6875 -9 2 C-6.07557433 -1.24936186 -4.04996841 -1.38551551 0 0 Z " fill="#C59430" transform="translate(159,2)"/>
<path d="M0 0 C10.56 0 21.12 0 32 0 C32 26.4 32 52.8 32 80 C29.03 80 26.06 80 23 80 C22.80360016 54.34715938 22.80360016 54.34715938 23.78125 43.76953125 C24.05570385 40.92845856 24.05570385 40.92845856 23.90625 37.78515625 C24 35 24 35 26 32.625 C28.66721965 29.12427421 28.43273126 26.18851196 28 22 C27.71325582 19.99279077 27.39764263 17.98821313 27 16 C24.525 15.505 24.525 15.505 22 15 C22 13.02 22 11.04 22 9 C22.66 9 23.32 9 24 9 C24 8.34 24 7.68 24 7 C24.66 7 25.32 7 26 7 C25.67 5.68 25.34 4.36 25 3 C22.64632287 2.3121764 22.64632287 2.3121764 20 2 C19.01 2.66 18.02 3.32 17 4 C17.33 5.65 17.66 7.3 18 9 C18.66 9 19.32 9 20 9 C20 11.31 20 13.62 20 16 C19.34 16.33 18.68 16.66 18 17 C17.67 17.99 17.34 18.98 17 20 C18.32 20 19.64 20 21 20 C20.67 21.98 20.34 23.96 20 26 C17.69 26.33 15.38 26.66 13 27 C12.01 29.475 12.01 29.475 11 32 C9 29 9 29 9 27 C8.01 27 7.02 27 6 27 C6 19.41 6 11.82 6 4 C3.525 3.01 3.525 3.01 1 2 C0.67 1.34 0.34 0.68 0 0 Z " fill="#F7F5F3" transform="translate(134,0)"/>
<path d="M0 0 C10.56 0 21.12 0 32 0 C32 6.93 32 13.86 32 21 C31.01 20.67 30.02 20.34 29 20 C29.3403125 18.8553125 29.3403125 18.8553125 29.6875 17.6875 C29.790625 16.800625 29.89375 15.91375 30 15 C28.58333333 13.41666667 28.58333333 13.41666667 27 12 C27 10.68 27 9.36 27 8 C26.43088211 5.28524895 26.43088211 5.28524895 25 3 C22.59889783 1.91975342 22.59889783 1.91975342 20 2 C19.01 2.66 18.02 3.32 17 4 C17.33 5.65 17.66 7.3 18 9 C18.66 9 19.32 9 20 9 C20 11.31 20 13.62 20 16 C19.34 16.33 18.68 16.66 18 17 C17.67 17.99 17.34 18.98 17 20 C18.32 20 19.64 20 21 20 C20.67 21.98 20.34 23.96 20 26 C17.69 26.33 15.38 26.66 13 27 C12.01 29.475 12.01 29.475 11 32 C9 29 9 29 9 27 C8.01 27 7.02 27 6 27 C6 19.41 6 11.82 6 4 C3.525 3.01 3.525 3.01 1 2 C0.67 1.34 0.34 0.68 0 0 Z " fill="#F5F6F5" transform="translate(134,0)"/>
<path d="M0 0 C-0.01160156 0.78503906 -0.02320313 1.57007813 -0.03515625 2.37890625 C-0.10063353 8.95860924 -0.10063353 8.95860924 0.5 15.5 C1.43678496 22.05749471 2.25827337 30.70909561 0 37 C-3.20822874 39.09232309 -5.15947088 40 -9 40 C-9.80984194 35.04847505 -10.1178734 30.35047725 -10.09765625 25.31640625 C-10.0962413 24.61603745 -10.09482635 23.91566864 -10.09336853 23.19407654 C-10.08782477 20.98350534 -10.07528326 18.77303996 -10.0625 16.5625 C-10.05747771 15.05273585 -10.05291609 13.54297009 -10.04882812 12.03320312 C-10.03787387 8.35543507 -10.0206489 4.67772788 -10 1 C-3.375 0 -3.375 0 0 0 Z " fill="#F7F6F6" transform="translate(150,40)"/>
<path d="M0 0 C0 0.99 0 1.98 0 3 C0.66 3 1.32 3 2 3 C2.90395771 7.72066803 2.85672161 11.5123479 2.27368164 16.31811523 C1.73973784 21.55038343 1.62243997 26.80838566 1.4375 32.0625 C1.39431641 33.21427734 1.35113281 34.36605469 1.30664062 35.55273438 C1.20149198 38.36838151 1.10033637 41.18417728 1 44 C-3.29 44 -7.58 44 -12 44 C-8 41 -8 41 -6 41 C-5.97281684 38.14576808 -5.95307295 35.29179985 -5.9375 32.4375 C-5.92912109 31.63763672 -5.92074219 30.83777344 -5.91210938 30.01367188 C-5.8926037 25.23478117 -6.25447615 20.73320953 -7 16 C-7.5257732 6.19587629 -7.5257732 6.19587629 -6 2 C-3.84898936 0.54286376 -2.59713506 0 0 0 Z " fill="#8A7A57" transform="translate(156,36)"/>
<path d="M0 0 C0.66 0 1.32 0 2 0 C2 3.63 2 7.26 2 11 C15.86 11 29.72 11 44 11 C44 8.69 44 6.38 44 4 C48.95 4 53.9 4 59 4 C59 6.31 59 8.62 59 11 C61.64 11 64.28 11 67 11 C67 8.36 67 5.72 67 3 C66.01 3 65.02 3 64 3 C64 2.34 64 1.68 64 1 C65.65 1 67.3 1 69 1 C69 4.96 69 8.92 69 13 C46.23 13 23.46 13 0 13 C0 8.71 0 4.42 0 0 Z " fill="#2E2E2E" transform="translate(22,22)"/>
<path d="M0 0 C2 2 2 2 2.125 4.625 C2.08375 5.40875 2.0425 6.1925 2 7 C1.67 6.34 1.34 5.68 1 5 C0.34 5 -0.32 5 -1 5 C-1 5.66 -1 6.32 -1 7 C-1.66 7 -2.32 7 -3 7 C-3 8.98 -3 10.96 -3 13 C-1.35 13.33 0.3 13.66 2 14 C4.125 21.625 4.125 21.625 3 25 C1.15234375 26.60546875 1.15234375 26.60546875 -1.0625 28.1875 C-1.79597656 28.71730469 -2.52945313 29.24710938 -3.28515625 29.79296875 C-3.85105469 30.19128906 -4.41695312 30.58960937 -5 31 C-5.33 29.68 -5.66 28.36 -6 27 C-6.66 27.33 -7.32 27.66 -8 28 C-8.33 26.68 -8.66 25.36 -9 24 C-8.34 24 -7.68 24 -7 24 C-6.67 23.34 -6.34 22.68 -6 22 C-5.33333333 20.66666667 -4.66666667 19.33333333 -4 18 C-5.32 18 -6.64 18 -8 18 C-7.67 16.68 -7.34 15.36 -7 14 C-6.34 14 -5.68 14 -5 14 C-5 11.69 -5 9.38 -5 7 C-6.32 7 -7.64 7 -9 7 C-9.25 4.6875 -9.25 4.6875 -9 2 C-6.07557433 -1.24936186 -4.04996841 -1.38551551 0 0 Z " fill="#4A3522" transform="translate(159,2)"/>
<path d="M0 0 C0.66 0 1.32 0 2 0 C2 3.63 2 7.26 2 11 C2.66 11 3.32 11 4 11 C4 9.02 4 7.04 4 5 C5.32 4.67 6.64 4.34 8 4 C8.33 5.32 8.66 6.64 9 8 C8.34 8 7.68 8 7 8 C6.67 8.99 6.34 9.98 6 11 C7.98 11 9.96 11 12 11 C12 8.69 12 6.38 12 4 C14.475 4.495 14.475 4.495 17 5 C17 6.98 17 8.96 17 11 C17.99 11 18.98 11 20 11 C20 7.37 20 3.74 20 0 C20.66 0 21.32 0 22 0 C22 4.29 22 8.58 22 13 C14.08 13 6.16 13 -2 13 C-2 14.32 -2 15.64 -2 17 C-2.66 17 -3.32 17 -4 17 C-4 15.68 -4 14.36 -4 13 C-5.32 13 -6.64 13 -8 13 C-8.09765625 6.84765625 -8.09765625 6.84765625 -8 5 C-7 4 -7 4 -4.4375 3.9375 C-3.2309375 3.9684375 -3.2309375 3.9684375 -2 4 C-2 6.31 -2 8.62 -2 11 C-1.34 11 -0.68 11 0 11 C0 7.37 0 3.74 0 0 Z " fill="#1D1D1D" transform="translate(34,43)"/>
<path d="M0 0 C0.66 0.33 1.32 0.66 2 1 C1.67 1.66 1.34 2.32 1 3 C2.65 3.66 4.3 4.32 6 5 C6 6.98 6 8.96 6 11 C6.66 11 7.32 11 8 11 C8 8.69 8 6.38 8 4 C7.34 4 6.68 4 6 4 C6 3.01 6 2.02 6 1 C7.32 1 8.64 1 10 1 C11 4 11 4 11 13 C3.74 13 -3.52 13 -11 13 C-11 14.32 -11 15.64 -11 17 C-11.66 17 -12.32 17 -13 17 C-13 15.68 -13 14.36 -13 13 C-13.99 12.67 -14.98 12.34 -16 12 C-15.01 12 -14.02 12 -13 12 C-13.33 10.35 -13.66 8.7 -14 7 C-14.66 8.32 -15.32 9.64 -16 11 C-16 9.02 -16 7.04 -16 5 C-14.35 4.67 -12.7 4.34 -11 4 C-11 6.31 -11 8.62 -11 11 C-10.01 11 -9.02 11 -8 11 C-8 8.69 -8 6.38 -8 4 C-7.34 4 -6.68 4 -6 4 C-6 6.31 -6 8.62 -6 11 C-2.7 11 0.6 11 4 11 C4 9.35 4 7.7 4 6 C2.02 6 0.04 6 -2 6 C-1.125 1.125 -1.125 1.125 0 0 Z " fill="#161616" transform="translate(113,43)"/>
<path d="M0 0 C0.99 0 1.98 0 3 0 C3.02468646 4.66308199 3.04285349 9.32612608 3.05493164 13.98925781 C3.05996588 15.57617861 3.06679369 17.16309477 3.07543945 18.75 C3.08754482 21.02865749 3.09323733 23.30725376 3.09765625 25.5859375 C3.10281754 26.29744965 3.10797882 27.00896179 3.11329651 27.74203491 C3.11387171 32.77225659 3.11387171 32.77225659 2 35 C2.99 35.33 3.98 35.66 5 36 C5 36.99 5 37.98 5 39 C1.04 39 -2.92 39 -7 39 C-3 36 -3 36 -1 36 C-0.82871395 23.60733601 -0.82871395 23.60733601 -1.625 11.25 C-2.05512612 7.00766017 -1.86400909 3.94731338 0 0 Z " fill="#AD8F4C" transform="translate(151,41)"/>
<path d="M0 0 C1.65 0 3.3 0 5 0 C5 3.96 5 7.92 5 12 C-2.75864831 12.08253881 -10.30088239 11.97325189 -18 11 C-18.042721 9.33388095 -18.04063832 7.66617115 -18 6 C-17 5 -17 5 -14.75 4.9375 C-12.91666667 4.97916667 -11.08333333 5.02083333 -9.25 5.0625 C-7.02965595 5.25872256 -7.02965595 5.25872256 -6 4 C-9.3 4 -12.6 4 -16 4 C-16 3.67 -16 3.34 -16 3 C-12.37 3 -8.74 3 -5 3 C-5 5.31 -5 7.62 -5 10 C-2.36 10 0.28 10 3 10 C3 7.36 3 4.72 3 2 C2.01 2 1.02 2 0 2 C0 1.34 0 0.68 0 0 Z " fill="#383838" transform="translate(86,23)"/>
<path d="M0 0 C0.99 0.66 1.98 1.32 3 2 C2.67 2.99 2.34 3.98 2 5 C3.32 5 4.64 5 6 5 C5.67 6.98 5.34 8.96 5 11 C2.69 11.33 0.38 11.66 -2 12 C-2.66 13.65 -3.32 15.3 -4 17 C-6 14 -6 14 -6 12 C-6.99 12 -7.98 12 -9 12 C-9 9.69 -9 7.38 -9 5 C-8.43410156 4.89042969 -7.86820313 4.78085937 -7.28515625 4.66796875 C-6.18494141 4.43013672 -6.18494141 4.43013672 -5.0625 4.1875 C-4.33160156 4.03667969 -3.60070312 3.88585937 -2.84765625 3.73046875 C-2.23792969 3.48941406 -1.62820312 3.24835937 -1 3 C-0.67 2.01 -0.34 1.02 0 0 Z " fill="#E8E2D6" transform="translate(149,15)"/>
<path d="M0 0 C0.33 0 0.66 0 1 0 C1 10.89 1 21.78 1 33 C1.99 33 2.98 33 4 33 C4 33.99 4 34.98 4 36 C3.01 36 2.02 36 1 36 C1.33 48.87 1.66 61.74 2 75 C0.68 74.67 -0.64 74.34 -2 74 C-2.042721 72.33388095 -2.04063832 70.66617115 -2 69 C-1.505 68.505 -1.505 68.505 -1 68 C-0.92346054 65.80331763 -0.91711743 63.60417089 -0.9375 61.40625 C-0.94609534 59.98348061 -0.95455251 58.56071038 -0.96289062 57.13793945 C-0.97219604 56.00372055 -0.97219604 56.00372055 -0.98168945 54.84658813 C-1.08720037 41.32483626 -0.94738956 27.82726792 -0.5 14.3125 C-0.47599121 13.58514648 -0.45198242 12.85779297 -0.42724609 12.10839844 C-0.29233178 8.07198251 -0.14975773 4.03589106 0 0 Z " fill="#4A452F" transform="translate(139,5)"/>
<path d="M0 0 C0.66 0 1.32 0 2 0 C2 3.63 2 7.26 2 11 C3.32 11 4.64 11 6 11 C6 8.69 6 6.38 6 4 C6.66 4 7.32 4 8 4 C8 6.31 8 8.62 8 11 C10.31 11 12.62 11 15 11 C14.73323796 9.01508358 14.73323796 9.01508358 14 7 C13.01 6.67 12.02 6.34 11 6 C11 5.34 11 4.68 11 4 C12.65 4.33 14.3 4.66 16 5 C18 10.75 18 10.75 18 13 C17.01 13 16.02 13 15 13 C15 13.99 15 14.98 15 16 C14.01 16 13.02 16 12 16 C12 15.34 12 14.68 12 14 C8.04 13.67 4.08 13.34 0 13 C0 8.71 0 4.42 0 0 Z " fill="#292929" transform="translate(66,43)"/>
<path d="M0 0 C2.97 0.495 2.97 0.495 6 1 C6 6.28 6 11.56 6 17 C5.01 17 4.02 17 3 17 C3 15.68 3 14.36 3 13 C2.01 13 1.02 13 0 13 C0 8.71 0 4.42 0 0 Z " fill="#616161" transform="translate(118,22)"/>
<path d="M0 0 C2 2 2 2 2.125 4.625 C2.08375 5.40875 2.0425 6.1925 2 7 C1.67 6.34 1.34 5.68 1 5 C0.34 5 -0.32 5 -1 5 C-1 5.66 -1 6.32 -1 7 C-1.66 7 -2.32 7 -3 7 C-3 8.98 -3 10.96 -3 13 C-2.34 13.33 -1.68 13.66 -1 14 C-2.32 14 -3.64 14 -5 14 C-5 11.69 -5 9.38 -5 7 C-6.32 7 -7.64 7 -9 7 C-9.25 4.6875 -9.25 4.6875 -9 2 C-6.07557433 -1.24936186 -4.04996841 -1.38551551 0 0 Z " fill="#64786A" transform="translate(159,2)"/>
<path d="M0 0 C0.66 0 1.32 0 2 0 C2 4.29 2 8.58 2 13 C0.68 13 -0.64 13 -2 13 C-2 14.32 -2 15.64 -2 17 C-2.66 17 -3.32 17 -4 17 C-4 15.68 -4 14.36 -4 13 C-4.99 13 -5.98 13 -7 13 C-7 10.03 -7 7.06 -7 4 C-5.35 4 -3.7 4 -2 4 C-2 6.31 -2 8.62 -2 11 C-1.34 11 -0.68 11 0 11 C0 7.37 0 3.74 0 0 Z " fill="#2A2A2A" transform="translate(93,43)"/>
<path d="M0 0 C0.33 0 0.66 0 1 0 C2.38282123 7.60551675 3.63431584 17.66154873 1 25 C-2.20822874 27.09232309 -4.15947088 28 -8 28 C-8.625 25.625 -8.625 25.625 -9 23 C-8.34 22.34 -7.68 21.68 -7 21 C-5.33333333 21 -3.66666667 21 -2 21 C-0.85345518 18.70691037 -0.80270883 17.20090344 -0.68359375 14.6484375 C-0.64169922 13.79765625 -0.59980469 12.946875 -0.55664062 12.0703125 C-0.51732422 11.18085937 -0.47800781 10.29140625 -0.4375 9.375 C-0.39431641 8.4778125 -0.35113281 7.580625 -0.30664062 6.65625 C-0.20043139 4.43765717 -0.09838806 2.2189512 0 0 Z " fill="#F9F5E5" transform="translate(149,52)"/>
<path d="M0 0 C0 0.99 0 1.98 0 3 C0.66 3 1.32 3 2 3 C2 3.66 2 4.32 2 5 C1.34 5 0.68 5 0 5 C0.01160156 5.80179688 0.02320313 6.60359375 0.03515625 7.4296875 C0.11366971 17.32238314 -0.37335876 27.13040041 -1 37 C-1.33 37 -1.66 37 -2 37 C-2 26.44 -2 15.88 -2 5 C-2.99 5 -3.98 5 -5 5 C-5 6.65 -5 8.3 -5 10 C-5.99 10.495 -5.99 10.495 -7 11 C-6.93993922 9.54052295 -6.8511311 8.08220728 -6.75 6.625 C-6.70359375 5.81289063 -6.6571875 5.00078125 -6.609375 4.1640625 C-6 2 -6 2 -4.078125 0.7109375 C-2 0 -2 0 0 0 Z " fill="#4E290B" transform="translate(156,36)"/>
<path d="M0 0 C0.99 0 1.98 0 3 0 C3 10.23 3 20.46 3 31 C2.34 31 1.68 31 1 31 C0.23785964 20.64305688 -0.13430792 10.3864793 0 0 Z " fill="#CE971F" transform="translate(151,41)"/>
<path d="M0 0 C0.66 0 1.32 0 2 0 C2 3.63 2 7.26 2 11 C2.99 11 3.98 11 5 11 C5 8.69 5 6.38 5 4 C6.65 4.33 8.3 4.66 10 5 C10 7.64 10 10.28 10 13 C6.7 13 3.4 13 0 13 C0 8.71 0 4.42 0 0 Z " fill="#303030" transform="translate(15,43)"/>
<path d="M0 0 C1.2065625 0.0309375 1.2065625 0.0309375 2.4375 0.0625 C2.4375 2.3725 2.4375 4.6825 2.4375 7.0625 C3.0975 7.3925 3.7575 7.7225 4.4375 8.0625 C3.7775 9.7125 3.1175 11.3625 2.4375 13.0625 C1.7775 13.0625 1.1175 13.0625 0.4375 13.0625 C0.4375 11.7425 0.4375 10.4225 0.4375 9.0625 C-0.8825 9.0625 -2.2025 9.0625 -3.5625 9.0625 C-3.66015625 2.91015625 -3.66015625 2.91015625 -3.5625 1.0625 C-2.5625 0.0625 -2.5625 0.0625 0 0 Z " fill="#292929" transform="translate(29.5625,46.9375)"/>
<path d="M0 0 C0.66 0 1.32 0 2 0 C2 3.63 2 7.26 2 11 C2.66 11 3.32 11 4 11 C4 9.02 4 7.04 4 5 C5.32 4.67 6.64 4.34 8 4 C8.33 5.32 8.66 6.64 9 8 C8.34 8 7.68 8 7 8 C6.67 8.99 6.34 9.98 6 11 C7.98 11 9.96 11 12 11 C12 11.33 12 11.66 12 12 C7.59085217 13.10228696 3.51617599 13.07654536 -1 13 C-0.67 8.71 -0.34 4.42 0 0 Z " fill="#141414" transform="translate(34,43)"/>
<path d="M0 0 C1.65 0 3.3 0 5 0 C5 4.29 5 8.58 5 13 C4.34 13 3.68 13 3 13 C3 11.68 3 10.36 3 9 C1.68 9 0.36 9 -1 9 C-1.09765625 2.84765625 -1.09765625 2.84765625 -1 1 C-0.67 0.67 -0.34 0.34 0 0 Z " fill="#474847" transform="translate(126,26)"/>
<path d="M0 0 C6.93 0.495 6.93 0.495 14 1 C14 3.31 14 5.62 14 8 C13.67 8 13.34 8 13 8 C13 6.02 13 4.04 13 2 C9.7 2.33 6.4 2.66 3 3 C2.67 4.65 2.34 6.3 2 8 C5.3 8 8.6 8 12 8 C12 8.33 12 8.66 12 9 C4.41 9 -3.18 9 -11 9 C-11 8.67 -11 8.34 -11 8 C-7.7 7.67 -4.4 7.34 -1 7 C-0.67 4.69 -0.34 2.38 0 0 Z " fill="#121212" transform="translate(66,26)"/>
<path d="M0 0 C1.65 0 3.3 0 5 0 C5 4.29 5 8.58 5 13 C3.02 13 1.04 13 -1 13 C-0.67 8.71 -0.34 4.42 0 0 Z " fill="#1D1D1D" transform="translate(93,22)"/>
<path d="M0 0 C0.66 0 1.32 0 2 0 C2 3.63 2 7.26 2 11 C2.66 11 3.32 11 4 11 C4 7.37 4 3.74 4 0 C4.66 0 5.32 0 6 0 C6 4.29 6 8.58 6 13 C4.02 13 2.04 13 0 13 C0 8.71 0 4.42 0 0 Z " fill="#2F2F2F" transform="translate(15,22)"/>
<path d="M0 0 C3.3 0 6.6 0 10 0 C10 1.65 10 3.3 10 5 C6.37 5 2.74 5 -1 5 C-0.67 3.35 -0.34 1.7 0 0 Z " fill="#D9D9D9" transform="translate(69,28)"/>
<path d="M0 0 C0.99 0 1.98 0 3 0 C3 2.97 3 5.94 3 9 C-0.63 9 -4.26 9 -8 9 C-8 6.69 -8 4.38 -8 2 C-7.34 2 -6.68 2 -6 2 C-6 3.65 -6 5.3 -6 7 C-4.02 7 -2.04 7 0 7 C0 4.69 0 2.38 0 0 Z " fill="#373737" transform="translate(11,47)"/>
<path d="M0 0 C1.65 0 3.3 0 5 0 C5 4.29 5 8.58 5 13 C4.34 13 3.68 13 3 13 C3 11.68 3 10.36 3 9 C2.01 9 1.02 9 0 9 C0 6.03 0 3.06 0 0 Z " fill="#3F3F3F" transform="translate(126,47)"/>
<path d="M0 0 C0.99 0 1.98 0 3 0 C3 2.97 3 5.94 3 9 C-0.63 9 -4.26 9 -8 9 C-8 6.69 -8 4.38 -8 2 C-7.34 2 -6.68 2 -6 2 C-6 3.65 -6 5.3 -6 7 C-4.02 7 -2.04 7 0 7 C0 4.69 0 2.38 0 0 Z " fill="#3A3A3A" transform="translate(11,26)"/>
<path d="M0 0 C1.32 0 2.64 0 4 0 C4 4 4 8 4 12 C2.35 12 0.7 12 -1 12 C-1.02687279 10.18757948 -1.04633715 8.37504767 -1.0625 6.5625 C-1.07410156 5.55316406 -1.08570312 4.54382813 -1.09765625 3.50390625 C-1 1 -1 1 0 0 Z " fill="#383838" transform="translate(109,23)"/>
<path d="M0 0 C0.99 1.485 0.99 1.485 2 3 C3.90708843 3.91428339 3.90708843 3.91428339 6 4 C6.99 3.34 7.98 2.68 9 2 C9.33 2.99 9.66 3.98 10 5 C9.34 5.66 8.68 6.32 8 7 C7.67 7.99 7.34 8.98 7 10 C5.68 10 4.36 10 3 10 C3 9.01 3 8.02 3 7 C2.01 7 1.02 7 0 7 C0 4.69 0 2.38 0 0 Z " fill="#E7CC86" transform="translate(140,31)"/>
<path d="M0 0 C1.32 0 2.64 0 4 0 C4 2.64 4 5.28 4 8 C4.99 8.33 5.98 8.66 7 9 C6.01 9 5.02 9 4 9 C4 10.32 4 11.64 4 13 C3.34 13 2.68 13 2 13 C2 11.68 2 10.36 2 9 C1.01 8.67 0.02 8.34 -1 8 C-0.01 8 0.98 8 2 8 C1.67 6.35 1.34 4.7 1 3 C0.34 4.32 -0.32 5.64 -1 7 C-1.04254356 5.00045254 -1.04080783 2.99958364 -1 1 C-0.67 0.67 -0.34 0.34 0 0 Z " fill="#121212" transform="translate(98,47)"/>
<path d="M0 0 C0.99 0.33 1.98 0.66 3 1 C2.731875 1.515625 2.46375 2.03125 2.1875 2.5625 C0.67650593 5.66401415 -0.65572726 8.82262806 -2 12 C-2.66 12 -3.32 12 -4 12 C-4.8125 8.8125 -4.8125 8.8125 -5 5 C-2.5625 2.0625 -2.5625 2.0625 0 0 Z " fill="#B28946" transform="translate(160,27)"/>
<path d="M0 0 C3 0 3 0 5.0625 1.875 C5.701875 2.57625 6.34125 3.2775 7 4 C7.66 4.66 8.32 5.32 9 6 C7.68 6.99 6.36 7.98 5 9 C5 8.34 5 7.68 5 7 C4.01 7 3.02 7 2 7 C1.67 7.99 1.34 8.98 1 10 C0.67 6.7 0.34 3.4 0 0 Z " fill="#B59757" transform="translate(140,27)"/>
<path d="M0 0 C1.65 0.33 3.3 0.66 5 1 C7 6.75 7 6.75 7 9 C6.01 9 5.02 9 4 9 C4 9.99 4 10.98 4 12 C3.01 12 2.02 12 1 12 C1 11.34 1 10.68 1 10 C0.34 9.34 -0.32 8.68 -1 8 C0.65 8 2.3 8 4 8 C3.67 6.35 3.34 4.7 3 3 C2.01 2.67 1.02 2.34 0 2 C0 1.34 0 0.68 0 0 Z " fill="#323232" transform="translate(77,47)"/>
<path d="M0 0 C0.33 0.66 0.66 1.32 1 2 C-4.75 5 -4.75 5 -7 5 C-7.33 5.66 -7.66 6.32 -8 7 C-8.66 7 -9.32 7 -10 7 C-9.67 5.02 -9.34 3.04 -9 1 C-5.8035914 -0.06546953 -3.34252724 -0.07427838 0 0 Z " fill="#C7C7C7" transform="translate(10,44)"/>
<path d="M0 0 C2.4375 0.75 2.4375 0.75 4.4375 2.75 C4.5625 5.375 4.5625 5.375 4.4375 7.75 C3.715625 7.069375 2.99375 6.38875 2.25 5.6875 C-0.3830652 3.43262931 -0.3830652 3.43262931 -3.375 4 C-4.4578125 4.37125 -4.4578125 4.37125 -5.5625 4.75 C-5.5625 3.76 -5.5625 2.77 -5.5625 1.75 C-2.5625 -0.25 -2.5625 -0.25 0 0 Z " fill="#869688" transform="translate(156.5625,1.25)"/>
<path d="M0 0 C0.66 0 1.32 0 2 0 C2 2.31 2 4.62 2 7 C5.3 7 8.6 7 12 7 C12 7.33 12 7.66 12 8 C10.06403108 8.22211116 8.12610672 8.42722992 6.1875 8.625 C4.56908203 8.79902344 4.56908203 8.79902344 2.91796875 8.9765625 C0 9 0 9 -3 7 C-2.01 7 -1.02 7 0 7 C0 4.69 0 2.38 0 0 Z " fill="#2C2C2C" transform="translate(105,47)"/>
<path d="M0 0 C0.99 0 1.98 0 3 0 C2.67 4.62 2.34 9.24 2 14 C1.34 14 0.68 14 0 14 C0 9.38 0 4.76 0 0 Z " fill="#C2994B" transform="translate(156,41)"/>
<path d="M0 0 C0.33 0 0.66 0 1 0 C1.66 2.31 2.32 4.62 3 7 C3.66 6.67 4.32 6.34 5 6 C5 7.98 5 9.96 5 12 C3.35 12.33 1.7 12.66 0 13 C0 8.71 0 4.42 0 0 Z " fill="#BBBBBB" transform="translate(95,43)"/>
<path d="M0 0 C3.61855575 0.62388892 4.1709277 1.1709277 7 4 C4.36 4.99 1.72 5.98 -1 7 C-2 4 -2 4 -1.0625 1.8125 C-0.5365625 0.9153125 -0.5365625 0.9153125 0 0 Z " fill="#E2E2E2" transform="translate(131,0)"/>
<path d="M0 0 C0.66 0 1.32 0 2 0 C2.03738281 0.77085938 2.07476563 1.54171875 2.11328125 2.3359375 C2.17902344 3.33882812 2.24476562 4.34171875 2.3125 5.375 C2.37050781 6.37273438 2.42851562 7.37046875 2.48828125 8.3984375 C2.65714844 9.25695313 2.82601563 10.11546875 3 11 C3.99 11.66 4.98 12.32 6 13 C4.02 13 2.04 13 0 13 C0 8.71 0 4.42 0 0 Z " fill="#373737" transform="translate(22,22)"/>
<path d="M0 0 C0.66 0 1.32 0 2 0 C1.67 1.65 1.34 3.3 1 5 C0.34 3.68 -0.32 2.36 -1 1 C-0.67 0.67 -0.34 0.34 0 0 Z M-2 3 C-0.63881539 5.24195113 0.06138028 6.47826762 -0.25 9.125 C-1 11 -1 11 -3 13 C-4.15837626 8.94568308 -3.83691257 6.78187881 -2 3 Z " fill="#F9F4E6" transform="translate(147,19)"/>
<path d="M0 0 C0.99 0.495 0.99 0.495 2 1 C2.99 0.67 3.98 0.34 5 0 C5 2.31 5 4.62 5 7 C3.35 7.33 1.7 7.66 0 8 C0 5.36 0 2.72 0 0 Z " fill="#5F5F5F" transform="translate(26,48)"/>
<path d="M0 0 C0.66 0.66 1.32 1.32 2 2 C1.96712417 4.72869407 1.43602229 7.2966618 1 10 C0.01 10 -0.98 10 -2 10 C-2.33 7.36 -2.66 4.72 -3 2 C-2.01 1.34 -1.02 0.68 0 0 Z " fill="#D8D8D8" transform="translate(104,44)"/>
<path d="M0 0 C2 2 2 2 2 5 C3.98 5 5.96 5 8 5 C8 6.65 8 8.3 8 10 C7.67 8.68 7.34 7.36 7 6 C4.69 6 2.38 6 0 6 C-0.66 7.32 -1.32 8.64 -2 10 C-2.25 3.375 -2.25 3.375 0 0 Z " fill="#CBCBCB" transform="translate(109,44)"/>
<path d="M0 0 C0.99 0 1.98 0 3 0 C3.93423645 3.01031744 4.04449911 3.86650268 3 7 C0.03 6.505 0.03 6.505 -3 6 C-3 5.34 -3 4.68 -3 4 C-2.34 4 -1.68 4 -1 4 C-0.67 2.68 -0.34 1.36 0 0 Z " fill="#261F37" transform="translate(159,20)"/>
<path d="M0 0 C2.97 0 5.94 0 9 0 C9 1.32 9 2.64 9 4 C8.34 4 7.68 4 7 4 C6.34 5.32 5.68 6.64 5 8 C5.33 6.02 5.66 4.04 6 2 C3.69 2 1.38 2 -1 2 C-0.67 1.34 -0.34 0.68 0 0 Z " fill="#523C4A" transform="translate(152,16)"/>
<path d="M0 0 C0 0.99 0 1.98 0 3 C-3.96 3 -7.92 3 -12 3 C-7.09396701 -0.67952474 -5.82490317 -0.29124516 0 0 Z " fill="#CF9E32" transform="translate(156,77)"/>
<path d="M0 0 C1.32 0 2.64 0 4 0 C4.96070434 2.88211302 5.10581883 4.69850044 5.0625 7.6875 C5.05347656 8.49574219 5.04445313 9.30398437 5.03515625 10.13671875 C5.02355469 10.75160156 5.01195313 11.36648437 5 12 C4.01 11.34 3.02 10.68 2 10 C1.8125 6.375 1.8125 6.375 2 3 C1.34 3 0.68 3 0 3 C0 2.01 0 1.02 0 0 Z " fill="#727272" transform="translate(119,44)"/>
<path d="M0 0 C0.66 0 1.32 0 2 0 C2 2.31 2 4.62 2 7 C0.02 7 -1.96 7 -4 7 C-4 5.35 -4 3.7 -4 2 C-3.67 2.66 -3.34 3.32 -3 4 C-2.34 4 -1.68 4 -1 4 C-0.67 2.68 -0.34 1.36 0 0 Z " fill="#EAEAEA" transform="translate(44,47)"/>
<path d="M0 0 C0.33 0.66 0.66 1.32 1 2 C1.66 2 2.32 2 3 2 C3 4.31 3 6.62 3 9 C2.34 8.34 1.68 7.68 1 7 C0.29875 6.505 -0.4025 6.01 -1.125 5.5 C-1.74375 5.005 -2.3625 4.51 -3 4 C-3 3.34 -3 2.68 -3 2 C-2.01 2 -1.02 2 0 2 C0 1.34 0 0.68 0 0 Z " fill="#EAF0E9" transform="translate(151,7)"/>
<path d="M0 0 C2.475 0.495 2.475 0.495 5 1 C4.67 2.98 4.34 4.96 4 7 C3.01 7 2.02 7 1 7 C0.67 4.69 0.34 2.38 0 0 Z " fill="#4D4D4D" transform="translate(46,47)"/>
<path d="M0 0 C2.475 0.495 2.475 0.495 5 1 C4.67 2.98 4.34 4.96 4 7 C2.68 6.34 1.36 5.68 0 5 C0 3.35 0 1.7 0 0 Z " fill="#D2A543" transform="translate(150,19)"/>
<path d="M0 0 C2 2 2 2 2 5 C-0.31 5.33 -2.62 5.66 -5 6 C-4.67 4.68 -4.34 3.36 -4 2 C-2.68 2 -1.36 2 0 2 C0 1.34 0 0.68 0 0 Z " fill="#3A5C40" transform="translate(155,3)"/>
<path d="M0 0 C0.33 0 0.66 0 1 0 C1 3.63 1 7.26 1 11 C0.01 11 -0.98 11 -2 11 C-2 9.02 -2 7.04 -2 5 C-1.67 5 -1.34 5 -1 5 C-0.67 3.35 -0.34 1.7 0 0 Z " fill="#C5C5C5" transform="translate(53,43)"/>
<path d="M0 0 C0.33 1.32 0.66 2.64 1 4 C0.01 4 -0.98 4 -2 4 C-2 5.65 -2 7.3 -2 9 C-2.99 9.495 -2.99 9.495 -4 10 C-3.67 7.03 -3.34 4.06 -3 1 C-2.01 0.67 -1.02 0.34 0 0 Z " fill="#AA5C12" transform="translate(153,37)"/>
<path d="M0 0 C0.99 1.485 0.99 1.485 2 3 C2.99 3 3.98 3 5 3 C5 4.65 5 6.3 5 8 C3.35 7.67 1.7 7.34 0 7 C0 4.69 0 2.38 0 0 Z " fill="#EDC76D" transform="translate(140,31)"/>
<path d="M0 0 C0.33 0.99 0.66 1.98 1 3 C1.99 3.33 2.98 3.66 4 4 C3.01 4 2.02 4 1 4 C1 5.32 1 6.64 1 8 C0.34 8 -0.32 8 -1 8 C-1 6.68 -1 5.36 -1 4 C-1.99 3.67 -2.98 3.34 -4 3 C-3.01 2.67 -2.02 2.34 -1 2 C-0.67 1.34 -0.34 0.68 0 0 Z " fill="#0C0C0C" transform="translate(101,52)"/>
<path d="M0 0 C0.33 0 0.66 0 1 0 C1.33 1.65 1.66 3.3 2 5 C3.65 4.34 5.3 3.68 7 3 C7 4.32 7 5.64 7 7 C4.69 7 2.38 7 0 7 C0 4.69 0 2.38 0 0 Z " fill="#CDCDCD" transform="translate(74,47)"/>
<path d="M0 0 C0.99 0 1.98 0 3 0 C2.67 2.97 2.34 5.94 2 9 C1.01 9 0.02 9 -1 9 C-0.4740625 7.329375 -0.4740625 7.329375 0.0625 5.625 C1.37239331 2.19735524 1.37239331 2.19735524 0 0 Z " fill="#FBE9DF" transform="translate(147,40)"/>
<path d="M0 0 C1.32 0 2.64 0 4 0 C4 1.98 4 3.96 4 6 C3.67 5.01 3.34 4.02 3 3 C1.35 2.67 -0.3 2.34 -2 2 C-1.34 1.34 -0.68 0.68 0 0 Z " fill="#7D6336" transform="translate(153,74)"/>
<path d="M0 0 C1.32 0.99 2.64 1.98 4 3 C2.68 3.99 1.36 4.98 0 6 C0 5.34 0 4.68 0 4 C-0.66 4 -1.32 4 -2 4 C-2 3.34 -2 2.68 -2 2 C-1.34 2 -0.68 2 0 2 C0 1.34 0 0.68 0 0 Z " fill="#C9A353" transform="translate(145,30)"/>
<path d="M0 0 C0.99 0.33 1.98 0.66 3 1 C2.67 2.32 2.34 3.64 2 5 C1.01 5 0.02 5 -1 5 C-0.67 3.35 -0.34 1.7 0 0 Z " fill="#88794C" transform="translate(142,21)"/>
</svg>
